<?xml version="1.0" standalone="no"?>
<!DOCTYPE svg PUBLIC "-//W3C//DTD SVG 20010904//EN"
 "http://www.w3.org/TR/2001/REC-SVG-20010904/DTD/svg10.dtd">
<svg version="1.0" xmlns="http://www.w3.org/2000/svg"
 width="1024.000000pt" height="1024.000000pt" viewBox="0 0 1024.000000 1024.000000"
 preserveAspectRatio="xMidYMid meet">

<g transform="translate(0.000000,1024.000000) scale(0.100000,-0.100000)"
fill="#000000" stroke="none">
<path d="M2790 8603 c-213 -23 -424 -112 -575 -243 -162 -140 -275 -309 -331
-496 -25 -82 -27 -107 -32 -304 l-4 -215 -217 0 c-200 -1 -219 -2 -264 -23
-70 -32 -140 -102 -173 -175 l-29 -62 0 -700 0 -700 32 -67 c36 -77 111 -155
181 -190 44 -22 61 -23 259 -26 l211 -3 5 -337 c4 -318 6 -343 30 -447 81
-346 248 -638 510 -892 358 -346 673 -491 1150 -529 l77 -6 0 -46 c0 -61 34
-201 61 -255 12 -23 37 -65 55 -94 l33 -52 -37 -6 c-82 -14 -211 -49 -279 -76
-237 -94 -450 -303 -556 -544 -76 -176 -101 -362 -95 -697 3 -208 5 -226 27
-271 47 -97 126 -136 236 -116 36 7 63 15 60 17 -2 3 8 25 23 51 l27 46 3 238
c3 208 5 238 18 233 9 -3 848 -6 1865 -6 l1849 0 0 -227 0 -228 29 -52 c26
-47 27 -51 9 -50 -11 1 -16 7 -13 15 3 8 0 10 -7 6 -8 -5 -9 -2 -5 9 7 18 -13
19 -25 2 -5 -6 -8 -5 -8 3 0 6 1 14 3 15 1 2 -4 11 -12 20 -7 10 -10 17 -5 17
4 0 -3 12 -17 26 -16 18 -20 28 -11 31 18 7 16 83 -2 83 -11 0 -16 15 -18 53
l-3 52 -104 0 c-75 0 -106 -4 -108 -12 -4 -10 11 -13 51 -13 31 0 56 -4 56
-10 0 -6 -33 -10 -80 -10 l-80 0 0 -30 c0 -28 2 -30 40 -30 22 0 40 -4 40 -10
0 -5 -18 -10 -40 -10 -22 0 -40 -4 -40 -10 0 -6 -33 -10 -80 -10 l-80 0 0 -60
0 -60 -80 0 c-73 0 -80 2 -80 20 0 17 -7 20 -40 20 -33 0 -40 3 -40 20 0 17
-7 20 -40 20 -33 0 -40 -3 -40 -20 0 -19 -7 -20 -120 -20 -113 0 -120 -1 -120
-20 0 -17 -7 -20 -40 -20 -38 0 -40 2 -40 30 0 28 -2 30 -40 30 -22 0 -40 5
-40 10 0 6 18 10 40 10 33 0 40 3 40 20 0 20 -7 20 -280 20 -273 0 -280 0
-280 -20 0 -17 -7 -20 -39 -20 -35 0 -39 3 -44 30 l-6 30 -156 0 c-97 0 -155
-4 -155 -10 0 -6 -35 -10 -85 -10 -50 0 -85 4 -85 10 0 6 -32 10 -75 10 -60 0
-75 -3 -75 -15 0 -12 -20 -15 -120 -15 -100 0 -120 -2 -120 -15 0 -12 20 -15
120 -15 73 0 120 -4 120 -10 0 -6 -100 -10 -280 -10 -180 0 -280 4 -280 10 0
6 33 10 80 10 64 0 80 3 80 15 0 11 -11 15 -40 15 -29 0 -40 4 -40 15 0 12
-16 15 -80 15 l-80 0 0 -29 0 -30 -83 -3 c-82 -3 -83 -3 -79 19 4 22 2 23 -82
23 -51 0 -86 4 -86 10 0 6 -45 10 -115 10 l-115 0 -1 -32 c0 -18 -3 -27 -6
-20 -7 19 -33 14 -33 -7 0 -23 -25 -45 -41 -36 -8 6 -8 2 0 -13 8 -16 7 -21
-5 -26 -14 -5 -14 -9 -3 -24 13 -15 12 -16 -3 -4 -19 15 -33 2 -33 -34 -1 -19
6 -22 74 -28 114 -9 3659 -6 3636 4 -17 7 -17 9 -2 9 9 1 17 6 17 13 0 6 7 3
15 -8 15 -19 15 -19 8 1 -6 18 -5 19 12 5 10 -8 28 -15 39 -15 12 0 36 -7 54
-14 81 -34 191 12 239 100 l24 44 -4 345 c-4 313 -6 352 -25 422 -50 182 -136
334 -260 461 -76 77 -230 184 -337 233 -116 54 -316 111 -339 97 -5 -4 2 9 17
29 60 78 117 266 117 383 l0 55 120 0 c173 0 332 33 525 110 488 193 894 631
1070 1154 71 209 77 255 82 613 l5 322 202 3 201 3 61 32 c104 54 173 152 194
274 7 43 10 276 8 719 -3 651 -3 655 -25 702 -28 60 -94 132 -151 165 -70 41
-140 53 -324 53 l-168 0 0 183 c0 100 -5 211 -11 247 -43 272 -244 545 -509
693 -36 20 -106 52 -156 71 -181 70 -38 66 -2511 64 -1226 0 -2244 -3 -2263
-5z m3488 -365 l1107 -3 97 -46 c53 -26 117 -66 144 -90 72 -66 146 -160 140
-176 -3 -8 -2 -12 3 -8 5 3 25 -23 44 -57 69 -124 67 -76 69 -1192 l3 -1006
-2840 0 -2840 0 3 527 c2 453 4 530 17 539 8 6 15 25 15 43 0 30 2 31 40 31
l40 0 0 120 0 120 -40 0 -39 0 -4 103 c-2 63 -4 32 -5 -82 -1 -101 -4 -182 -6
-180 -6 7 -20 547 -17 684 3 143 22 250 49 272 9 8 11 11 3 7 -20 -10 28 68
76 124 80 92 117 124 229 189 93 55 161 75 279 82 61 3 608 5 1218 4 609 -2
1605 -4 2215 -5z m-4440 -1455 c-2 -188 -5 -166 -10 65 -2 67 0 122 5 122 4 0
6 -84 5 -187z m6719 65 c-2 -24 -4 -5 -4 42 0 47 2 66 4 43 2 -24 2 -62 0 -85z
m0 -190 c-2 -13 -4 -3 -4 22 0 25 2 35 4 23 2 -13 2 -33 0 -45z m0 -570 c-3
-7 -5 -2 -5 12 0 14 2 19 5 13 2 -7 2 -19 0 -25z m-7020 -130 c-2 -24 -4 -5
-4 42 0 47 2 66 4 43 2 -24 2 -62 0 -85z m300 -70 c-2 -35 -3 -7 -3 62 0 69 1
97 3 63 2 -35 2 -91 0 -125z m6720 10 c-2 -35 -3 -9 -3 57 0 66 1 94 3 63 2
-32 2 -86 0 -120z m-6989 -131 c25 -4 24 -4 -5 -6 l-33 -1 2 63 2 62 3 -57 c4
-53 6 -57 31 -61z m170 6 c-27 -2 -69 -2 -95 0 -27 2 -5 3 47 3 52 0 74 -1 48
-3z m102 -2 c0 -4 -11 -6 -25 -3 -14 2 -25 6 -25 8 0 2 11 4 25 4 14 0 25 -4
25 -9z m6559 5 c-2 -2 -35 -6 -74 -9 -45 -3 -58 -3 -35 2 37 9 116 14 109 7z
m124 -3 c-7 -2 -21 -2 -30 0 -10 3 -4 5 12 5 17 0 24 -2 18 -5z m-4066 -505
c-4 -21 -21 -36 -35 -30 -11 4 -11 6 0 14 10 8 10 9 -2 5 -8 -2 -14 -14 -14
-25 1 -17 -4 -22 -25 -22 -15 0 -36 -7 -47 -15 -10 -8 -26 -14 -34 -15 -11 0
-12 2 -2 8 8 5 -1 8 -22 8 -19 -1 -32 -4 -30 -8 8 -12 -32 -27 -60 -22 -19 3
-26 0 -26 -11 0 -8 7 -15 15 -15 8 0 15 4 15 9 0 6 12 6 29 1 24 -7 41 -2 87
21 31 16 58 28 60 26 2 -2 -22 -16 -54 -33 -31 -16 -61 -34 -67 -40 -14 -14
-63 -44 -72 -44 -4 1 3 10 17 22 20 17 21 20 5 13 -36 -14 -72 -17 -79 -6 -10
15 -23 14 -29 -3 -4 -10 0 -12 15 -8 30 7 14 -14 -24 -34 -34 -18 -47 -11 -50
29 -2 25 -28 40 -28 17 0 -5 -18 -10 -40 -10 -30 0 -40 -4 -40 -16 0 -13 -10
-15 -57 -12 -39 2 -57 -1 -60 -9 -3 -8 4 -13 19 -13 16 0 19 -3 10 -9 -8 -5 8
-6 37 -3 45 4 51 2 52 -14 1 -17 2 -17 6 -1 6 22 9 21 40 -3 29 -22 43 -19 23
5 -8 10 -9 15 -1 15 6 0 11 -5 11 -11 0 -8 4 -8 15 1 8 6 20 10 27 7 7 -2 21
0 30 5 14 6 16 5 12 -7 -3 -8 -11 -12 -17 -8 -6 3 -7 1 -3 -5 9 -16 -7 -15
-22 0 -9 9 -15 9 -24 0 -6 -6 -8 -15 -4 -19 4 -4 11 -1 15 6 6 8 11 9 15 3 3
-6 -9 -16 -29 -22 -19 -6 -35 -15 -35 -19 0 -15 -52 -33 -64 -21 -12 12 -63
14 -70 2 -2 -4 10 -6 29 -4 18 2 36 -1 39 -7 5 -7 1 -8 -10 -4 -12 5 -15 3 -9
-6 6 -10 3 -11 -13 -2 -27 14 -47 6 -61 -25 -6 -15 -7 -23 -1 -19 5 3 10 2 10
-4 0 -13 336 176 591 332 l111 67 1681 0 1680 0 -7 -202 c-14 -384 -90 -633
-280 -918 -60 -90 -277 -311 -361 -367 -188 -125 -374 -198 -570 -223 -65 -8
-525 -10 -1675 -8 l-1585 4 -80 21 c-278 75 -461 179 -655 373 -103 103 -218
240 -229 273 -2 7 -7 14 -11 17 -9 7 -90 145 -90 154 0 4 -14 39 -30 77 -17
38 -28 74 -25 79 3 6 2 10 -3 10 -13 0 -60 182 -69 261 -3 35 -8 151 -10 257
l-5 192 1126 0 c867 0 1125 -3 1123 -12z m-174 -95 c-7 -2 -19 -2 -25 0 -7 3
-2 5 12 5 14 0 19 -2 13 -5z m-135 -100 c-10 -2 -18 -9 -18 -14 0 -5 -7 -9
-15 -9 -8 0 -15 4 -15 9 0 10 24 19 50 19 10 0 9 -2 -2 -5z m-282 -168 c-23
-18 -36 -19 -36 -4 0 5 4 8 9 4 5 -3 12 -1 16 5 3 5 12 10 18 10 7 0 3 -7 -7
-15z m2193 -1768 c-10 -73 -20 -108 -29 -102 -5 3 -6 -3 -3 -13 9 -38 -164
-242 -205 -242 -13 1 -12 3 6 13 12 7 19 17 15 22 -5 4 -2 5 6 0 11 -6 13 -4
8 9 -4 11 -3 15 4 11 6 -4 19 1 30 11 15 13 17 19 7 26 -10 7 -9 8 2 7 22 -3
51 12 44 23 -10 16 -12 58 -2 52 5 -3 7 -12 4 -20 -3 -7 -1 -16 4 -19 6 -4 10
-2 10 4 0 5 7 17 16 25 8 9 11 16 5 16 -6 0 -11 6 -11 14 0 21 -23 26 -115 26
-75 0 -84 2 -90 20 -8 25 -31 22 -61 -7 -16 -16 -35 -23 -64 -23 -29 0 -40 -4
-40 -15 0 -8 5 -15 10 -15 6 0 10 -18 10 -40 0 -22 -4 -40 -10 -40 -5 0 -10
18 -10 40 l0 40 -120 0 c-100 0 -120 3 -120 15 0 13 -33 15 -240 15 -207 0
-240 -2 -240 -15 0 -11 -11 -15 -40 -15 -39 0 -40 -1 -40 -35 0 -21 5 -35 13
-35 8 0 7 -4 -3 -10 -10 -7 12 -10 73 -10 63 0 87 3 87 13 0 8 4 7 10 -3 9
-13 10 -13 10 0 0 13 1 13 10 0 9 -13 10 -13 10 0 0 13 1 13 10 0 9 -13 10
-13 10 0 0 13 1 13 10 0 9 -13 10 -13 10 0 0 13 1 13 10 0 9 -13 10 -13 10 0
0 13 1 13 10 0 9 -13 10 -13 10 0 0 13 1 13 10 0 6 -10 10 -11 10 -2 0 9 42
12 175 12 160 0 175 -2 176 -17 0 -15 2 -15 9 2 l9 20 1 -20 1 -20 9 20 9 20
1 -20 1 -20 9 20 9 20 1 -20 1 -20 9 20 9 20 1 -20 1 -20 9 20 9 20 1 -20 1
-20 9 20 c8 18 9 18 9 2 1 -10 6 -15 11 -12 6 3 10 -1 10 -9 0 -11 9 -16 29
-16 29 0 49 -24 30 -36 -6 -3 -61 -9 -122 -14 l-112 -7 90 -3 90 -4 -85 -6
c-64 -5 -45 -6 77 -6 102 1 163 5 163 11 0 6 5 3 10 -5 9 -13 10 -13 10 0 1
11 4 10 15 -4 8 -11 15 -14 15 -8 0 7 5 12 10 12 6 0 10 -6 10 -12 0 -10 -157
-13 -750 -13 -412 0 -750 3 -750 7 0 3 -14 11 -32 17 -51 18 -129 72 -121 85
3 6 2 8 -2 3 -5 -4 -28 12 -52 35 -46 45 -56 65 -22 48 11 -7 18 -14 15 -17
-3 -3 4 -14 16 -24 30 -26 33 -24 9 7 -17 22 -19 30 -9 43 10 13 10 14 -2 4
-10 -9 -18 -9 -34 -1 -12 6 -23 10 -25 9 -10 -6 -62 105 -57 121 2 10 1 16 -4
13 -8 -5 -20 42 -20 79 l0 21 1038 -3 1039 -2 -8 -53z m-396 -354 c-13 -2 -33
-2 -45 0 -13 2 -3 4 22 4 25 0 35 -2 23 -4z m-623 -408 c0 -6 -114 -80 -218
-141 -46 -27 -100 -59 -120 -72 -20 -12 -53 -31 -72 -41 -37 -20 -128 -78
-169 -107 -21 -15 -75 -17 -617 -18 -327 0 -594 0 -594 2 0 43 199 259 228
247 9 -3 13 -3 10 1 -9 9 7 24 68 61 50 30 62 36 119 50 17 4 326 8 688 9 362
1 661 5 664 8 8 7 13 8 13 1z m37 -21 c-3 -3 -12 -4 -19 -1 -8 3 -5 6 6 6 11
1 17 -2 13 -5z m-365 -242 c-7 -2 -10 -7 -7 -11 2 -5 -8 -6 -23 -2 -25 5 -25
6 -4 9 12 2 22 8 22 13 0 6 5 7 12 3 9 -6 9 -9 0 -12z m-152 -82 c0 -5 -5 -10
-11 -10 -5 0 -7 5 -4 10 3 6 8 10 11 10 2 0 4 -4 4 -10z m-65 -30 c3 -5 2 -10
-4 -10 -5 0 -13 5 -16 10 -3 6 -2 10 4 10 5 0 13 -4 16 -10z m2305 -680 c0
-22 -4 -40 -10 -40 -5 0 -10 18 -10 40 0 22 5 40 10 40 6 0 10 -18 10 -40z
m-2657 -207 c-13 -2 -33 -2 -45 0 -13 2 -3 4 22 4 25 0 35 -2 23 -4z m-303
-63 c0 -6 -38 -9 -97 -8 -91 1 -93 2 -38 8 97 11 135 11 135 0z m-337 -7 c-13
-2 -33 -2 -45 0 -13 2 -3 4 22 4 25 0 35 -2 23 -4z m800 0 c-13 -2 -33 -2 -45
0 -13 2 -3 4 22 4 25 0 35 -2 23 -4z m320 0 c-13 -2 -33 -2 -45 0 -13 2 -3 4
22 4 25 0 35 -2 23 -4z m160 0 c-13 -2 -33 -2 -45 0 -13 2 -3 4 22 4 25 0 35
-2 23 -4z m160 0 c-13 -2 -33 -2 -45 0 -13 2 -3 4 22 4 25 0 35 -2 23 -4z
m134 0 c-20 -2 -52 -2 -70 0 -17 2 0 4 38 4 39 0 53 -2 32 -4z m706 0 c-79 -2
-207 -2 -285 0 -79 1 -15 3 142 3 157 0 221 -2 143 -3z m280 0 c-13 -2 -33 -2
-45 0 -13 2 -3 4 22 4 25 0 35 -2 23 -4z m160 0 c-13 -2 -33 -2 -45 0 -13 2
-3 4 22 4 25 0 35 -2 23 -4z m160 0 c-13 -2 -33 -2 -45 0 -13 2 -3 4 22 4 25
0 35 -2 23 -4z m124 1 c-3 -3 -12 -4 -19 -1 -8 3 -5 6 6 6 11 1 17 -2 13 -5z"/>
<path d="M7420 8176 c0 -2 7 -7 16 -10 8 -3 12 -2 9 4 -6 10 -25 14 -25 6z"/>
<path d="M7535 8090 c-3 -6 1 -7 9 -4 18 7 21 14 7 14 -6 0 -13 -4 -16 -10z"/>
<path d="M7570 8065 c0 -16 6 -25 15 -25 16 0 19 9 9 34 -9 25 -24 19 -24 -9z"/>
<path d="M7630 8039 c0 -5 5 -7 10 -4 6 3 10 8 10 11 0 2 -4 4 -10 4 -5 0 -10
-5 -10 -11z"/>
<path d="M2460 8012 c-13 -14 -12 -15 3 -9 9 3 19 2 22 -3 3 -5 14 -8 25 -7
15 1 16 4 8 15 -6 7 -17 11 -24 8 -7 -3 -14 -1 -16 4 -2 4 -10 1 -18 -8z"/>
<path d="M3654 8015 c-5 -11 -22 -15 -70 -15 l-64 0 0 -80 c0 -44 -3 -80 -7
-81 -5 -1 -24 -2 -44 -3 -32 -2 -35 0 -31 21 4 21 1 23 -37 23 -34 0 -41 -3
-41 -19 0 -11 6 -22 13 -24 10 -4 10 -6 0 -6 -16 -1 -19 -300 -3 -302 6 -1 37
-3 70 -4 33 -1 65 -3 70 -4 6 0 10 -33 10 -76 l0 -75 71 0 c61 0 70 -2 65 -16
-4 -12 -2 -15 9 -11 18 7 30 -9 13 -17 -7 -3 -2 -3 11 0 13 3 21 2 18 -2 -3
-5 1 -15 9 -22 11 -10 14 -10 14 -1 0 7 8 21 18 32 9 11 11 17 5 13 -7 -4 -13
-3 -13 2 0 5 -15 9 -32 8 l-33 -1 -3 234 c-1 142 1 238 7 245 6 8 37 12 81 11
l70 -1 0 62 c0 34 3 76 6 93 l7 31 -92 0 c-72 0 -93 -3 -97 -15z m106 -25 c0
-5 -18 -10 -40 -10 -22 0 -40 5 -40 10 0 6 18 10 40 10 22 0 40 -4 40 -10z"/>
<path d="M4640 8017 c0 -19 471 -18 478 1 3 9 -49 12 -237 12 -192 0 -241 -3
-241 -13z"/>
<path d="M5360 8017 c0 -18 391 -18 398 1 3 9 -41 12 -197 12 -155 0 -201 -3
-201 -13z"/>
<path d="M7040 8018 c0 -10 32 -14 120 -15 100 -2 120 0 120 12 0 12 -21 15
-120 15 -89 0 -120 -3 -120 -12z"/>
<path d="M7679 8017 c6 -8 7 -18 3 -22 -4 -5 -2 -5 5 -1 14 8 6 36 -9 36 -7 0
-6 -5 1 -13z"/>
<path d="M7280 7990 c0 -5 -18 -10 -40 -10 l-40 0 0 -64 c0 -42 4 -65 13 -68
6 -2 42 -4 80 -3 63 1 67 0 67 -22 0 -20 5 -23 39 -23 33 0 40 4 43 23 3 21 6
22 116 22 l112 0 0 37 c0 37 -1 38 -35 38 -24 0 -35 5 -35 15 0 12 -16 15 -80
15 -79 0 -80 0 -80 25 0 25 -1 25 -80 25 -47 0 -80 -4 -80 -10z m160 -80 c0
-5 -18 -10 -40 -10 -22 0 -40 5 -40 10 0 6 18 10 40 10 22 0 40 -4 40 -10z"/>
<path d="M2880 7940 c0 -18 7 -20 80 -20 73 0 80 2 80 20 0 18 -7 20 -80 20
-73 0 -80 -2 -80 -20z"/>
<path d="M3840 7940 c0 -18 7 -20 80 -20 73 0 80 2 80 20 0 18 -7 20 -80 20
-73 0 -80 -2 -80 -20z"/>
<path d="M4480 7940 c0 -18 7 -20 80 -20 73 0 80 2 80 20 0 18 -7 20 -80 20
-73 0 -80 -2 -80 -20z"/>
<path d="M4800 7940 c0 -17 7 -20 40 -20 33 0 40 3 40 20 0 17 -7 20 -40 20
-33 0 -40 -3 -40 -20z"/>
<path d="M5200 7940 c0 -19 7 -20 160 -20 153 0 160 1 160 20 0 19 -7 20 -160
20 -153 0 -160 -1 -160 -20z"/>
<path d="M6480 7940 c0 -17 7 -20 40 -20 33 0 40 3 40 20 0 17 -7 20 -40 20
-33 0 -40 -3 -40 -20z"/>
<path d="M6880 7940 c0 -18 7 -20 80 -20 73 0 80 2 80 20 0 18 -7 20 -80 20
-73 0 -80 -2 -80 -20z"/>
<path d="M2370 7940 c0 -5 5 -10 11 -10 6 0 8 -7 5 -16 -8 -21 4 -40 14 -23 5
6 3 23 -3 36 -10 23 -27 31 -27 13z"/>
<path d="M7690 7946 c0 -2 7 -9 15 -16 13 -11 14 -10 9 4 -5 14 -24 23 -24 12z"/>
<path d="M2311 7907 c-1 -11 -6 -15 -13 -11 -7 5 -8 3 -3 -5 10 -16 29 2 22
21 -4 8 -6 7 -6 -5z"/>
<path d="M2440 7880 c0 -33 3 -40 20 -40 17 0 20 7 20 40 0 33 -3 40 -20 40
-17 0 -20 -7 -20 -40z"/>
<path d="M7767 7893 c-4 -3 -7 -11 -7 -17 0 -6 5 -5 12 2 6 6 9 14 7 17 -3 3
-9 2 -12 -2z"/>
<path d="M2280 7873 c0 -6 8 -17 18 -24 16 -13 16 -13 2 6 -8 11 -16 22 -17
24 -2 2 -3 0 -3 -6z"/>
<path d="M6000 7860 c0 -18 7 -20 80 -20 73 0 80 2 80 20 0 18 -7 20 -80 20
-73 0 -80 -2 -80 -20z"/>
<path d="M7782 7858 c-7 -7 -11 -21 -11 -32 1 -21 1 -21 6 -1 3 11 10 26 15
33 13 15 6 16 -10 0z"/>
<path d="M2346 7844 c-4 -10 -1 -14 6 -12 15 5 23 28 10 28 -5 0 -13 -7 -16
-16z"/>
<path d="M6411 7832 c-7 -2 -11 -35 -11 -78 0 -42 -4 -75 -10 -75 -5 -1 -37
-3 -70 -4 -33 -1 -64 -3 -70 -4 -6 0 -10 -33 -10 -76 l0 -75 -40 0 -40 0 0
-40 0 -40 80 0 c73 0 80 -2 80 -20 0 -17 7 -20 40 -20 22 0 40 -4 40 -10 0 -5
18 -10 40 -10 38 0 40 2 40 30 0 26 3 30 29 30 27 0 28 2 35 61 3 34 6 123 6
198 l0 136 -64 0 c-36 0 -70 -1 -75 -3z"/>
<path d="M2258 7803 c7 -3 16 -2 19 1 4 3 -2 6 -13 5 -11 0 -14 -3 -6 -6z"/>
<path d="M2290 7793 c0 -12 -6 -24 -12 -26 -8 -4 -9 -6 -2 -6 20 -2 39 28 26
41 -9 9 -12 7 -12 -9z"/>
<path d="M2304 7759 c-3 -6 -2 -15 3 -20 5 -5 9 -1 10 11 2 22 -2 25 -13 9z"/>
<path d="M2366 7763 c-3 -4 -6 -24 -6 -45 0 -31 3 -38 20 -38 17 0 20 7 20 39
0 36 -18 59 -34 44z"/>
<path d="M7841 7754 c0 -11 3 -14 6 -6 3 7 2 16 -1 19 -3 4 -6 -2 -5 -13z"/>
<path d="M2960 7740 c0 -18 7 -20 80 -20 73 0 80 2 80 20 0 18 -7 20 -80 20
-73 0 -80 -2 -80 -20z"/>
<path d="M6680 7720 c0 -33 3 -40 20 -40 17 0 20 7 20 40 0 33 -3 40 -20 40
-17 0 -20 -7 -20 -40z"/>
<path d="M6960 7740 c0 -17 7 -20 40 -20 33 0 40 3 40 20 0 17 -7 20 -40 20
-33 0 -40 -3 -40 -20z"/>
<path d="M7840 7713 c0 -4 5 -15 10 -23 8 -13 10 -13 10 2 0 9 -4 20 -10 23
-5 3 -10 3 -10 -2z"/>
<path d="M6000 7660 c0 -17 7 -20 40 -20 33 0 40 3 40 20 0 17 -7 20 -40 20
-33 0 -40 -3 -40 -20z"/>
<path d="M7080 7640 c0 -33 3 -40 20 -40 17 0 20 -7 20 -40 0 -33 3 -40 20
-40 17 0 20 7 20 40 0 33 -3 40 -20 40 -17 0 -20 7 -20 40 0 33 -3 40 -20 40
-17 0 -20 -7 -20 -40z"/>
<path d="M7680 7480 c0 -193 1 -200 20 -200 13 0 20 7 20 20 0 11 5 20 10 20
6 0 10 27 10 60 0 33 4 60 10 60 6 0 10 18 10 40 0 36 -2 40 -25 40 -25 0 -25
1 -25 80 0 64 -3 80 -15 80 -13 0 -15 -29 -15 -200z"/>
<path d="M7863 7590 c0 -41 2 -58 4 -37 2 20 2 54 0 75 -2 20 -4 3 -4 -38z"/>
<path d="M4240 7620 c0 -17 7 -20 40 -20 l40 0 0 -40 0 -40 40 0 40 0 0 -80 0
-80 80 0 80 0 0 40 0 40 -40 0 -40 0 0 80 0 80 -80 0 c-73 0 -80 2 -80 20 0
17 -7 20 -40 20 -33 0 -40 -3 -40 -20z"/>
<path d="M4720 7560 c0 -33 3 -40 20 -40 17 0 20 7 20 40 0 33 -3 40 -20 40
-17 0 -20 -7 -20 -40z"/>
<path d="M5920 7560 c0 -33 3 -40 20 -40 17 0 20 7 20 40 0 33 -3 40 -20 40
-17 0 -20 -7 -20 -40z"/>
<path d="M7520 7540 c0 -17 7 -20 40 -20 l40 0 0 -40 c0 -33 3 -40 20 -40 17
0 20 7 20 40 0 33 -3 40 -20 40 -13 0 -20 7 -20 20 0 17 -7 20 -40 20 -33 0
-40 -3 -40 -20z"/>
<path d="M2360 7320 c0 -193 1 -200 20 -200 17 0 20 -7 20 -40 0 -33 -3 -40
-20 -40 -19 0 -20 -7 -20 -120 0 -113 1 -120 20 -120 20 0 20 -7 20 -435 0
-239 3 -436 8 -436 4 -1 37 -2 75 -3 l67 -2 2 156 c1 85 3 138 5 118 l4 -38
60 0 59 0 0 39 c0 22 5 43 10 46 6 3 10 22 10 41 0 31 3 34 29 34 28 0 29 2
33 58 2 31 1 68 -3 82 -4 14 -8 19 -8 12 -2 -26 -31 16 -31 44 0 15 3 24 7 21
14 -15 33 18 33 59 0 38 3 44 20 44 19 0 20 -4 14 -36 -4 -25 -3 -39 6 -44 18
-11 3 -30 -23 -31 -12 0 -17 -3 -12 -5 6 -2 9 -21 7 -42 -3 -30 0 -39 12 -39
9 0 16 5 16 11 0 6 4 4 10 -4 6 -10 9 -5 8 18 -1 18 2 35 5 39 4 3 7 -3 7 -15
0 -12 4 -22 8 -22 5 0 4 23 -2 50 -11 56 0 129 30 196 10 21 20 44 22 49 3 6
-5 1 -17 -9 -11 -11 -21 -25 -21 -33 0 -7 -7 -13 -15 -13 -16 0 -21 -16 -6
-22 5 -1 6 -18 4 -36 -5 -30 -7 -31 -19 -15 -7 10 -13 25 -13 33 0 10 3 8 9
-5 8 -19 9 -19 9 2 1 12 -4 25 -9 28 -11 7 -3 53 13 73 8 10 7 16 -4 24 -11 8
-10 9 4 4 10 -3 24 -6 30 -6 6 0 1 -9 -11 -20 -23 -21 -30 -50 -12 -50 6 0 10
6 10 14 0 17 39 48 51 40 4 -2 14 4 21 14 7 10 38 35 68 55 53 36 61 48 17 26
-22 -10 -22 -10 1 10 13 11 22 31 22 48 0 28 1 29 53 27 68 -2 69 -2 62 -14
-4 -6 7 -10 27 -10 22 0 29 -3 20 -9 -17 -10 17 -21 69 -21 30 0 42 -6 64 -35
40 -53 65 -74 120 -102 103 -53 226 -24 316 75 24 26 50 50 59 54 10 4 11 7 2
7 -32 2 3 21 36 20 21 -1 28 -3 17 -6 -52 -13 -24 -18 83 -16 139 2 148 3 102
13 l-35 8 35 -1 c27 -2 34 -6 32 -19 -3 -22 27 -28 56 -10 12 8 22 10 22 4 0
-5 -8 -13 -17 -17 -17 -6 -17 -7 -1 -16 10 -5 20 -10 23 -9 3 0 29 -27 60 -59
69 -76 87 -131 83 -264 -1 -53 -6 -93 -10 -91 -11 7 -10 -8 1 -25 6 -9 6 -22
0 -33 -6 -12 -6 -18 0 -18 5 0 12 -8 14 -17 2 -10 3 -5 1 10 -2 15 0 26 4 23
5 -3 7 30 4 74 -4 76 -4 79 17 73 18 -5 21 -13 21 -64 0 -52 2 -59 20 -59 17
0 20 -7 20 -40 0 -33 3 -40 20 -40 17 0 20 7 20 40 0 33 -3 40 -20 40 -17 0
-20 7 -20 40 0 33 3 40 20 40 18 0 20 7 20 80 0 80 0 80 -26 80 -27 0 -27 0
-21 -60 6 -55 5 -60 -12 -60 -17 0 -19 7 -18 58 4 134 -3 222 -17 222 -16 0
-24 39 -34 155 l-7 80 -60 0 c-33 0 -66 -4 -72 -8 -8 -5 -13 -4 -13 2 0 14
-57 14 -65 1 -8 -14 -55 -13 -55 1 0 6 10 9 23 7 20 -4 23 -1 19 19 -4 20 -10
23 -48 23 -24 0 -44 5 -44 10 0 6 -7 10 -15 10 -8 0 -15 -4 -15 -10 0 -5 -9
-10 -20 -10 -28 0 -65 -39 -51 -53 8 -8 6 -16 -5 -28 -23 -25 -12 -45 28 -53
25 -5 29 -9 18 -16 -10 -6 -3 -10 25 -13 22 -2 18 -2 -10 0 -27 2 -66 7 -86
10 l-37 5 2 98 c0 54 4 93 8 86 4 -6 8 -6 8 -1 0 14 -20 43 -20 30 -1 -5 -12
13 -27 40 -14 28 -32 58 -41 68 -14 16 -14 17 0 12 9 -4 19 -2 23 4 3 7 0 8
-9 5 -10 -4 -16 -1 -16 7 0 12 -2 12 -9 0 -7 -11 -14 -10 -38 7 -69 49 -204
54 -298 11 -27 -12 -54 -21 -60 -20 -5 2 -7 -1 -3 -5 4 -4 -10 -26 -31 -50
-54 -58 -73 -122 -60 -209 5 -37 14 -75 19 -86 10 -17 7 -19 -32 -18 -30 2
-35 3 -15 6 16 3 27 11 27 20 0 9 -3 13 -7 10 -3 -4 -12 -2 -19 4 -8 7 -14 7
-19 -1 -8 -13 -45 -13 -45 1 0 6 9 8 20 4 13 -4 20 -2 18 5 -2 7 5 14 15 15
27 5 29 9 21 51 l-7 39 -12 -29 c-11 -26 -12 -27 -18 -7 -3 13 -1 19 6 14 7
-4 8 2 3 18 -17 55 -19 72 -7 65 6 -4 11 -16 11 -27 0 -10 5 -19 11 -19 12 0
3 36 -17 65 -8 11 -14 26 -13 35 0 10 2 11 6 3 3 -9 10 -10 23 -3 11 6 25 9
32 8 9 -2 12 6 10 22 -5 33 -7 34 -31 21 -12 -7 -18 -17 -15 -26 5 -11 2 -13
-10 -9 -13 5 -16 22 -16 83 l0 77 -67 -2 c-38 -1 -71 -2 -75 -3 -5 0 -8 -35
-8 -76 0 -42 -4 -76 -10 -76 -5 -1 -37 -3 -70 -4 -33 -1 -64 -3 -70 -4 -5 0
-10 -17 -10 -36 0 -34 -1 -35 -40 -35 l-40 0 0 40 c0 33 -3 40 -20 40 -17 0
-20 7 -20 40 0 33 -3 40 -20 40 -19 0 -20 7 -20 120 l0 120 -40 0 -40 0 0
-120 0 -120 -40 0 -40 0 0 -80 0 -80 -80 0 -80 0 0 200 c0 193 -1 200 -20 200
-19 0 -20 -7 -20 -200z m760 -200 c0 -47 -4 -80 -10 -80 -6 0 -10 33 -10 80 0
47 4 80 10 80 6 0 10 -33 10 -80z m-56 -87 c9 -9 14 -10 57 -12 50 -2 22 -21
-32 -21 -42 0 -49 3 -49 20 0 20 11 26 24 13z m1065 -77 c-12 -10 -59 -15 -59
-6 0 5 14 10 32 10 17 0 29 -2 27 -4z m111 -35 c0 -44 -8 -55 -30 -40 -10 6
-11 9 -2 9 7 0 12 14 12 35 0 19 5 35 10 35 6 0 10 -18 10 -39z m-1307 -53
c-13 -6 -23 -15 -23 -20 0 -11 17 -10 25 2 3 6 14 10 23 9 15 0 14 -2 -2 -12
-11 -7 -30 -23 -43 -36 -13 -13 -23 -19 -23 -13 0 6 5 14 10 17 6 4 8 15 5 25
-6 18 17 40 40 39 6 0 0 -5 -12 -11z m1252 3 c-5 -10 32 -9 50 0 6 3 19 5 30
5 17 -1 20 -8 20 -41 0 -27 -4 -39 -13 -37 -9 2 -9 -5 3 -28 19 -37 27 -38 23
-4 -2 15 3 29 10 31 6 3 12 0 12 -7 0 -6 -4 -9 -9 -6 -5 3 -8 -10 -6 -29 4
-44 -7 -52 -23 -15 -7 16 -27 42 -43 58 -22 21 -27 32 -18 37 7 5 10 4 5 -3
-3 -6 -2 -13 4 -17 6 -3 9 4 8 17 -1 15 -9 25 -20 25 -10 1 -16 -2 -13 -7 3
-5 0 -12 -6 -16 -8 -4 -9 -3 -5 4 4 7 -4 14 -21 18 -25 7 -25 8 -8 15 27 10
27 10 20 0z m-1625 -111 l0 -40 -40 0 -40 0 0 40 0 40 40 0 40 0 0 -40z m1790
-160 c0 -22 -4 -40 -10 -40 -5 0 -10 18 -10 40 0 22 5 40 10 40 6 0 10 -18 10
-40z m-1850 -160 c0 -22 -4 -40 -10 -40 -5 0 -10 18 -10 40 0 22 5 40 10 40 6
0 10 -18 10 -40z"/>
<path d="M5360 7480 l0 -40 40 0 c33 0 40 -3 40 -20 0 -17 7 -20 40 -20 33 0
40 3 40 20 0 17 7 20 40 20 l40 0 0 40 0 40 -120 0 -120 0 0 -40z"/>
<path d="M7862 7470 c0 -19 2 -27 5 -17 2 9 2 25 0 35 -3 9 -5 1 -5 -18z"/>
<path d="M3920 7420 c0 -17 7 -20 40 -20 33 0 40 3 40 20 0 17 -7 20 -40 20
-33 0 -40 -3 -40 -20z"/>
<path d="M3390 7349 c-7 -12 -20 -19 -33 -18 -12 1 -33 -3 -47 -8 -21 -9 -27
-7 -36 9 -10 19 -12 19 -27 3 -10 -9 -17 -13 -17 -9 0 3 -7 1 -15 -6 -8 -7
-15 -17 -15 -23 0 -6 7 -2 15 9 12 16 14 16 15 3 0 -9 15 -32 33 -50 18 -19
29 -30 25 -24 -11 13 -10 27 2 20 6 -4 7 1 3 11 -5 14 -3 16 11 11 14 -5 17
-3 12 8 -4 11 2 15 25 15 19 0 28 4 23 11 -4 8 1 9 17 4 13 -3 19 -3 13 2 -8
5 -5 14 9 28 20 20 20 20 15 -2 -4 -15 -2 -20 8 -16 8 3 11 9 8 14 -5 9 9 13
35 10 7 -2 10 2 6 8 -12 20 -73 13 -85 -10z"/>
<path d="M6203 7362 l-83 -3 0 -38 c0 -33 -3 -39 -25 -43 -23 -5 -25 -3 -25
36 0 41 -1 42 -35 42 -34 0 -35 -2 -35 -38 0 -38 0 -38 -40 -38 l-40 0 0 -40
0 -40 40 0 c22 0 40 -4 40 -10 0 -5 -18 -10 -40 -10 -22 0 -40 -4 -40 -10 0
-6 -33 -10 -80 -10 -73 0 -80 -2 -80 -20 0 -17 7 -20 40 -20 l40 0 0 -43 0
-42 -107 0 c-60 1 -114 -1 -120 -3 -7 -2 -13 -19 -13 -38 0 -27 -4 -34 -20
-34 -17 0 -20 -7 -20 -43 l0 -43 -47 1 c-27 1 -54 0 -60 -3 -10 -3 -13 -76
-13 -318 0 -202 -4 -314 -10 -315 -5 -1 -37 -3 -70 -4 -33 -1 -64 -3 -70 -4
-6 -1 -10 -58 -10 -151 0 -92 4 -150 10 -151 6 -1 109 -3 230 -4 121 -1 225
-3 230 -4 6 0 10 -19 10 -41 l0 -40 -40 0 c-33 0 -40 -3 -40 -20 0 -17 7 -20
40 -20 22 0 40 -4 40 -10 0 -5 18 -10 40 -10 29 0 40 4 40 15 0 11 11 15 40
15 29 0 40 -4 40 -15 0 -12 15 -15 75 -15 43 0 75 4 75 10 0 6 20 10 45 10 38
0 45 3 45 20 0 19 8 20 198 22 l197 3 5 40 5 40 73 0 72 -1 0 38 0 38 -235 0
c-150 0 -235 4 -235 10 0 6 85 10 235 10 150 0 235 4 235 10 0 6 35 10 85 10
80 0 85 1 85 21 0 18 5 21 29 17 22 -3 28 0 26 11 -1 9 -10 15 -19 13 -9 -2
-16 4 -16 14 0 12 -5 14 -17 9 -10 -4 -31 -9 -48 -11 -33 -4 -25 1 18 10 15 4
27 11 27 17 0 6 -4 8 -9 4 -6 -3 -36 -10 -68 -16 -32 -6 -64 -15 -70 -21 -9
-7 -13 -7 -13 1 0 8 -73 11 -257 9 l-258 -1 240 -8 c132 -4 251 -12 265 -18
23 -10 23 -11 -7 -5 -46 8 -434 8 -463 0 -14 -4 -20 -4 -13 1 6 5 -23 8 -67 8
-43 0 -74 -3 -68 -6 5 -4 3 -9 -7 -12 -11 -5 -14 -3 -9 5 5 8 2 9 -12 3 -10
-4 -40 -9 -66 -10 -65 -3 -53 19 19 34 67 13 79 9 22 -8 -22 -7 -39 -15 -36
-17 2 -3 23 2 47 10 25 9 65 13 98 10 l57 -4 -70 14 c-38 7 -84 11 -101 9 -37
-6 -136 40 -108 51 12 5 3 16 -38 50 -39 32 -56 41 -66 33 -7 -5 -10 -12 -7
-16 3 -3 10 1 14 8 6 10 10 10 16 1 4 -6 4 -14 1 -17 -3 -3 -1 -14 4 -24 7
-12 6 -20 -2 -25 -7 -5 -8 -2 -3 7 7 12 5 12 -6 1 -9 -8 -10 -15 -4 -20 6 -4
10 -19 10 -34 1 -22 -4 -28 -22 -28 -16 0 -21 -4 -17 -15 4 -8 2 -15 -2 -16
-5 0 -19 -2 -31 -5 -20 -3 -23 0 -23 31 0 23 5 35 14 35 16 0 25 19 19 38 -6
17 -23 15 -23 -3 0 -11 -11 -15 -40 -15 -39 0 -40 1 -40 35 0 33 -2 35 -39 41
-35 6 -39 9 -45 43 -9 54 -7 114 4 131 6 10 10 11 10 3 0 -7 9 -13 20 -13 15
0 22 9 27 31 3 19 10 28 19 25 7 -3 13 2 13 12 1 9 3 53 6 97 3 53 2 73 -4 60
-5 -11 -7 -42 -4 -69 5 -42 4 -48 -9 -43 -20 7 -38 -11 -38 -39 0 -12 -6 -26
-13 -32 -22 -19 -38 2 -35 45 3 33 6 39 21 35 17 -4 18 0 14 43 -6 55 -1 75
19 75 10 0 14 12 14 40 0 50 10 51 30 4 l15 -36 16 36 c13 28 14 34 3 25 -12
-10 -13 -6 -8 22 9 44 24 63 38 49 7 -7 4 -14 -10 -24 -10 -8 -16 -17 -13 -21
4 -3 24 15 45 40 21 26 61 60 88 77 28 16 40 26 27 23 -16 -5 -21 -4 -17 4 4
6 14 11 22 11 8 0 26 7 39 16 27 18 131 32 121 16 -3 -5 -31 -12 -61 -14 -31
-3 -61 -11 -68 -18 -10 -10 -8 -11 8 -5 11 5 74 12 140 15 66 4 102 8 80 9
-22 2 -32 5 -22 8 9 2 17 9 17 14 0 10 -11 12 -95 12 -45 0 -49 1 -17 4 23 2
40 8 37 13 -3 5 9 5 27 -1 45 -13 61 -12 52 4 -6 9 -4 9 8 -1 14 -11 16 -10
11 7 -3 11 -8 20 -12 19 -3 0 -10 1 -16 2 -28 6 -61 4 -67 -4 -4 -6 -12 -5
-20 2 -7 6 -39 12 -71 13 -31 1 -54 5 -51 8 3 3 9 6 12 6 4 0 22 6 40 14 24
10 39 11 55 3 30 -15 73 -20 87 -12 17 11 30 86 17 99 -16 16 -17 41 -1 41 8
0 14 5 14 11 0 5 5 7 12 3 7 -5 9 -2 6 7 -4 10 1 15 12 15 14 0 16 -4 9 -17
-12 -23 -12 -52 1 -44 5 3 7 12 4 19 -3 8 0 17 6 21 6 4 8 15 5 24 -3 10 1 24
10 31 10 8 15 9 15 1 0 -6 4 -11 10 -11 5 0 7 7 4 15 -4 9 3 16 20 21 14 3 23
11 19 17 -3 5 -1 7 4 4 13 -8 36 17 26 27 -4 4 0 4 9 1 9 -4 18 0 22 10 5 13
1 15 -17 10 -21 -6 -21 -6 -3 9 23 19 18 20 -19 6 -23 -9 -26 -8 -22 4 8 21 4
21 -90 18z m67 -86 c0 -2 -7 -7 -16 -10 -8 -3 -12 -2 -9 4 6 10 25 14 25 6z
m-162 -134 c10 -9 12 -21 6 -40 -6 -23 -8 -24 -12 -8 -2 11 -10 26 -18 34 -29
29 -6 42 24 14z m-148 -192 l-25 -8 25 -2 c14 -1 19 -4 12 -7 -16 -6 -62 5
-62 15 0 4 17 8 38 9 32 1 33 0 12 -7z m-314 -85 c4 -16 13 -25 26 -25 11 0
28 -10 38 -22 15 -20 16 -25 4 -44 -9 -13 -12 -36 -9 -65 4 -31 2 -40 -5 -29
-5 8 -10 32 -10 53 0 21 -4 36 -9 32 -13 -7 -41 23 -41 45 0 11 -10 20 -25 24
-24 6 -34 34 -18 49 15 16 43 6 49 -18z m120 -9 c8 -3 14 -1 14 4 0 6 7 10 15
10 8 0 15 -5 15 -11 0 -5 5 -7 11 -3 8 4 3 12 -12 20 l-24 13 23 1 c13 0 29
-6 36 -13 11 -11 8 -17 -19 -35 -29 -18 -35 -19 -45 -7 -7 8 -16 12 -21 9 -5
-3 -9 -1 -9 5 0 6 -7 8 -16 4 -14 -5 -15 -3 -3 18 11 19 14 21 17 7 2 -9 10
-19 18 -22z m13 -40 c8 -10 8 -16 -1 -24 -10 -8 -13 -4 -14 14 -2 28 -1 29 15
10z m-152 -76 c-1 -20 -37 -30 -37 -10 0 7 26 28 37 30 1 0 1 -9 0 -20z m269
-535 c19 -17 23 -23 10 -19 -12 5 -17 4 -13 -2 3 -6 -4 -10 -16 -11 -19 -1
-20 0 -5 10 15 10 15 12 -4 29 -12 10 -17 18 -11 18 5 0 23 -11 39 -25z m-10
-112 c-1 -15 -7 -23 -20 -23 -15 0 -16 3 -6 15 6 8 9 18 6 23 -3 5 1 9 8 9 8
0 13 -10 12 -24z m1001 3 c3 -3 0 -6 -8 -6 -8 -1 -39 -2 -69 -4 -34 -2 -46 -1
-30 4 25 7 25 7 -5 12 -16 2 1 3 38 2 37 -1 71 -4 74 -8z m-684 -23 c-7 -2
-21 -2 -30 0 -10 3 -4 5 12 5 17 0 24 -2 18 -5z m353 -149 c-3 -9 -6 -27 -6
-40 l0 -24 -155 0 -155 0 0 30 0 30 80 0 c47 0 80 4 80 10 0 6 34 10 81 10 70
0 80 -2 75 -16z"/>
<path d="M5690 6789 c0 -5 5 -7 10 -4 6 3 10 8 10 11 0 2 -4 4 -10 4 -5 0 -10
-5 -10 -11z"/>
<path d="M2880 7320 c0 -33 3 -40 20 -40 17 0 20 7 20 40 0 33 -3 40 -20 40
-17 0 -20 -7 -20 -40z"/>
<path d="M3288 7353 c7 -3 16 -2 19 1 4 3 -2 6 -13 5 -11 0 -14 -3 -6 -6z"/>
<path d="M3816 7345 c4 -8 10 -15 15 -15 5 0 9 7 9 15 0 8 -7 15 -15 15 -9 0
-12 -6 -9 -15z"/>
<path d="M6378 7353 c6 -2 18 -2 25 0 6 3 1 5 -13 5 -14 0 -19 -2 -12 -5z"/>
<path d="M6684 7348 c10 -6 22 -6 26 -2 5 5 -3 10 -18 11 -22 1 -24 0 -8 -9z"/>
<path d="M7862 7335 c0 -16 2 -22 5 -12 2 9 2 23 0 30 -3 6 -5 -1 -5 -18z"/>
<path d="M6634 7339 c-3 -6 -1 -16 5 -22 9 -9 11 -8 5 6 -6 16 -4 16 19 6 14
-6 28 -18 31 -25 7 -17 -6 -18 -22 -2 -7 7 -12 8 -12 2 0 -11 42 -35 69 -40
25 -5 37 -24 21 -34 -15 -10 -10 -20 12 -24 7 -1 18 -5 24 -9 7 -4 11 0 9 11
-3 28 -16 52 -26 46 -5 -3 -12 2 -15 10 -3 9 -10 13 -15 10 -5 -3 -14 6 -20
19 -6 13 -23 31 -39 40 -33 20 -37 20 -46 6z m156 -118 c0 -4 -7 -8 -15 -8
-16 0 -20 9 -9 20 8 8 24 -1 24 -12z"/>
<path d="M6455 7330 c-47 -11 -106 -39 -141 -65 -17 -13 -35 -21 -40 -17 -5 4
-6 3 -2 -2 4 -5 -4 -23 -18 -42 -31 -40 -54 -112 -54 -169 0 -80 25 -137 93
-207 53 -56 72 -69 121 -83 106 -31 203 2 302 100 43 43 56 64 61 97 11 63 6
244 -6 232 -7 -7 -41 44 -38 58 2 7 2 10 0 6 -2 -4 -24 8 -48 26 -24 18 -56
36 -71 40 -19 5 -24 10 -15 15 7 4 -7 8 -33 8 -24 1 -53 3 -63 6 -10 3 -31 1
-48 -3z"/>
<path d="M3740 7310 c0 -5 7 -10 16 -10 8 0 12 5 9 10 -3 6 -10 10 -16 10 -5
0 -9 -4 -9 -10z"/>
<path d="M6840 7305 c0 -21 30 -31 41 -14 14 23 11 29 -16 29 -16 0 -25 -6
-25 -15z"/>
<path d="M3200 7260 c0 -11 2 -20 4 -20 2 0 6 9 9 20 3 11 1 20 -4 20 -5 0 -9
-9 -9 -20z"/>
<path d="M3807 7263 c3 -7 6 -13 8 -13 2 0 5 6 8 13 3 8 -1 14 -8 14 -7 0 -11
-6 -8 -14z"/>
<path d="M4560 7260 c0 -17 7 -20 40 -20 33 0 40 3 40 20 0 17 -7 20 -40 20
-33 0 -40 -3 -40 -20z"/>
<path d="M5600 7240 c0 -33 3 -40 20 -40 17 0 20 7 20 40 0 33 -3 40 -20 40
-17 0 -20 -7 -20 -40z"/>
<path d="M6776 7266 c21 -15 30 -14 19 3 -3 6 -14 11 -23 11 -13 0 -13 -2 4
-14z"/>
<path d="M6920 7240 c0 -33 3 -40 20 -40 17 0 20 7 20 40 0 33 -3 40 -20 40
-17 0 -20 -7 -20 -40z"/>
<path d="M7863 7240 c0 -25 2 -35 4 -22 2 12 2 32 0 45 -2 12 -4 2 -4 -23z"/>
<path d="M3776 7237 c3 -10 9 -15 12 -12 3 3 0 11 -7 18 -10 9 -11 8 -5 -6z"/>
<path d="M6860 7210 c0 -5 5 -10 10 -10 6 0 10 5 10 10 0 6 -4 10 -10 10 -5 0
-10 -4 -10 -10z"/>
<path d="M4400 7160 c0 -33 3 -40 20 -40 17 0 20 7 20 40 0 33 -3 40 -20 40
-17 0 -20 -7 -20 -40z"/>
<path d="M4920 7080 c0 -113 1 -120 20 -120 19 0 20 7 20 120 0 113 -1 120
-20 120 -19 0 -20 -7 -20 -120z"/>
<path d="M3210 7151 c0 -5 7 -12 16 -15 14 -5 15 -4 4 9 -14 17 -20 19 -20 6z"/>
<path d="M6160 7150 c0 -5 5 -10 10 -10 6 0 10 5 10 10 0 6 -4 10 -10 10 -5 0
-10 -4 -10 -10z"/>
<path d="M7865 6780 c0 -212 1 -298 2 -192 2 105 2 279 0 385 -1 105 -2 19 -2
-193z"/>
<path d="M7841 7134 c0 -11 3 -14 6 -6 3 7 2 16 -1 19 -3 4 -6 -2 -5 -13z"/>
<path d="M5360 7080 l0 -40 -40 0 -40 0 0 -40 0 -40 40 0 c33 0 40 3 40 20 0
17 7 20 40 20 l40 0 0 60 0 60 -40 0 -40 0 0 -40z"/>
<path d="M6880 7057 c0 -12 -9 -30 -20 -40 -17 -14 -18 -21 -10 -37 6 -11 17
-20 25 -20 8 0 15 -5 15 -11 0 -5 -4 -7 -10 -4 -15 9 -81 -6 -74 -17 3 -5 12
-7 20 -4 7 3 16 0 20 -6 5 -7 -3 -9 -24 -6 -17 2 -29 1 -26 -3 2 -4 41 -8 85
-8 49 0 87 -5 96 -12 12 -10 16 -10 23 2 8 12 12 11 27 -4 17 -17 17 -18 -2
-12 -11 3 -7 -1 10 -9 19 -9 37 -11 52 -5 13 5 24 6 24 4 5 -20 4 -32 -5 -44
-8 -11 -8 -13 2 -7 7 4 12 1 12 -8 0 -17 43 -49 71 -53 13 -2 19 3 19 16 0 27
-17 35 -28 14 -8 -13 -10 -10 -8 13 1 17 9 38 19 48 19 19 23 46 7 46 -6 0
-10 31 -10 73 l0 73 -67 -1 c-56 0 -67 -3 -75 -20 -8 -18 -8 -18 -4 3 3 17 -1
22 -17 22 -38 0 -67 12 -67 26 0 10 -13 14 -40 14 -35 0 -40 -3 -40 -23z m80
-47 c0 -5 -10 -10 -22 -10 -19 0 -20 2 -8 10 19 13 30 13 30 0z m70 1 c0 -5
-11 -8 -25 -8 -13 0 -22 3 -19 8 3 5 14 9 25 9 10 0 19 -4 19 -9z m-7 -69 c-7
-7 -17 -10 -23 -7 -6 4 -25 3 -43 -1 -31 -7 -32 -8 -7 -14 18 -5 11 -7 -22 -6
-27 0 -48 4 -48 7 0 10 27 19 58 20 23 1 22 3 -8 9 -26 5 -17 7 36 6 58 -1 68
-3 57 -14z m141 -67 c-4 -8 -12 -15 -19 -15 -7 0 -15 7 -19 15 -4 11 1 15 19
15 18 0 23 -4 19 -15z"/>
<path d="M6171 7024 c0 -11 3 -14 6 -6 3 7 2 16 -1 19 -3 4 -6 -2 -5 -13z"/>
<path d="M7531 7032 c-12 -4 -15 -141 -3 -143 4 -1 37 -2 75 -3 l67 -2 0 76 0
75 -64 0 c-36 0 -70 -1 -75 -3z"/>
<path d="M3105 6940 c-3 -5 -1 -10 4 -10 6 0 11 5 11 10 0 6 -2 10 -4 10 -3 0
-8 -4 -11 -10z"/>
<path d="M3843 6943 c9 -2 23 -2 30 0 6 3 -1 5 -18 5 -16 0 -22 -2 -12 -5z"/>
<path d="M3034 6929 c-4 -7 0 -17 10 -25 9 -6 13 -14 9 -16 -4 -3 -1 -3 7 0 8
2 32 6 53 9 21 3 40 10 44 16 4 7 -11 8 -43 4 -33 -5 -44 -4 -34 3 9 6 10 10
3 10 -6 0 -18 3 -26 6 -8 3 -18 0 -23 -7z"/>
<path d="M3898 6933 c7 -3 16 -2 19 1 4 3 -2 6 -13 5 -11 0 -14 -3 -6 -6z"/>
<path d="M6190 6930 c0 -5 5 -10 11 -10 5 0 7 5 4 10 -3 6 -8 10 -11 10 -2 0
-4 -4 -4 -10z"/>
<path d="M4880 6900 c0 -17 7 -20 40 -20 33 0 40 3 40 20 0 17 -7 20 -40 20
-33 0 -40 -3 -40 -20z"/>
<path d="M7087 6846 c-11 -8 -14 -17 -8 -20 5 -4 15 3 21 14 13 23 11 24 -13
6z"/>
<path d="M7178 6739 c-3 -8 1 -29 8 -48 18 -43 18 -156 0 -247 -11 -58 -11
-77 0 -100 l12 -29 1 28 c1 15 -4 27 -10 27 -5 0 -7 5 -3 11 4 7 8 28 10 47 2
19 5 36 7 39 2 2 19 -11 38 -28 l34 -32 3 77 c3 68 5 76 22 76 17 0 20 7 20
40 0 36 -3 40 -24 40 -15 0 -26 -7 -29 -17 -4 -17 -5 -17 -6 0 0 9 -5 17 -11
17 -5 0 -10 18 -10 40 0 30 -4 40 -16 40 -9 0 -22 8 -29 17 -10 13 -13 14 -17
2z m49 -146 c-3 -10 -5 -2 -5 17 0 19 2 27 5 18 2 -10 2 -26 0 -35z m-1 -111
c-11 -10 -15 4 -8 28 l7 25 3 -23 c2 -13 1 -26 -2 -30z"/>
<path d="M2220 6711 c0 -6 5 -13 10 -16 6 -3 10 1 10 9 0 9 -4 16 -10 16 -5 0
-10 -4 -10 -9z"/>
<path d="M2290 6640 c0 -72 -2 -80 -19 -80 -17 0 -19 -13 -25 -197 -14 -401
-13 -433 14 -440 16 -4 20 -14 20 -44 0 -32 3 -39 20 -39 13 0 20 -7 20 -20 0
-18 7 -20 80 -20 73 0 80 2 80 20 0 18 -7 20 -80 20 l-80 0 0 43 c0 23 0 221
0 440 0 349 -1 397 -15 397 -12 0 -15 -15 -15 -80z"/>
<path d="M4920 6640 c0 -73 2 -80 20 -80 17 0 20 -7 20 -40 l0 -40 -40 0 -40
0 0 -80 0 -80 40 0 40 0 0 -120 0 -120 100 0 100 0 0 40 c0 33 -3 40 -20 40
-17 0 -20 7 -20 40 0 33 3 40 20 40 17 0 20 7 20 40 0 33 3 40 20 40 17 0 20
7 20 40 l0 40 60 0 60 0 0 40 0 40 -60 0 -60 0 0 120 0 120 -140 0 -140 0 0
-80z m200 -240 l0 -80 -40 0 -40 0 0 80 0 80 40 0 40 0 0 -80z"/>
<path d="M7820 6600 c0 -22 4 -40 9 -40 5 0 11 -6 14 -12 2 -7 3 -4 1 7 -2 11
-4 35 -4 53 0 17 -4 32 -10 32 -5 0 -10 -18 -10 -40z"/>
<path d="M5661 6584 c0 -11 3 -14 6 -6 3 7 2 16 -1 19 -3 4 -6 -2 -5 -13z"/>
<path d="M2221 6449 c0 -63 4 -136 8 -164 4 -27 5 22 3 110 -3 88 -6 162 -8
164 -2 2 -4 -47 -3 -110z"/>
<path d="M7336 6483 c-3 -43 -8 -112 -12 -154 -5 -64 -3 -77 10 -82 13 -5 16
3 16 52 0 32 3 86 6 120 6 50 10 61 25 61 15 0 19 8 19 40 0 38 -2 40 -29 40
l-29 0 -6 -77z"/>
<path d="M5705 6442 c1 -34 6 -66 10 -70 4 -4 5 0 3 8 -3 8 -2 22 2 30 4 8 1
33 -6 55 l-12 40 3 -63z"/>
<path d="M4480 6460 c0 -17 7 -20 40 -20 33 0 40 3 40 20 0 17 -7 20 -40 20
-33 0 -40 -3 -40 -20z"/>
<path d="M5680 6430 c0 -5 5 -10 10 -10 6 0 10 5 10 10 0 6 -4 10 -10 10 -5 0
-10 -4 -10 -10z"/>
<path d="M2836 6415 c4 -8 11 -15 16 -15 6 0 5 6 -2 15 -7 8 -14 15 -16 15 -2
0 -1 -7 2 -15z"/>
<path d="M4281 6394 c0 -11 3 -14 6 -6 3 7 2 16 -1 19 -3 4 -6 -2 -5 -13z"/>
<path d="M5731 6400 c0 -8 6 -24 14 -34 19 -25 19 -9 0 24 -8 14 -14 19 -14
10z"/>
<path d="M2802 6380 c0 -14 2 -19 5 -12 2 6 2 18 0 25 -3 6 -5 1 -5 -13z"/>
<path d="M5681 6384 c0 -11 3 -14 6 -6 3 7 2 16 -1 19 -3 4 -6 -2 -5 -13z"/>
<path d="M7240 6360 c0 -33 3 -40 20 -40 17 0 20 7 20 40 0 33 -3 40 -20 40
-17 0 -20 -7 -20 -40z"/>
<path d="M7157 6350 c3 -11 9 -22 13 -25 5 -3 6 4 3 15 -3 11 -9 22 -13 25 -5
3 -6 -4 -3 -15z"/>
<path d="M4274 6340 c6 -21 5 -22 -4 -7 -11 17 -13 16 -32 -8 -11 -14 -18 -29
-14 -32 9 -9 -24 -42 -37 -38 -7 3 -30 -12 -52 -31 -33 -30 -34 -32 -8 -15 18
12 35 26 39 32 3 5 14 7 24 4 10 -3 22 -1 25 6 6 8 10 7 16 -2 6 -9 7 -1 5 21
-5 39 10 66 28 51 7 -6 17 -6 26 -1 13 8 12 12 -4 27 -18 17 -18 17 -12 -7z"/>
<path d="M2907 6333 c3 -10 23 -35 44 -55 23 -22 33 -39 26 -42 -7 -2 -4 -5 6
-5 25 -1 21 7 -23 50 -22 22 -40 43 -40 48 0 6 -4 13 -10 16 -6 4 -7 -1 -3
-12z"/>
<path d="M5766 6334 c-4 -9 -2 -13 5 -8 7 4 9 0 5 -14 -4 -11 -2 -23 3 -27 7
-3 8 0 5 9 -3 9 -2 16 4 16 14 0 22 -25 12 -40 -7 -11 -11 -11 -26 1 -16 13
-16 12 -3 -8 l14 -23 21 23 c12 12 18 24 15 27 -4 3 -16 17 -28 32 -17 23 -22
25 -27 12z"/>
<path d="M7130 6341 c0 -5 5 -13 10 -16 6 -3 10 -2 10 4 0 5 -4 13 -10 16 -5
3 -10 2 -10 -4z"/>
<path d="M7100 6305 c-7 -9 -8 -15 -2 -15 5 0 12 7 16 15 3 8 4 15 2 15 -2 0
-9 -7 -16 -15z"/>
<path d="M2900 6285 c13 -14 28 -25 33 -25 6 0 0 11 -13 25 -13 14 -28 25 -33
25 -6 0 0 -11 13 -25z"/>
<path d="M7135 6300 c-3 -5 -1 -10 4 -10 6 0 11 5 11 10 0 6 -2 10 -4 10 -3 0
-8 -4 -11 -10z"/>
<path d="M2880 6271 c0 -6 6 -14 13 -18 8 -4 16 -16 20 -25 9 -26 47 -23 47 3
0 12 -4 17 -11 13 -6 -3 -24 3 -40 15 -16 12 -29 17 -29 12z"/>
<path d="M4640 6260 c0 -13 -7 -20 -20 -20 -17 0 -20 -7 -20 -40 0 -33 3 -40
20 -40 17 0 20 7 20 40 l0 40 40 0 c33 0 40 3 40 20 0 17 -7 20 -40 20 -33 0
-40 -3 -40 -20z"/>
<path d="M7094 6259 c-19 -22 -19 -22 4 -8 12 8 22 17 22 21 0 12 -6 9 -26
-13z"/>
<path d="M4300 6250 c0 -11 2 -20 5 -20 2 0 9 9 15 20 9 16 8 20 -5 20 -8 0
-15 -9 -15 -20z"/>
<path d="M7050 6255 c-8 -9 -8 -15 -2 -15 12 0 26 19 19 26 -2 2 -10 -2 -17
-11z"/>
<path d="M5680 6248 c0 -4 7 -8 15 -8 8 0 15 4 15 8 0 5 -7 9 -15 9 -8 0 -15
-4 -15 -9z"/>
<path d="M7180 6250 c0 -5 7 -10 15 -10 8 0 15 5 15 10 0 6 -7 10 -15 10 -8 0
-15 -4 -15 -10z"/>
<path d="M2730 6232 c-12 -4 -14 -301 -2 -303 4 -1 73 -2 154 -3 81 -1 149 -4
153 -7 3 -4 6 -32 6 -63 l1 -56 79 0 c46 0 79 -4 79 -10 0 -6 73 -10 200 -10
171 0 200 2 200 15 0 11 11 15 40 15 29 0 40 -4 40 -15 0 -11 11 -15 40 -15
29 0 40 4 40 15 0 10 11 15 35 15 l35 0 0 49 c0 27 6 53 13 58 6 5 42 9 80 8
46 0 67 3 67 11 0 8 -27 15 -75 19 -64 6 -75 10 -75 26 0 17 -8 19 -80 19 -47
0 -80 4 -80 10 0 6 31 10 74 10 41 0 78 5 81 10 3 6 24 10 46 10 32 0 39 4 39
19 0 11 6 22 13 24 9 4 9 6 -1 6 -21 1 10 29 42 37 14 3 26 10 26 15 0 6 -7 6
-17 1 -35 -18 -122 -23 -388 -23 -148 0 -292 -4 -320 -8 l-50 -8 49 -2 c27 0
47 -4 43 -7 -10 -11 -85 -6 -108 6 -15 8 -19 9 -15 1 9 -14 -14 -14 -34 -1
-13 8 -13 10 2 10 9 0 20 5 24 12 7 11 -4 10 -51 -7 -17 -6 -17 -4 4 14 26 24
23 26 -14 9 -35 -16 -27 -29 29 -48 l49 -16 -71 0 c-63 0 -69 2 -61 18 13 24
11 28 -7 21 -14 -5 -15 -3 -4 17 10 18 10 21 -2 14 -10 -6 -11 -5 -1 7 10 12
10 18 1 27 -8 8 -8 12 -1 12 6 0 16 -6 22 -14 10 -12 51 -29 51 -21 0 10 -73
43 -85 39 -9 -4 -15 0 -15 10 0 9 -5 16 -12 16 -6 0 -9 -3 -5 -6 3 -3 -2 -14
-11 -24 -12 -14 -19 -17 -29 -8 -9 7 -13 7 -13 0 0 -6 17 -16 38 -23 44 -14
50 -21 44 -57 -3 -22 -9 -28 -30 -30 -19 -1 -23 1 -13 7 11 7 10 11 -7 20 -33
17 -61 14 -55 -7 3 -14 -2 -18 -29 -17 -39 0 -54 33 -19 42 26 7 26 14 0 37
-16 14 -20 25 -16 50 l5 32 -69 0 c-38 -1 -73 -2 -79 -4z m1190 -122 c0 -5
-12 -10 -27 -9 -25 0 -26 1 -8 9 27 12 35 12 35 0z m-550 -9 c0 -5 -9 -7 -20
-4 -11 3 -20 7 -20 9 0 2 9 4 20 4 11 0 20 -4 20 -9z m480 -13 c12 -8 11 -8
-3 -4 -10 3 -52 6 -93 6 -48 0 -74 4 -74 11 0 14 147 3 170 -13z m63 -5 c-7
-2 -19 -2 -25 0 -7 3 -2 5 12 5 14 0 19 -2 13 -5z m-553 -73 c0 -6 -33 -10
-80 -10 -47 0 -80 -4 -80 -10 0 -5 -18 -10 -40 -10 -22 0 -40 5 -40 10 0 6 18
10 40 10 22 0 40 5 40 10 0 6 33 10 80 10 47 0 80 -4 80 -10z m480 -80 c0 -6
-32 -10 -75 -10 -43 0 -75 4 -75 10 0 6 32 10 75 10 43 0 75 -4 75 -10z"/>
<path d="M4320 6200 c0 -33 3 -40 20 -40 17 0 20 7 20 40 0 33 -3 40 -20 40
-17 0 -20 -7 -20 -40z"/>
<path d="M7531 6232 c-7 -2 -11 -35 -11 -78 0 -42 -4 -75 -10 -75 -5 -1 -37
-3 -70 -4 -33 -1 -64 -3 -70 -4 -5 0 -10 -17 -10 -36 0 -34 -1 -35 -40 -35
-33 0 -40 3 -40 20 0 18 -7 20 -80 20 -73 0 -80 -2 -80 -20 0 -18 7 -20 80
-20 l80 0 0 -40 0 -40 40 0 c33 0 40 -3 40 -20 0 -18 7 -20 80 -20 73 0 80 -2
80 -20 0 -19 -7 -20 -120 -20 -113 0 -120 -1 -120 -20 0 -19 7 -20 200 -20
l200 0 0 -30 c0 -25 4 -30 23 -30 30 0 40 -10 26 -26 -23 -28 -4 -38 75 -39
l77 0 -7 100 c-8 119 -23 161 -22 60 1 -39 5 -72 9 -75 5 -3 5 -24 2 -45 -7
-35 -9 -28 -19 58 -13 107 -35 147 -81 147 -22 0 -23 3 -23 86 0 83 -1 87 -31
115 -23 21 -33 41 -36 72 l-5 42 -63 0 c-35 0 -69 -1 -74 -3z"/>
<path d="M7864 6080 c0 -91 2 -128 3 -82 2 45 2 119 0 165 -1 45 -3 8 -3 -83z"/>
<path d="M5760 6214 c0 -8 5 -12 10 -9 6 4 8 11 5 16 -9 14 -15 11 -15 -7z"/>
<path d="M6977 6201 c-36 -22 -44 -30 -32 -35 24 -9 32 -7 15 4 -11 7 -12 10
-2 10 8 0 25 9 39 20 14 11 29 17 34 14 5 -3 9 0 9 5 0 16 -10 13 -63 -18z"/>
<path d="M4145 6191 c6 -11 4 -13 -8 -8 -23 9 -21 0 2 -13 15 -7 19 -7 17 5
-1 8 -6 18 -11 22 -4 5 -5 2 0 -6z"/>
<path d="M4083 6175 c0 -7 6 -11 14 -8 7 3 13 6 13 8 0 2 -6 5 -13 8 -8 3 -14
-1 -14 -8z"/>
<path d="M7008 6165 c13 -9 26 -14 29 -11 8 8 3 12 -27 21 l-25 7 23 -17z"/>
<path d="M6000 6140 c0 -5 5 -10 11 -10 5 0 7 5 4 10 -3 6 -8 10 -11 10 -2 0
-4 -4 -4 -10z"/>
<path d="M4273 6104 c-25 -25 -33 -42 -33 -69 0 -34 -1 -35 -40 -35 -39 0 -40
-1 -40 -35 0 -19 3 -36 8 -36 4 -1 109 -2 235 -3 l227 -1 0 75 0 75 -152 0
-151 0 -11 31 -11 31 -32 -33z"/>
<path d="M6976 6133 c-11 -11 -6 -23 9 -23 8 0 15 4 15 9 0 13 -16 22 -24 14z"/>
<path d="M7162 6114 l-22 -24 25 -6 c33 -8 39 -1 29 29 l-9 24 -23 -23z"/>
<path d="M6940 6120 c0 -5 5 -10 10 -10 6 0 10 5 10 10 0 6 -4 10 -10 10 -5 0
-10 -4 -10 -10z"/>
<path d="M3968 6093 c6 -2 18 -2 25 0 6 3 1 5 -13 5 -14 0 -19 -2 -12 -5z"/>
<path d="M7020 6084 c0 -8 5 -12 10 -9 6 3 10 10 10 16 0 5 -4 9 -10 9 -5 0
-10 -7 -10 -16z"/>
<path d="M4880 5980 c0 -17 7 -20 40 -20 33 0 40 3 40 20 0 17 -7 20 -40 20
-33 0 -40 -3 -40 -20z"/>
<path d="M2800 5820 c0 -18 7 -20 80 -20 73 0 80 2 80 20 0 18 -7 20 -80 20
-73 0 -80 -2 -80 -20z"/>
<path d="M3840 5820 c0 -17 7 -20 40 -20 33 0 40 3 40 20 0 17 -7 20 -40 20
-33 0 -40 -3 -40 -20z"/>
<path d="M5360 5820 c0 -17 7 -20 40 -20 33 0 40 3 40 20 0 17 -7 20 -40 20
-33 0 -40 -3 -40 -20z"/>
<path d="M2428 5753 c12 -2 30 -2 40 0 9 3 -1 5 -23 4 -22 0 -30 -2 -17 -4z"/>
<path d="M5198 5753 c45 -2 119 -2 165 0 45 1 8 3 -83 3 -91 0 -128 -2 -82 -3z"/>
<path d="M2230 5721 c0 -25 6 -27 13 -6 4 8 2 17 -3 20 -6 4 -10 -3 -10 -14z"/>
<path d="M3608 5233 c7 -3 16 -2 19 1 4 3 -2 6 -13 5 -11 0 -14 -3 -6 -6z"/>
<path d="M4175 5230 c-4 -7 8 -10 34 -9 22 2 38 6 35 11 -7 12 -62 10 -69 -2z"/>
<path d="M4283 5223 c15 -2 37 -2 50 0 12 2 0 4 -28 4 -27 0 -38 -2 -22 -4z"/>
<path d="M3308 5213 c18 -2 45 -2 60 0 15 2 0 4 -33 4 -33 0 -45 -2 -27 -4z"/>
<path d="M3402 5113 c2 -10 9 -17 15 -16 7 2 11 -6 10 -17 -1 -14 -9 -20 -24
-20 -12 0 -24 3 -26 8 -3 4 -44 6 -91 4 -66 -3 -86 -7 -86 -18 0 -10 12 -14
40 -14 22 0 40 -4 40 -10 0 -6 -33 -10 -80 -10 -49 0 -80 -4 -80 -10 0 -6 -11
-22 -25 -36 -14 -14 -25 -20 -25 -14 0 7 -6 5 -15 -4 -17 -17 -22 -156 -5
-156 15 0 12 -70 -4 -86 -16 -16 -86 -19 -86 -4 0 6 18 10 40 10 40 0 40 0 40
38 l0 38 -77 0 -78 -1 -3 43 c-3 42 -3 42 -43 42 -39 0 -39 0 -39 40 l0 40 40
0 c33 0 40 3 40 20 0 17 -7 20 -40 20 -33 0 -40 -3 -40 -20 0 -19 -7 -20 -119
-20 l-120 0 -3 36 -3 36 -39 -36 -40 -36 42 0 42 0 0 -40 0 -40 -60 0 -60 0 0
-45 c0 -30 -4 -44 -12 -42 -7 1 -14 -8 -16 -21 -2 -16 -8 -22 -19 -18 -8 3
-17 6 -19 6 -2 0 -4 11 -4 25 0 14 5 25 10 25 6 0 10 32 10 75 l0 75 -35 0
-35 0 0 -74 c0 -41 -3 -81 -6 -89 -3 -8 4 -24 17 -36 20 -19 24 -41 18 -95 -2
-16 -4 -16 -20 5 -10 13 -19 31 -19 39 -1 8 -7 3 -16 -13 -13 -25 -13 -30 1
-50 16 -22 17 -21 11 13 -5 33 -5 34 5 8 6 -16 18 -28 26 -28 12 0 14 -7 10
-30 -4 -16 -2 -32 2 -35 11 -6 22 34 16 60 -6 24 19 60 34 50 6 -3 11 -33 11
-67 0 -50 -2 -59 -14 -49 -10 9 -15 8 -20 -4 -3 -8 -4 -21 -2 -27 12 -37 15
-78 6 -73 -6 3 -10 2 -10 -4 0 -5 -2 -16 -5 -23 -4 -9 2 -14 14 -14 11 0 17 4
15 8 -3 4 -2 19 2 33 5 21 11 25 43 24 20 -1 28 -3 19 -6 -13 -3 -18 -15 -18
-39 0 -39 30 -116 37 -96 6 14 43 16 43 2 0 -5 25 -10 55 -10 42 0 60 -5 75
-20 21 -21 26 -40 11 -40 -5 0 -11 9 -14 20 -3 12 -14 20 -27 20 -11 0 -18 -4
-15 -10 3 -5 12 -10 20 -10 7 0 17 -9 20 -20 7 -21 25 -28 25 -10 0 6 8 10 18
10 15 0 15 2 2 11 -12 8 -10 9 7 4 18 -5 22 -3 17 9 -4 11 0 16 12 16 16 0 17
-2 4 -11 -13 -9 -13 -10 0 -6 9 2 15 15 15 33 0 16 5 37 11 48 14 23 50 17 46
-8 -2 -12 1 -15 8 -11 9 6 9 2 1 -12 -6 -11 -8 -22 -6 -25 8 -8 -139 -73 -165
-73 -17 0 -25 -5 -24 -17 1 -15 -18 -29 -58 -42 -10 -3 -18 -10 -18 -16 0 -6
22 1 50 16 27 15 47 31 44 35 -3 5 1 7 8 4 7 -3 69 26 138 64 108 60 124 73
126 95 0 15 -6 31 -15 36 -27 15 -4 23 30 11 25 -9 34 -8 41 1 6 10 8 10 8 0
0 -9 5 -10 19 -2 11 5 23 10 28 10 13 -1 -26 -21 -49 -25 -21 -4 -61 -35 -54
-42 7 -7 209 104 449 248 l97 58 34 -68 c109 -221 324 -419 538 -496 198 -70
166 -68 968 -72 503 -3 755 -1 824 7 251 29 486 140 664 314 96 93 151 172
221 312 77 156 86 187 72 234 -35 118 -177 174 -291 115 -39 -20 -84 -82 -109
-150 -51 -136 -104 -220 -174 -278 -73 -60 -157 -108 -236 -137 -151 -55 -159
-55 -911 -55 -687 0 -696 0 -778 22 -118 32 -233 95 -315 172 -58 55 -76 81
-118 168 -36 75 -48 110 -43 128 3 14 11 25 16 25 6 0 8 7 4 15 -3 8 -1 15 4
15 6 0 10 5 10 10 0 6 -7 10 -15 10 -10 0 -15 -10 -15 -27 -1 -27 -1 -27 -15
-9 -8 11 -15 15 -15 9 0 -7 5 -15 10 -18 6 -3 10 -14 10 -23 0 -9 -13 4 -28
29 -16 24 -36 50 -45 58 -9 7 -14 18 -10 24 3 5 2 7 -4 4 -6 -4 -27 3 -49 13
-97 50 -218 -5 -254 -115 -13 -40 -2 -127 25 -191 13 -31 4 -67 -12 -51 -4 5
-1 12 7 17 10 7 11 10 3 10 -7 0 -13 12 -14 28 l-1 27 -7 -25 -7 -25 -7 28
c-4 15 -5 32 -2 37 3 6 1 18 -4 27 -11 20 -14 12 -13 -37 l1 -25 -11 28 c-7
15 -15 27 -20 27 -4 0 -8 19 -8 42 0 23 3 38 8 34 7 -8 8 -10 12 -48 1 -13 6
-4 10 21 4 30 2 57 -9 87 -15 42 -15 44 6 65 l22 22 7 -39 c6 -32 8 -35 15
-19 4 11 5 30 2 41 -2 12 1 25 7 29 9 5 10 1 5 -15 -6 -20 -5 -21 15 -10 11 6
26 22 32 36 6 13 18 24 25 24 8 0 11 4 8 10 -3 5 -19 7 -35 3 -27 -5 -30 -3
-30 21 0 20 -5 26 -21 26 -14 0 -19 -5 -17 -17z m51 -68 c4 -8 2 -17 -3 -20
-6 -4 -10 3 -10 14 0 25 6 27 13 6z m-293 -93 c0 -4 -5 -13 -12 -20 -18 -18
-28 -15 -28 8 0 13 7 20 20 20 11 0 20 -4 20 -8z m-280 -192 c0 -22 -4 -40 -9
-40 -5 0 -11 18 -13 40 -2 28 0 40 9 40 8 0 13 -14 13 -40z m528 -50 c13 0 14
-2 3 -9 -10 -6 -10 -10 -1 -16 16 -10 -19 -35 -39 -27 -9 3 -12 1 -8 -6 9 -13
-51 -45 -66 -35 -5 3 -7 1 -3 -5 3 -6 2 -13 -4 -17 -9 -5 -14 7 -11 27 0 4 -6
5 -14 2 -17 -7 -20 -24 -4 -24 6 0 5 -6 -3 -13 -25 -25 -58 -38 -81 -32 -15 4
-18 3 -9 -3 10 -7 4 -15 -22 -35 -22 -17 -37 -23 -41 -16 -9 13 -2 20 21 23 9
2 19 10 21 19 2 9 5 25 6 34 4 21 57 52 83 50 11 -1 18 4 17 11 -4 16 19 16
35 0 10 -10 15 -10 21 2 16 27 76 87 79 78 2 -4 11 -8 20 -8z m-303 -86 c-9
-7 -25 -10 -35 -7 -29 8 -17 18 19 18 26 0 29 -2 16 -11z m-33 -79 c9 4 19 2
23 -4 3 -6 -1 -11 -9 -11 -9 0 -16 -4 -16 -10 0 -5 5 -10 10 -10 21 0 9 -27
-17 -40 -33 -15 -85 -21 -77 -9 7 12 -3 11 -25 -1 -13 -6 -24 -5 -37 5 -11 8
-14 15 -7 15 6 0 20 3 30 6 15 5 15 4 3 -5 -13 -9 -13 -11 3 -11 9 0 17 5 17
11 0 8 4 8 15 -1 12 -10 18 -9 31 4 13 13 19 14 30 5 8 -7 18 -9 22 -5 4 4 0
13 -8 19 -8 7 -16 23 -18 37 -1 16 1 21 6 12 5 -7 16 -10 24 -7z m-332 -75 c0
-5 -4 -10 -10 -10 -5 0 -10 5 -10 10 0 6 5 10 10 10 6 0 10 -4 10 -10z m111
-11 c15 -17 16 -24 6 -40 -13 -21 -35 -32 -48 -23 -13 8 -11 53 4 69 16 19 17
19 38 -6z m9 -73 c0 -2 -7 -7 -16 -10 -8 -3 -12 -2 -9 4 6 10 25 14 25 6z m30
-3 c0 -5 -14 -16 -30 -25 -38 -21 -40 -9 -2 14 33 20 32 20 32 11z"/>
<path d="M3376 4695 c-3 -8 -1 -15 4 -15 6 0 10 7 10 15 0 8 -2 15 -4 15 -2 0
-6 -7 -10 -15z"/>
<path d="M3209 4613 c0 -5 -2 -18 -3 -30 -2 -14 2 -19 11 -16 11 4 11 8 1 21
-11 13 -10 15 4 9 12 -4 15 -2 11 9 -5 15 -22 20 -24 7z"/>
<path d="M3760 5110 c0 -5 5 -10 10 -10 6 0 10 5 10 10 0 6 -4 10 -10 10 -5 0
-10 -4 -10 -10z"/>
<path d="M3578 5103 c-16 -2 -28 -8 -28 -12 0 -5 12 -6 28 -4 16 3 22 1 15 -4
-7 -5 7 -9 34 -10 35 -1 43 2 39 13 -3 8 0 14 6 14 6 0 8 3 4 7 -4 5 -13 0
-20 -9 -13 -17 -61 -14 -50 3 3 5 4 8 2 8 -2 -1 -15 -4 -30 -6z"/>
<path d="M3690 5070 c0 -5 7 -10 16 -10 8 0 12 5 9 10 -3 6 -10 10 -16 10 -5
0 -9 -4 -9 -10z"/>
<path d="M3731 5024 c0 -11 3 -14 6 -6 3 7 2 16 -1 19 -3 4 -6 -2 -5 -13z"/>
<path d="M3940 4990 c0 -5 5 -10 10 -10 6 0 10 5 10 10 0 6 -4 10 -10 10 -5 0
-10 -4 -10 -10z"/>
<path d="M3380 4973 c0 -16 -2 -16 -11 -3 -9 12 -10 12 -5 -3 3 -10 6 -26 6
-34 0 -9 3 -13 7 -10 8 8 15 67 8 67 -3 0 -5 -8 -5 -17z"/>
<path d="M2222 4940 c0 -14 2 -19 5 -12 2 6 2 18 0 25 -3 6 -5 1 -5 -13z"/>
<path d="M3382 4850 c0 -14 2 -19 5 -12 2 6 2 18 0 25 -3 6 -5 1 -5 -13z"/>
<path d="M2277 4782 c3 -12 9 -25 14 -28 14 -8 11 10 -6 32 -13 18 -14 18 -8
-4z"/>
<path d="M2260 4735 c0 -8 5 -15 10 -15 6 0 10 7 10 15 0 8 -4 15 -10 15 -5 0
-10 -7 -10 -15z"/>
<path d="M2280 4622 c0 -12 39 -60 40 -49 0 5 -9 20 -20 34 -11 14 -20 21 -20
15z"/>
<path d="M2337 4463 c3 -7 9 -10 14 -7 14 8 11 21 -5 21 -8 0 -12 -6 -9 -14z"/>
<path d="M2386 4357 c14 -26 30 -45 35 -41 14 8 11 28 -7 50 -8 10 -13 13 -9
7 10 -21 -5 -15 -26 10 -13 15 -11 7 7 -26z"/>
<path d="M2455 4313 c-11 -3 -24 -10 -30 -15 -7 -8 -6 -8 4 -3 11 6 13 4 7
-11 -6 -15 -3 -14 18 5 22 21 33 34 24 30 -2 -1 -12 -3 -23 -6z"/>
<path d="M2560 4281 c0 -12 6 -21 16 -21 9 0 14 7 12 17 -5 25 -28 28 -28 4z"/>
<path d="M2459 4273 c-13 -16 -12 -17 4 -4 9 7 17 15 17 17 0 8 -8 3 -21 -13z"/>
<path d="M2460 4241 c0 -6 4 -13 10 -16 6 -3 7 1 4 9 -7 18 -14 21 -14 7z"/>
<path d="M2496 4222 c-2 -4 4 -8 14 -8 10 0 16 4 14 8 -3 4 -9 8 -14 8 -5 0
-11 -4 -14 -8z"/>
<path d="M2556 4221 c-4 -5 3 -7 14 -4 23 6 26 13 6 13 -8 0 -17 -4 -20 -9z"/>
<path d="M4018 3173 c7 -3 16 -2 19 1 4 3 -2 6 -13 5 -11 0 -14 -3 -6 -6z"/>
<path d="M4011 3144 c0 -11 3 -14 6 -6 3 7 2 16 -1 19 -3 4 -6 -2 -5 -13z"/>
<path d="M6001 3094 c0 -11 3 -14 6 -6 3 7 2 16 -1 19 -3 4 -6 -2 -5 -13z"/>
<path d="M4061 3084 c0 -11 3 -14 6 -6 3 7 2 16 -1 19 -3 4 -6 -2 -5 -13z"/>
<path d="M6016 3075 c-9 -26 -7 -32 5 -12 6 10 9 21 6 23 -2 3 -7 -2 -11 -11z"/>
<path d="M4067 3039 c-4 -16 -3 -18 9 -8 7 6 11 15 8 20 -8 13 -11 11 -17 -12z"/>
<path d="M6002 3020 c0 -14 2 -19 5 -12 2 6 2 18 0 25 -3 6 -5 1 -5 -13z"/>
<path d="M4057 2993 c3 -7 6 -13 8 -13 2 0 5 6 8 13 3 8 -1 14 -8 14 -7 0 -11
-6 -8 -14z"/>
<path d="M4320 2975 c0 -8 5 -15 10 -15 6 0 10 -16 10 -35 0 -21 5 -35 13 -35
9 0 9 -2 -1 -9 -12 -7 -12 -12 0 -30 11 -18 11 -23 -2 -31 -12 -8 -12 -10 5
-11 35 -3 40 -4 53 -13 22 -13 72 3 72 25 0 16 -7 19 -40 19 -32 0 -40 4 -40
19 0 15 7 18 41 15 33 -2 40 0 35 13 -3 8 -6 35 -6 59 l0 44 -75 0 c-60 0 -75
-3 -75 -15z"/>
<path d="M4146 2927 c3 -10 9 -15 12 -12 3 3 0 11 -7 18 -10 9 -11 8 -5 -6z"/>
<path d="M4196 2872 c-2 -4 -1 -14 4 -22 7 -11 9 -9 7 8 -1 24 -3 26 -11 14z"/>
<path d="M4223 2866 c0 -9 4 -16 9 -16 5 0 6 -4 3 -10 -3 -5 0 -7 9 -4 9 3 20
-3 28 -15 7 -12 21 -21 30 -21 9 0 21 -7 26 -17 10 -17 42 -12 42 8 0 6 -7 9
-15 5 -8 -3 -20 1 -28 8 -7 7 -29 21 -47 31 -19 10 -40 25 -46 33 -9 13 -11
12 -11 -2z"/>
<path d="M4433 2853 c9 -2 23 -2 30 0 6 3 -1 5 -18 5 -16 0 -22 -2 -12 -5z"/>
<path d="M4800 2825 c0 -12 16 -15 80 -15 64 0 80 3 80 15 0 12 -16 15 -80 15
-64 0 -80 -3 -80 -15z"/>
<path d="M5203 2823 c-68 -3 -83 -7 -83 -20 0 -13 9 -15 53 -9 28 3 100 9 160
12 59 4 107 11 107 15 0 9 -58 9 -237 2z"/>
<path d="M4394 2788 c3 -10 -2 -19 -12 -22 -9 -3 8 -3 38 -1 30 3 69 5 85 6
25 0 27 2 10 8 -11 4 -40 6 -63 3 -31 -3 -47 -1 -54 9 -8 11 -9 11 -4 -3z"/>
<path d="M4738 2793 c12 -2 32 -2 45 0 12 2 2 4 -23 4 -25 0 -35 -2 -22 -4z"/>
<path d="M4908 2793 c34 -2 90 -2 125 0 34 2 6 3 -63 3 -69 0 -97 -1 -62 -3z"/>
<path d="M5218 2783 c12 -2 32 -2 45 0 12 2 2 4 -23 4 -25 0 -35 -2 -22 -4z"/>
<path d="M4838 2773 c23 -2 61 -2 85 0 23 2 4 4 -43 4 -47 0 -66 -2 -42 -4z"/>
<path d="M5040 2770 c0 -13 11 -13 30 0 12 8 11 10 -7 10 -13 0 -23 -4 -23
-10z"/>
<path d="M5218 2763 c12 -2 32 -2 45 0 12 2 2 4 -23 4 -25 0 -35 -2 -22 -4z"/>
<path d="M3803 2343 c9 -2 23 -2 30 0 6 3 -1 5 -18 5 -16 0 -22 -2 -12 -5z"/>
<path d="M4533 2343 c20 -2 54 -2 75 0 20 2 3 4 -38 4 -41 0 -58 -2 -37 -4z"/>
<path d="M4607 2324 c-2 -2 -17 -4 -34 -6 -18 -1 -29 -6 -27 -10 3 -4 -7 -10
-21 -14 -13 -3 -22 -10 -19 -15 3 -5 -2 -9 -10 -9 -9 0 -16 -7 -16 -15 0 -12
-14 -15 -70 -15 l-70 0 0 -40 c0 -22 -4 -40 -10 -40 -5 0 -10 16 -10 35 0 34
-1 35 -40 35 -39 0 -40 -1 -40 -35 0 -19 -4 -35 -10 -35 -5 0 -10 15 -10 34 0
25 -5 36 -18 40 -10 4 -95 7 -190 7 -161 2 -172 3 -172 20 0 16 -8 19 -52 19
-47 -1 -88 -16 -88 -34 0 -3 14 -6 30 -6 17 0 30 -4 30 -10 0 -5 -18 -10 -40
-10 l-40 0 0 -70 0 -70 -97 -2 c-66 -1 -79 -3 -40 -5 49 -3 57 -7 57 -23 0
-18 7 -20 80 -20 44 0 80 4 80 8 0 5 87 12 192 16 106 4 197 11 202 16 7 7 0
10 -19 10 l-29 0 23 23 c16 15 25 18 28 10 3 -10 37 -13 123 -13 85 0 119 -3
123 -12 3 -10 -23 -12 -117 -10 -66 2 -118 1 -116 -2 3 -2 70 -7 148 -9 79 -2
139 -1 132 3 -6 4 6 6 27 6 40 -1 58 17 23 22 -13 2 -20 10 -18 20 5 25 34 26
58 2 l21 -21 42 23 c23 13 45 28 49 33 5 7 8 7 8 0 0 -5 8 0 18 13 10 13 28
24 40 25 12 0 18 5 14 9 -5 5 -21 4 -36 -2 -38 -14 -44 -13 -51 9 -4 12 -12
18 -21 14 -7 -3 -14 0 -14 6 0 16 30 14 36 -2 6 -17 90 -16 119 1 25 14 11 16
-16 2 -12 -7 -19 -7 -19 -1 0 6 -6 8 -14 5 -17 -7 -47 33 -39 52 3 8 0 14 -6
14 -6 0 -11 4 -11 10 0 5 30 11 68 13 52 3 47 3 -25 4 -51 0 -94 -2 -96 -3z
m18 -174 c-3 -6 -19 -17 -34 -24 -23 -13 -28 -13 -28 -1 0 8 4 12 9 9 4 -3 18
2 30 10 26 19 32 20 23 6z"/>
<path d="M4810 2300 c8 -5 20 -10 25 -10 6 0 3 5 -5 10 -8 5 -19 10 -25 10 -5
0 -3 -5 5 -10z"/>
<path d="M3585 2279 c-4 -6 -5 -12 -2 -15 2 -3 7 2 10 11 7 17 1 20 -8 4z"/>
<path d="M3530 2261 c0 -10 30 -24 37 -17 3 2 -5 9 -16 16 -12 6 -21 7 -21 1z"/>
<path d="M3925 2260 c-4 -7 142 -7 149 0 2 3 -29 5 -71 5 -41 0 -76 -2 -78 -5z"/>
<path d="M4804 2248 l-19 -23 25 20 c14 11 27 21 29 22 2 2 0 3 -6 3 -5 0 -18
-10 -29 -22z"/>
<path d="M3660 2245 c0 -8 5 -15 10 -15 6 0 10 7 10 15 0 8 -4 15 -10 15 -5 0
-10 -7 -10 -15z"/>
<path d="M3572 2188 c-18 -18 -15 -28 8 -28 13 0 20 7 20 20 0 23 -10 26 -28
8z"/>
<path d="M3502 2168 c-17 -17 -15 -48 3 -48 20 0 29 24 18 44 -7 13 -12 13
-21 4z"/>
<path d="M3340 2105 c-11 -13 -10 -14 4 -9 9 3 16 10 16 15 0 13 -6 11 -20 -6z"/>
<path d="M3445 2090 c-3 -5 3 -10 14 -10 12 0 21 5 21 10 0 6 -6 10 -14 10 -8
0 -18 -4 -21 -10z"/>
<path d="M3305 2060 c-10 -11 -15 -20 -11 -20 11 0 39 30 34 36 -3 2 -13 -5
-23 -16z"/>
<path d="M4412 2048 c-7 -7 -12 -16 -12 -21 0 -5 7 -1 16 8 9 9 14 18 12 20
-2 3 -10 -1 -16 -7z"/>
<path d="M4444 2039 c-19 -22 -19 -22 1 -11 11 6 27 16 35 22 13 8 13 10 -1
10 -9 0 -24 -10 -35 -21z"/>
<path d="M6886 1368 c-3 -13 -5 -39 -5 -58 1 -27 3 -22 9 20 9 58 7 77 -4 38z"/>
<path d="M3300 1295 c0 -12 18 -15 105 -15 87 0 105 3 105 15 0 12 -18 15
-105 15 -87 0 -105 -3 -105 -15z"/>
<path d="M27 103 c-25 -4 -27 -8 -27 -54 0 -48 1 -49 30 -49 30 0 30 1 30 55
0 30 -1 54 -2 54 -2 -1 -15 -4 -31 -6z"/>
</g>
</svg>
