<?xml version="1.0" encoding="UTF-8"?>
<!DOCTYPE svg PUBLIC "-//W3C//DTD SVG 1.1//EN" "http://www.w3.org/Graphics/SVG/1.1/DTD/svg11.dtd">
<svg xmlns="http://www.w3.org/2000/svg" version="1.1" width="16" height="16" fill="#fff" class="bi bi-robot" viewBox="0 0 16 16">
<g><path style="opacity:1" fill="#e5e5e4" d="M -0.5,-0.5 C 116.833,-0.5 234.167,-0.5 351.5,-0.5C 351.5,2.16667 351.5,4.83333 351.5,7.5C 350.167,7.5 348.833,7.5 347.5,7.5C 347.5,10.1667 347.5,12.8333 347.5,15.5C 343.5,15.5 339.5,15.5 335.5,15.5C 335.5,16.8333 335.5,18.1667 335.5,19.5C 326.167,19.5 316.833,19.5 307.5,19.5C 307.5,23.5 307.5,27.5 307.5,31.5C 300.833,31.5 294.167,31.5 287.5,31.5C 287.5,34.1667 287.5,36.8333 287.5,39.5C 282.167,39.5 276.833,39.5 271.5,39.5C 271.5,43.5 271.5,47.5 271.5,51.5C 272.833,51.5 274.167,51.5 275.5,51.5C 275.5,52.8333 275.5,54.1667 275.5,55.5C 274.167,55.5 272.833,55.5 271.5,55.5C 271.5,58.1667 271.5,60.8333 271.5,63.5C 266.167,63.8333 260.833,64.1667 255.5,64.5C 255.5,65.5 255.5,66.5 255.5,67.5C 254.167,67.5 252.833,67.5 251.5,67.5C 251.5,68.8333 251.5,70.1667 251.5,71.5C 246.167,71.5 240.833,71.5 235.5,71.5C 235.5,72.8333 235.5,74.1667 235.5,75.5C 231.5,75.5 227.5,75.5 223.5,75.5C 223.5,76.8333 223.5,78.1667 223.5,79.5C 222.167,79.5 220.833,79.5 219.5,79.5C 219.5,82.1667 219.5,84.8333 219.5,87.5C 215.5,87.5 211.5,87.5 207.5,87.5C 207.5,88.8333 207.5,90.1667 207.5,91.5C 206.167,91.5 204.833,91.5 203.5,91.5C 203.5,95.5 203.5,99.5 203.5,103.5C 200.833,103.5 198.167,103.5 195.5,103.5C 195.5,104.833 195.5,106.167 195.5,107.5C 194.167,107.5 192.833,107.5 191.5,107.5C 191.5,110.167 191.5,112.833 191.5,115.5C 188.833,115.5 186.167,115.5 183.5,115.5C 183.5,116.833 183.5,118.167 183.5,119.5C 180.833,119.5 178.167,119.5 175.5,119.5C 175.5,122.167 175.5,124.833 175.5,127.5C 170.167,127.5 164.833,127.5 159.5,127.5C 159.5,132.833 159.5,138.167 159.5,143.5C 156.833,143.5 154.167,143.5 151.5,143.5C 151.5,148.833 151.5,154.167 151.5,159.5C 148.833,159.5 146.167,159.5 143.5,159.5C 143.5,156.833 143.5,154.167 143.5,151.5C 140.833,151.5 138.167,151.5 135.5,151.5C 135.5,158.167 135.5,164.833 135.5,171.5C 132.833,171.5 130.167,171.5 127.5,171.5C 127.5,176.833 127.5,182.167 127.5,187.5C 126.167,187.5 124.833,187.5 123.5,187.5C 123.5,188.833 123.5,190.167 123.5,191.5C 119.5,191.5 115.5,191.5 111.5,191.5C 111.5,196.833 111.5,202.167 111.5,207.5C 108.833,207.5 106.167,207.5 103.5,207.5C 103.5,212.833 103.5,218.167 103.5,223.5C 100.833,223.5 98.1667,223.5 95.5,223.5C 95.5,226.167 95.5,228.833 95.5,231.5C 92.8333,231.5 90.1667,231.5 87.5,231.5C 87.5,235.5 87.5,239.5 87.5,243.5C 84.8333,243.5 82.1667,243.5 79.5,243.5C 79.5,246.167 79.5,248.833 79.5,251.5C 78.1667,251.5 76.8333,251.5 75.5,251.5C 75.5,252.833 75.5,254.167 75.5,255.5C 74.1667,255.5 72.8333,255.5 71.5,255.5C 71.5,260.833 71.5,266.167 71.5,271.5C 68.8333,271.5 66.1667,271.5 63.5,271.5C 63.5,276.833 63.5,282.167 63.5,287.5C 60.8333,287.5 58.1667,287.5 55.5,287.5C 55.5,294.167 55.5,300.833 55.5,307.5C 52.8333,307.5 50.1667,307.5 47.5,307.5C 47.5,314.167 47.5,320.833 47.5,327.5C 46.1667,327.5 44.8333,327.5 43.5,327.5C 43.5,330.167 43.5,332.833 43.5,335.5C 42.1667,335.5 40.8333,335.5 39.5,335.5C 39.5,338.167 39.5,340.833 39.5,343.5C 36.8333,343.5 34.1667,343.5 31.5,343.5C 31.5,360.833 31.5,378.167 31.5,395.5C 28.8333,395.5 26.1667,395.5 23.5,395.5C 23.5,396.833 23.5,398.167 23.5,399.5C 19.5,399.5 15.5,399.5 11.5,399.5C 11.5,404.833 11.5,410.167 11.5,415.5C 12.8333,415.5 14.1667,415.5 15.5,415.5C 15.5,420.833 15.5,426.167 15.5,431.5C 18.1667,431.5 20.8333,431.5 23.5,431.5C 23.5,434.167 23.5,436.833 23.5,439.5C 20.8333,439.5 18.1667,439.5 15.5,439.5C 15.5,442.167 15.5,444.833 15.5,447.5C 12.8333,447.5 10.1667,447.5 7.5,447.5C 7.5,450.167 7.5,452.833 7.5,455.5C 8.83333,455.5 10.1667,455.5 11.5,455.5C 11.5,463.5 11.5,471.5 11.5,479.5C 12.8333,479.5 14.1667,479.5 15.5,479.5C 15.5,488.833 15.5,498.167 15.5,507.5C 16.8333,507.5 18.1667,507.5 19.5,507.5C 19.5,516.5 19.5,525.5 19.5,534.5C 23.4905,533.824 25.1571,535.49 24.5,539.5C 25.1571,543.51 23.4905,545.176 19.5,544.5C 19.5,553.5 19.5,562.5 19.5,571.5C 20.8333,571.5 22.1667,571.5 23.5,571.5C 23.5,583.5 23.5,595.5 23.5,607.5C 26.1667,607.5 28.8333,607.5 31.5,607.5C 31.5,619.5 31.5,631.5 31.5,643.5C 32.8333,643.5 34.1667,643.5 35.5,643.5C 35.5,647.5 35.5,651.5 35.5,655.5C 39.5,655.5 43.5,655.5 47.5,655.5C 47.5,666.167 47.5,676.833 47.5,687.5C 50.1667,687.5 52.8333,687.5 55.5,687.5C 55.5,700.833 55.5,714.167 55.5,727.5C 56.8333,727.5 58.1667,727.5 59.5,727.5C 59.5,730.167 59.5,732.833 59.5,735.5C 60.8333,735.5 62.1667,735.5 63.5,735.5C 63.3347,739.182 63.5014,742.848 64,746.5C 66.741,744.933 67.9077,742.599 67.5,739.5C 68.8333,739.5 70.1667,739.5 71.5,739.5C 71.5,740.833 71.5,742.167 71.5,743.5C 72.8333,743.5 74.1667,743.5 75.5,743.5C 75.5,747.5 75.5,751.5 75.5,755.5C 76.8333,755.5 78.1667,755.5 79.5,755.5C 79.5,756.833 79.5,758.167 79.5,759.5C 82.1667,759.5 84.8333,759.5 87.5,759.5C 87.5,763.5 87.5,767.5 87.5,771.5C 88.8333,771.5 90.1667,771.5 91.5,771.5C 91.5,775.5 91.5,779.5 91.5,783.5C 95.5,783.5 99.5,783.5 103.5,783.5C 103.5,788.833 103.5,794.167 103.5,799.5C 106.167,799.5 108.833,799.5 111.5,799.5C 112.51,802.244 112.176,804.577 110.5,806.5C 117.468,807.497 124.468,807.83 131.5,807.5C 131.5,811.5 131.5,815.5 131.5,819.5C 132.833,819.5 134.167,819.5 135.5,819.5C 135.5,828.833 135.5,838.167 135.5,847.5C 143.5,847.5 151.5,847.5 159.5,847.5C 159.5,852.833 159.5,858.167 159.5,863.5C 164.833,863.5 170.167,863.5 175.5,863.5C 175.5,867.5 175.5,871.5 175.5,875.5C 176.833,875.5 178.167,875.5 179.5,875.5C 179.5,876.833 179.5,878.167 179.5,879.5C 183.5,879.5 187.5,879.5 191.5,879.5C 191.5,884.833 191.5,890.167 191.5,895.5C 194.167,895.5 196.833,895.5 199.5,895.5C 199.5,894.167 199.5,892.833 199.5,891.5C 202.167,891.5 204.833,891.5 207.5,891.5C 207.5,895.5 207.5,899.5 207.5,903.5C 212.833,903.5 218.167,903.5 223.5,903.5C 223.5,908.833 223.5,914.167 223.5,919.5C 226.167,919.5 228.833,919.5 231.5,919.5C 231.5,918.167 231.5,916.833 231.5,915.5C 232.833,915.5 234.167,915.5 235.5,915.5C 235.5,919.5 235.5,923.5 235.5,927.5C 236.833,927.5 238.167,927.5 239.5,927.5C 239.5,924.833 239.5,922.167 239.5,919.5C 242.167,919.5 244.833,919.5 247.5,919.5C 247.5,922.167 247.5,924.833 247.5,927.5C 252.833,927.5 258.167,927.5 263.5,927.5C 263.5,932.833 263.5,938.167 263.5,943.5C 266.167,943.5 268.833,943.5 271.5,943.5C 271.5,944.833 271.5,946.167 271.5,947.5C 272.833,947.5 274.167,947.5 275.5,947.5C 275.5,946.167 275.5,944.833 275.5,943.5C 276.833,943.5 278.167,943.5 279.5,943.5C 279.5,944.833 279.5,946.167 279.5,947.5C 280.833,947.5 282.167,947.5 283.5,947.5C 283.5,948.833 283.5,950.167 283.5,951.5C 284.833,951.5 286.167,951.5 287.5,951.5C 287.5,954.167 287.5,956.833 287.5,959.5C 292.833,959.5 298.167,959.5 303.5,959.5C 303.5,962.167 303.5,964.833 303.5,967.5C 308.833,967.5 314.167,967.5 319.5,967.5C 319.5,970.167 319.5,972.833 319.5,975.5C 331.5,975.5 343.5,975.5 355.5,975.5C 355.5,978.167 355.5,980.833 355.5,983.5C 361.034,982.817 366.034,984.151 370.5,987.5C 371.429,988.689 371.762,990.022 371.5,991.5C 378.167,991.5 384.833,991.5 391.5,991.5C 391.5,990.167 391.5,988.833 391.5,987.5C 392.833,987.5 394.167,987.5 395.5,987.5C 395.5,988.833 395.5,990.167 395.5,991.5C 396.833,991.5 398.167,991.5 399.5,991.5C 399.5,996.833 399.5,1002.17 399.5,1007.5C 415.5,1007.5 431.5,1007.5 447.5,1007.5C 447.5,1012.83 447.5,1018.17 447.5,1023.5C 298.167,1023.5 148.833,1023.5 -0.5,1023.5C -0.5,682.167 -0.5,340.833 -0.5,-0.5 Z"/></g>
<g><path style="opacity:1" fill="#e9e9e9" d="M 351.5,-0.5 C 450.167,-0.5 548.833,-0.5 647.5,-0.5C 647.5,0.833333 647.5,2.16667 647.5,3.5C 655.5,3.5 663.5,3.5 671.5,3.5C 671.5,7.5 671.5,11.5 671.5,15.5C 680.833,15.5 690.167,15.5 699.5,15.5C 699.5,18.1667 699.5,20.8333 699.5,23.5C 706.167,23.5 712.833,23.5 719.5,23.5C 719.5,28.8333 719.5,34.1667 719.5,39.5C 727.5,39.5 735.5,39.5 743.5,39.5C 743.5,40.8333 743.5,42.1667 743.5,43.5C 744.833,43.5 746.167,43.5 747.5,43.5C 747.5,44.8333 747.5,46.1667 747.5,47.5C 746.167,47.5 744.833,47.5 743.5,47.5C 743.5,48.8333 743.5,50.1667 743.5,51.5C 750.167,51.5 756.833,51.5 763.5,51.5C 763.5,52.8333 763.5,54.1667 763.5,55.5C 764.833,55.5 766.167,55.5 767.5,55.5C 767.5,58.1667 767.5,60.8333 767.5,63.5C 768.833,63.5 770.167,63.5 771.5,63.5C 771.5,66.1667 771.5,68.8333 771.5,71.5C 774.167,71.5 776.833,71.5 779.5,71.5C 779.5,74.1667 779.5,76.8333 779.5,79.5C 786.167,79.5 792.833,79.5 799.5,79.5C 799.5,80.8333 799.5,82.1667 799.5,83.5C 798.167,83.5 796.833,83.5 795.5,83.5C 795.5,84.8333 795.5,86.1667 795.5,87.5C 796.833,87.5 798.167,87.5 799.5,87.5C 799.5,90.1667 799.5,92.8333 799.5,95.5C 804.833,95.5 810.167,95.5 815.5,95.5C 815.5,98.1667 815.5,100.833 815.5,103.5C 820.833,103.5 826.167,103.5 831.5,103.5C 831.5,111.5 831.5,119.5 831.5,127.5C 839.5,127.5 847.5,127.5 855.5,127.5C 855.5,128.833 855.5,130.167 855.5,131.5C 856.833,131.5 858.167,131.5 859.5,131.5C 859.5,132.833 859.5,134.167 859.5,135.5C 858.167,135.5 856.833,135.5 855.5,135.5C 855.5,136.833 855.5,138.167 855.5,139.5C 862.167,139.5 868.833,139.5 875.5,139.5C 875.5,140.833 875.5,142.167 875.5,143.5C 874.167,143.5 872.833,143.5 871.5,143.5C 871.5,148.833 871.5,154.167 871.5,159.5C 878.167,159.5 884.833,159.5 891.5,159.5C 891.5,160.833 891.5,162.167 891.5,163.5C 892.833,163.5 894.167,163.5 895.5,163.5C 895.5,172.833 895.5,182.167 895.5,191.5C 899.5,191.5 903.5,191.5 907.5,191.5C 907.5,192.833 907.5,194.167 907.5,195.5C 908.833,195.5 910.167,195.5 911.5,195.5C 911.5,202.167 911.5,208.833 911.5,215.5C 916.833,215.5 922.167,215.5 927.5,215.5C 927.5,218.167 927.5,220.833 927.5,223.5C 930.167,223.5 932.833,223.5 935.5,223.5C 935.5,228.833 935.5,234.167 935.5,239.5C 938.167,239.5 940.833,239.5 943.5,239.5C 943.5,250.167 943.5,260.833 943.5,271.5C 948.833,271.5 954.167,271.5 959.5,271.5C 959.5,274.167 959.5,276.833 959.5,279.5C 958.167,279.5 956.833,279.5 955.5,279.5C 955.5,280.833 955.5,282.167 955.5,283.5C 956.833,283.5 958.167,283.5 959.5,283.5C 959.731,286.785 958.397,289.285 955.5,291C 956.793,291.49 958.127,291.657 959.5,291.5C 959.5,292.833 959.5,294.167 959.5,295.5C 958.167,295.5 956.833,295.5 955.5,295.5C 955.5,296.833 955.5,298.167 955.5,299.5C 956.833,299.5 958.167,299.5 959.5,299.5C 959.5,306.167 959.5,312.833 959.5,319.5C 962.167,319.5 964.833,319.5 967.5,319.5C 967.5,320.833 967.5,322.167 967.5,323.5C 968.833,323.5 970.167,323.5 971.5,323.5C 971.5,324.833 971.5,326.167 971.5,327.5C 972.833,327.5 974.167,327.5 975.5,327.5C 975.5,328.833 975.5,330.167 975.5,331.5C 974.167,331.5 972.833,331.5 971.5,331.5C 971.5,338.167 971.5,344.833 971.5,351.5C 972.833,351.5 974.167,351.5 975.5,351.5C 975.5,358.167 975.5,364.833 975.5,371.5C 978.167,371.5 980.833,371.5 983.5,371.5C 983.5,380.833 983.5,390.167 983.5,399.5C 986.167,399.5 988.833,399.5 991.5,399.5C 991.5,410.167 991.5,420.833 991.5,431.5C 994.167,431.5 996.833,431.5 999.5,431.5C 999.5,432.833 999.5,434.167 999.5,435.5C 1000.83,435.5 1002.17,435.5 1003.5,435.5C 1003.5,439.5 1003.5,443.5 1003.5,447.5C 1002.17,447.5 1000.83,447.5 999.5,447.5C 999.5,452.833 999.5,458.167 999.5,463.5C 1000.83,463.5 1002.17,463.5 1003.5,463.5C 1003.67,471.507 1003.5,479.507 1003,487.5C 1000.06,489.372 998.889,492.039 999.5,495.5C 998.167,495.5 996.833,495.5 995.5,495.5C 995.5,498.167 995.5,500.833 995.5,503.5C 999.5,503.5 1003.5,503.5 1007.5,503.5C 1007.5,514.167 1007.5,524.833 1007.5,535.5C 1006.17,535.5 1004.83,535.5 1003.5,535.5C 1003.5,534.167 1003.5,532.833 1003.5,531.5C 1002.17,531.5 1000.83,531.5 999.5,531.5C 999.5,532.833 999.5,534.167 999.5,535.5C 998.167,535.5 996.833,535.5 995.5,535.5C 995.5,536.833 995.5,538.167 995.5,539.5C 998.167,539.5 1000.83,539.5 1003.5,539.5C 1003.5,540.833 1003.5,542.167 1003.5,543.5C 1002.17,543.5 1000.83,543.5 999.5,543.5C 999.5,546.167 999.5,548.833 999.5,551.5C 998.167,551.5 996.833,551.5 995.5,551.5C 995.5,556.833 995.5,562.167 995.5,567.5C 996.833,567.5 998.167,567.5 999.5,567.5C 999.5,570.167 999.5,572.833 999.5,575.5C 996.833,575.5 994.167,575.5 991.5,575.5C 991.5,582.167 991.5,588.833 991.5,595.5C 988.833,595.5 986.167,595.5 983.5,595.5C 983.5,596.833 983.5,598.167 983.5,599.5C 986.167,599.5 988.833,599.5 991.5,599.5C 991.5,603.5 991.5,607.5 991.5,611.5C 990.167,611.5 988.833,611.5 987.5,611.5C 987.5,612.833 987.5,614.167 987.5,615.5C 988.833,615.5 990.167,615.5 991.5,615.5C 991.5,619.5 991.5,623.5 991.5,627.5C 990.167,627.5 988.833,627.5 987.5,627.5C 987.5,630.167 987.5,632.833 987.5,635.5C 986.167,635.5 984.833,635.5 983.5,635.5C 983.5,636.833 983.5,638.167 983.5,639.5C 980.833,639.5 978.167,639.5 975.5,639.5C 975.5,648.833 975.5,658.167 975.5,667.5C 974.167,667.5 972.833,667.5 971.5,667.5C 971.5,668.833 971.5,670.167 971.5,671.5C 970.167,671.5 968.833,671.5 967.5,671.5C 967.5,676.833 967.5,682.167 967.5,687.5C 964.833,687.5 962.167,687.5 959.5,687.5C 959.5,692.833 959.5,698.167 959.5,703.5C 958.167,703.5 956.833,703.5 955.5,703.5C 955.5,708.833 955.5,714.167 955.5,719.5C 954.167,719.5 952.833,719.5 951.5,719.5C 951.5,724.833 951.5,730.167 951.5,735.5C 948.833,735.5 946.167,735.5 943.5,735.5C 943.5,738.167 943.5,740.833 943.5,743.5C 941.143,743.337 938.81,743.503 936.5,744C 935.663,745.011 935.33,746.178 935.5,747.5C 936.833,747.5 938.167,747.5 939.5,747.5C 939.5,748.833 939.5,750.167 939.5,751.5C 935.5,751.5 931.5,751.5 927.5,751.5C 927.5,756.833 927.5,762.167 927.5,767.5C 924.833,767.5 922.167,767.5 919.5,767.5C 919.5,772.833 919.5,778.167 919.5,783.5C 916.833,783.5 914.167,783.5 911.5,783.5C 911.5,787.5 911.5,791.5 911.5,795.5C 910.167,795.5 908.833,795.5 907.5,795.5C 907.5,796.833 907.5,798.167 907.5,799.5C 903.5,799.5 899.5,799.5 895.5,799.5C 895.5,803.5 895.5,807.5 895.5,811.5C 894.167,811.5 892.833,811.5 891.5,811.5C 891.5,812.833 891.5,814.167 891.5,815.5C 887.5,815.5 883.5,815.5 879.5,815.5C 879.5,820.833 879.5,826.167 879.5,831.5C 874.167,831.5 868.833,831.5 863.5,831.5C 863.5,839.167 863.5,846.833 863.5,854.5C 860.833,854.5 858.167,854.5 855.5,854.5C 855.5,853.5 855.5,852.5 855.5,851.5C 854.167,851.5 852.833,851.5 851.5,851.5C 851.5,852.833 851.5,854.167 851.5,855.5C 852.5,855.5 853.5,855.5 854.5,855.5C 854.5,858.167 854.5,860.833 854.5,863.5C 853.5,863.5 852.5,863.5 851.5,863.5C 851.5,862.167 851.5,860.833 851.5,859.5C 850.167,859.5 848.833,859.5 847.5,859.5C 847.5,858.167 847.5,856.833 847.5,855.5C 844.833,855.5 842.167,855.5 839.5,855.5C 839.5,863.5 839.5,871.5 839.5,879.5C 836.833,879.5 834.167,879.5 831.5,879.5C 831.5,882.167 831.5,884.833 831.5,887.5C 826.167,887.5 820.833,887.5 815.5,887.5C 815.5,894.167 815.5,900.833 815.5,907.5C 814.167,907.5 812.833,907.5 811.5,907.5C 811.5,906.167 811.5,904.833 811.5,903.5C 810.167,903.5 808.833,903.5 807.5,903.5C 807.833,906.167 808.167,908.833 808.5,911.5C 805.5,911.5 802.5,911.5 799.5,911.5C 799.5,910.167 799.5,908.833 799.5,907.5C 798.167,907.5 796.833,907.5 795.5,907.5C 795.5,908.833 795.5,910.167 795.5,911.5C 791.5,911.5 787.5,911.5 783.5,911.5C 783.5,914.167 783.5,916.833 783.5,919.5C 778.167,919.5 772.833,919.5 767.5,919.5C 767.5,922.167 767.5,924.833 767.5,927.5C 762.167,927.5 756.833,927.5 751.5,927.5C 751.5,931.5 751.5,935.5 751.5,939.5C 750.167,939.5 748.833,939.5 747.5,939.5C 747.5,940.833 747.5,942.167 747.5,943.5C 743.5,943.5 739.5,943.5 735.5,943.5C 735.5,946.167 735.5,948.833 735.5,951.5C 730.167,951.5 724.833,951.5 719.5,951.5C 719.5,954.167 719.5,956.833 719.5,959.5C 715.5,959.5 711.5,959.5 707.5,959.5C 707.5,958.167 707.5,956.833 707.5,955.5C 706.167,955.5 704.833,955.5 703.5,955.5C 703.5,956.833 703.5,958.167 703.5,959.5C 696.476,959.331 689.476,959.164 682.5,959C 683.854,960.294 685.188,960.46 686.5,959.5C 687.495,964.792 687.828,970.125 687.5,975.5C 682.167,975.5 676.833,975.5 671.5,975.5C 671.5,978.167 671.5,980.833 671.5,983.5C 666.167,983.5 660.833,983.5 655.5,983.5C 655.5,984.833 655.5,986.167 655.5,987.5C 648.833,987.5 642.167,987.5 635.5,987.5C 635.5,988.833 635.5,990.167 635.5,991.5C 630.167,991.5 624.833,991.5 619.5,991.5C 619.5,994.167 619.5,996.833 619.5,999.5C 618.167,999.5 616.833,999.5 615.5,999.5C 615.5,1000.83 615.5,1002.17 615.5,1003.5C 616.833,1003.5 618.167,1003.5 619.5,1003.5C 619.5,1004.83 619.5,1006.17 619.5,1007.5C 615.5,1007.5 611.5,1007.5 607.5,1007.5C 607.5,1008.83 607.5,1010.17 607.5,1011.5C 606.167,1011.5 604.833,1011.5 603.5,1011.5C 603.5,1012.83 603.5,1014.17 603.5,1015.5C 604.833,1015.5 606.167,1015.5 607.5,1015.5C 607.5,1018.17 607.5,1020.83 607.5,1023.5C 554.167,1023.5 500.833,1023.5 447.5,1023.5C 447.5,1018.17 447.5,1012.83 447.5,1007.5C 431.5,1007.5 415.5,1007.5 399.5,1007.5C 399.5,1002.17 399.5,996.833 399.5,991.5C 398.167,991.5 396.833,991.5 395.5,991.5C 395.5,990.167 395.5,988.833 395.5,987.5C 394.167,987.5 392.833,987.5 391.5,987.5C 391.5,988.833 391.5,990.167 391.5,991.5C 384.833,991.5 378.167,991.5 371.5,991.5C 371.762,990.022 371.429,988.689 370.5,987.5C 366.034,984.151 361.034,982.817 355.5,983.5C 355.5,980.833 355.5,978.167 355.5,975.5C 343.5,975.5 331.5,975.5 319.5,975.5C 319.5,972.833 319.5,970.167 319.5,967.5C 314.167,967.5 308.833,967.5 303.5,967.5C 303.5,964.833 303.5,962.167 303.5,959.5C 298.167,959.5 292.833,959.5 287.5,959.5C 287.5,956.833 287.5,954.167 287.5,951.5C 286.167,951.5 284.833,951.5 283.5,951.5C 283.5,950.167 283.5,948.833 283.5,947.5C 282.167,947.5 280.833,947.5 279.5,947.5C 279.5,946.167 279.5,944.833 279.5,943.5C 278.167,943.5 276.833,943.5 275.5,943.5C 275.5,944.833 275.5,946.167 275.5,947.5C 274.167,947.5 272.833,947.5 271.5,947.5C 271.5,946.167 271.5,944.833 271.5,943.5C 268.833,943.5 266.167,943.5 263.5,943.5C 263.5,938.167 263.5,932.833 263.5,927.5C 258.167,927.5 252.833,927.5 247.5,927.5C 247.5,924.833 247.5,922.167 247.5,919.5C 244.833,919.5 242.167,919.5 239.5,919.5C 239.5,922.167 239.5,924.833 239.5,927.5C 238.167,927.5 236.833,927.5 235.5,927.5C 235.5,923.5 235.5,919.5 235.5,915.5C 234.167,915.5 232.833,915.5 231.5,915.5C 231.5,916.833 231.5,918.167 231.5,919.5C 228.833,919.5 226.167,919.5 223.5,919.5C 223.5,914.167 223.5,908.833 223.5,903.5C 218.167,903.5 212.833,903.5 207.5,903.5C 207.5,899.5 207.5,895.5 207.5,891.5C 204.833,891.5 202.167,891.5 199.5,891.5C 199.5,892.833 199.5,894.167 199.5,895.5C 196.833,895.5 194.167,895.5 191.5,895.5C 191.5,890.167 191.5,884.833 191.5,879.5C 187.5,879.5 183.5,879.5 179.5,879.5C 179.5,878.167 179.5,876.833 179.5,875.5C 178.167,875.5 176.833,875.5 175.5,875.5C 175.5,871.5 175.5,867.5 175.5,863.5C 170.167,863.5 164.833,863.5 159.5,863.5C 159.5,858.167 159.5,852.833 159.5,847.5C 151.5,847.5 143.5,847.5 135.5,847.5C 135.5,838.167 135.5,828.833 135.5,819.5C 134.167,819.5 132.833,819.5 131.5,819.5C 131.5,815.5 131.5,811.5 131.5,807.5C 124.468,807.83 117.468,807.497 110.5,806.5C 112.176,804.577 112.51,802.244 111.5,799.5C 108.833,799.5 106.167,799.5 103.5,799.5C 103.5,794.167 103.5,788.833 103.5,783.5C 99.5,783.5 95.5,783.5 91.5,783.5C 91.5,779.5 91.5,775.5 91.5,771.5C 90.1667,771.5 88.8333,771.5 87.5,771.5C 87.5,767.5 87.5,763.5 87.5,759.5C 84.8333,759.5 82.1667,759.5 79.5,759.5C 79.5,758.167 79.5,756.833 79.5,755.5C 78.1667,755.5 76.8333,755.5 75.5,755.5C 75.5,751.5 75.5,747.5 75.5,743.5C 74.1667,743.5 72.8333,743.5 71.5,743.5C 71.5,742.167 71.5,740.833 71.5,739.5C 70.1667,739.5 68.8333,739.5 67.5,739.5C 67.9077,742.599 66.741,744.933 64,746.5C 63.5014,742.848 63.3347,739.182 63.5,735.5C 62.1667,735.5 60.8333,735.5 59.5,735.5C 59.5,732.833 59.5,730.167 59.5,727.5C 58.1667,727.5 56.8333,727.5 55.5,727.5C 55.5,714.167 55.5,700.833 55.5,687.5C 52.8333,687.5 50.1667,687.5 47.5,687.5C 47.5,676.833 47.5,666.167 47.5,655.5C 43.5,655.5 39.5,655.5 35.5,655.5C 35.5,651.5 35.5,647.5 35.5,643.5C 34.1667,643.5 32.8333,643.5 31.5,643.5C 31.5,631.5 31.5,619.5 31.5,607.5C 28.8333,607.5 26.1667,607.5 23.5,607.5C 23.5,595.5 23.5,583.5 23.5,571.5C 22.1667,571.5 20.8333,571.5 19.5,571.5C 19.5,562.5 19.5,553.5 19.5,544.5C 23.4905,545.176 25.1571,543.51 24.5,539.5C 25.1571,535.49 23.4905,533.824 19.5,534.5C 19.5,525.5 19.5,516.5 19.5,507.5C 18.1667,507.5 16.8333,507.5 15.5,507.5C 15.5,498.167 15.5,488.833 15.5,479.5C 14.1667,479.5 12.8333,479.5 11.5,479.5C 11.5,471.5 11.5,463.5 11.5,455.5C 10.1667,455.5 8.83333,455.5 7.5,455.5C 7.5,452.833 7.5,450.167 7.5,447.5C 10.1667,447.5 12.8333,447.5 15.5,447.5C 15.5,444.833 15.5,442.167 15.5,439.5C 18.1667,439.5 20.8333,439.5 23.5,439.5C 23.5,436.833 23.5,434.167 23.5,431.5C 20.8333,431.5 18.1667,431.5 15.5,431.5C 15.5,426.167 15.5,420.833 15.5,415.5C 14.1667,415.5 12.8333,415.5 11.5,415.5C 11.5,410.167 11.5,404.833 11.5,399.5C 15.5,399.5 19.5,399.5 23.5,399.5C 23.5,398.167 23.5,396.833 23.5,395.5C 26.1667,395.5 28.8333,395.5 31.5,395.5C 31.5,378.167 31.5,360.833 31.5,343.5C 34.1667,343.5 36.8333,343.5 39.5,343.5C 39.5,340.833 39.5,338.167 39.5,335.5C 40.8333,335.5 42.1667,335.5 43.5,335.5C 43.5,332.833 43.5,330.167 43.5,327.5C 44.8333,327.5 46.1667,327.5 47.5,327.5C 47.5,320.833 47.5,314.167 47.5,307.5C 50.1667,307.5 52.8333,307.5 55.5,307.5C 55.5,300.833 55.5,294.167 55.5,287.5C 58.1667,287.5 60.8333,287.5 63.5,287.5C 63.5,282.167 63.5,276.833 63.5,271.5C 66.1667,271.5 68.8333,271.5 71.5,271.5C 71.5,266.167 71.5,260.833 71.5,255.5C 72.8333,255.5 74.1667,255.5 75.5,255.5C 75.5,254.167 75.5,252.833 75.5,251.5C 76.8333,251.5 78.1667,251.5 79.5,251.5C 79.5,248.833 79.5,246.167 79.5,243.5C 82.1667,243.5 84.8333,243.5 87.5,243.5C 87.5,239.5 87.5,235.5 87.5,231.5C 90.1667,231.5 92.8333,231.5 95.5,231.5C 95.5,228.833 95.5,226.167 95.5,223.5C 98.1667,223.5 100.833,223.5 103.5,223.5C 103.5,218.167 103.5,212.833 103.5,207.5C 106.167,207.5 108.833,207.5 111.5,207.5C 111.5,202.167 111.5,196.833 111.5,191.5C 115.5,191.5 119.5,191.5 123.5,191.5C 123.5,190.167 123.5,188.833 123.5,187.5C 124.833,187.5 126.167,187.5 127.5,187.5C 127.5,182.167 127.5,176.833 127.5,171.5C 130.167,171.5 132.833,171.5 135.5,171.5C 135.5,164.833 135.5,158.167 135.5,151.5C 138.167,151.5 140.833,151.5 143.5,151.5C 143.5,154.167 143.5,156.833 143.5,159.5C 146.167,159.5 148.833,159.5 151.5,159.5C 151.5,154.167 151.5,148.833 151.5,143.5C 154.167,143.5 156.833,143.5 159.5,143.5C 159.5,138.167 159.5,132.833 159.5,127.5C 164.833,127.5 170.167,127.5 175.5,127.5C 175.5,124.833 175.5,122.167 175.5,119.5C 178.167,119.5 180.833,119.5 183.5,119.5C 183.5,118.167 183.5,116.833 183.5,115.5C 186.167,115.5 188.833,115.5 191.5,115.5C 191.5,112.833 191.5,110.167 191.5,107.5C 192.833,107.5 194.167,107.5 195.5,107.5C 195.5,106.167 195.5,104.833 195.5,103.5C 198.167,103.5 200.833,103.5 203.5,103.5C 203.5,99.5 203.5,95.5 203.5,91.5C 204.833,91.5 206.167,91.5 207.5,91.5C 207.5,90.1667 207.5,88.8333 207.5,87.5C 211.5,87.5 215.5,87.5 219.5,87.5C 219.5,84.8333 219.5,82.1667 219.5,79.5C 220.833,79.5 222.167,79.5 223.5,79.5C 223.5,78.1667 223.5,76.8333 223.5,75.5C 227.5,75.5 231.5,75.5 235.5,75.5C 235.5,74.1667 235.5,72.8333 235.5,71.5C 240.833,71.5 246.167,71.5 251.5,71.5C 251.5,70.1667 251.5,68.8333 251.5,67.5C 252.833,67.5 254.167,67.5 255.5,67.5C 255.5,66.5 255.5,65.5 255.5,64.5C 260.833,64.1667 266.167,63.8333 271.5,63.5C 271.5,60.8333 271.5,58.1667 271.5,55.5C 272.833,55.5 274.167,55.5 275.5,55.5C 275.5,54.1667 275.5,52.8333 275.5,51.5C 274.167,51.5 272.833,51.5 271.5,51.5C 271.5,47.5 271.5,43.5 271.5,39.5C 276.833,39.5 282.167,39.5 287.5,39.5C 287.5,36.8333 287.5,34.1667 287.5,31.5C 294.167,31.5 300.833,31.5 307.5,31.5C 307.5,27.5 307.5,23.5 307.5,19.5C 316.833,19.5 326.167,19.5 335.5,19.5C 335.5,18.1667 335.5,16.8333 335.5,15.5C 339.5,15.5 343.5,15.5 347.5,15.5C 347.5,12.8333 347.5,10.1667 347.5,7.5C 348.833,7.5 350.167,7.5 351.5,7.5C 351.5,4.83333 351.5,2.16667 351.5,-0.5 Z"/></g>
<g><path style="opacity:1" fill="#e5e5e4" d="M 647.5,-0.5 C 772.833,-0.5 898.167,-0.5 1023.5,-0.5C 1023.5,335.5 1023.5,671.5 1023.5,1007.5C 1018.17,1007.5 1012.83,1007.5 1007.5,1007.5C 1002.17,1007.5 996.833,1007.5 991.5,1007.5C 986.167,1007.5 980.833,1007.5 975.5,1007.5C 970.167,1007.5 964.833,1007.5 959.5,1007.5C 954.167,1007.5 948.833,1007.5 943.5,1007.5C 943.5,1012.83 943.5,1018.17 943.5,1023.5C 831.5,1023.5 719.5,1023.5 607.5,1023.5C 607.5,1020.83 607.5,1018.17 607.5,1015.5C 606.167,1015.5 604.833,1015.5 603.5,1015.5C 603.5,1014.17 603.5,1012.83 603.5,1011.5C 604.833,1011.5 606.167,1011.5 607.5,1011.5C 607.5,1010.17 607.5,1008.83 607.5,1007.5C 611.5,1007.5 615.5,1007.5 619.5,1007.5C 619.5,1006.17 619.5,1004.83 619.5,1003.5C 618.167,1003.5 616.833,1003.5 615.5,1003.5C 615.5,1002.17 615.5,1000.83 615.5,999.5C 616.833,999.5 618.167,999.5 619.5,999.5C 619.5,996.833 619.5,994.167 619.5,991.5C 624.833,991.5 630.167,991.5 635.5,991.5C 635.5,990.167 635.5,988.833 635.5,987.5C 642.167,987.5 648.833,987.5 655.5,987.5C 655.5,986.167 655.5,984.833 655.5,983.5C 660.833,983.5 666.167,983.5 671.5,983.5C 671.5,980.833 671.5,978.167 671.5,975.5C 676.833,975.5 682.167,975.5 687.5,975.5C 687.828,970.125 687.495,964.792 686.5,959.5C 685.188,960.46 683.854,960.294 682.5,959C 689.476,959.164 696.476,959.331 703.5,959.5C 703.5,958.167 703.5,956.833 703.5,955.5C 704.833,955.5 706.167,955.5 707.5,955.5C 707.5,956.833 707.5,958.167 707.5,959.5C 711.5,959.5 715.5,959.5 719.5,959.5C 719.5,956.833 719.5,954.167 719.5,951.5C 724.833,951.5 730.167,951.5 735.5,951.5C 735.5,948.833 735.5,946.167 735.5,943.5C 739.5,943.5 743.5,943.5 747.5,943.5C 747.5,942.167 747.5,940.833 747.5,939.5C 748.833,939.5 750.167,939.5 751.5,939.5C 751.5,935.5 751.5,931.5 751.5,927.5C 756.833,927.5 762.167,927.5 767.5,927.5C 767.5,924.833 767.5,922.167 767.5,919.5C 772.833,919.5 778.167,919.5 783.5,919.5C 783.5,916.833 783.5,914.167 783.5,911.5C 787.5,911.5 791.5,911.5 795.5,911.5C 795.5,910.167 795.5,908.833 795.5,907.5C 796.833,907.5 798.167,907.5 799.5,907.5C 799.5,908.833 799.5,910.167 799.5,911.5C 802.5,911.5 805.5,911.5 808.5,911.5C 808.167,908.833 807.833,906.167 807.5,903.5C 808.833,903.5 810.167,903.5 811.5,903.5C 811.5,904.833 811.5,906.167 811.5,907.5C 812.833,907.5 814.167,907.5 815.5,907.5C 815.5,900.833 815.5,894.167 815.5,887.5C 820.833,887.5 826.167,887.5 831.5,887.5C 831.5,884.833 831.5,882.167 831.5,879.5C 834.167,879.5 836.833,879.5 839.5,879.5C 839.5,871.5 839.5,863.5 839.5,855.5C 842.167,855.5 844.833,855.5 847.5,855.5C 847.5,856.833 847.5,858.167 847.5,859.5C 848.833,859.5 850.167,859.5 851.5,859.5C 851.5,860.833 851.5,862.167 851.5,863.5C 852.5,863.5 853.5,863.5 854.5,863.5C 854.5,860.833 854.5,858.167 854.5,855.5C 853.5,855.5 852.5,855.5 851.5,855.5C 851.5,854.167 851.5,852.833 851.5,851.5C 852.833,851.5 854.167,851.5 855.5,851.5C 855.5,852.5 855.5,853.5 855.5,854.5C 858.167,854.5 860.833,854.5 863.5,854.5C 863.5,846.833 863.5,839.167 863.5,831.5C 868.833,831.5 874.167,831.5 879.5,831.5C 879.5,826.167 879.5,820.833 879.5,815.5C 883.5,815.5 887.5,815.5 891.5,815.5C 891.5,814.167 891.5,812.833 891.5,811.5C 892.833,811.5 894.167,811.5 895.5,811.5C 895.5,807.5 895.5,803.5 895.5,799.5C 899.5,799.5 903.5,799.5 907.5,799.5C 907.5,798.167 907.5,796.833 907.5,795.5C 908.833,795.5 910.167,795.5 911.5,795.5C 911.5,791.5 911.5,787.5 911.5,783.5C 914.167,783.5 916.833,783.5 919.5,783.5C 919.5,778.167 919.5,772.833 919.5,767.5C 922.167,767.5 924.833,767.5 927.5,767.5C 927.5,762.167 927.5,756.833 927.5,751.5C 931.5,751.5 935.5,751.5 939.5,751.5C 939.5,750.167 939.5,748.833 939.5,747.5C 938.167,747.5 936.833,747.5 935.5,747.5C 935.33,746.178 935.663,745.011 936.5,744C 938.81,743.503 941.143,743.337 943.5,743.5C 943.5,740.833 943.5,738.167 943.5,735.5C 946.167,735.5 948.833,735.5 951.5,735.5C 951.5,730.167 951.5,724.833 951.5,719.5C 952.833,719.5 954.167,719.5 955.5,719.5C 955.5,714.167 955.5,708.833 955.5,703.5C 956.833,703.5 958.167,703.5 959.5,703.5C 959.5,698.167 959.5,692.833 959.5,687.5C 962.167,687.5 964.833,687.5 967.5,687.5C 967.5,682.167 967.5,676.833 967.5,671.5C 968.833,671.5 970.167,671.5 971.5,671.5C 971.5,670.167 971.5,668.833 971.5,667.5C 972.833,667.5 974.167,667.5 975.5,667.5C 975.5,658.167 975.5,648.833 975.5,639.5C 978.167,639.5 980.833,639.5 983.5,639.5C 983.5,638.167 983.5,636.833 983.5,635.5C 984.833,635.5 986.167,635.5 987.5,635.5C 987.5,632.833 987.5,630.167 987.5,627.5C 988.833,627.5 990.167,627.5 991.5,627.5C 991.5,623.5 991.5,619.5 991.5,615.5C 990.167,615.5 988.833,615.5 987.5,615.5C 987.5,614.167 987.5,612.833 987.5,611.5C 988.833,611.5 990.167,611.5 991.5,611.5C 991.5,607.5 991.5,603.5 991.5,599.5C 988.833,599.5 986.167,599.5 983.5,599.5C 983.5,598.167 983.5,596.833 983.5,595.5C 986.167,595.5 988.833,595.5 991.5,595.5C 991.5,588.833 991.5,582.167 991.5,575.5C 994.167,575.5 996.833,575.5 999.5,575.5C 999.5,572.833 999.5,570.167 999.5,567.5C 998.167,567.5 996.833,567.5 995.5,567.5C 995.5,562.167 995.5,556.833 995.5,551.5C 996.833,551.5 998.167,551.5 999.5,551.5C 999.5,548.833 999.5,546.167 999.5,543.5C 1000.83,543.5 1002.17,543.5 1003.5,543.5C 1003.5,542.167 1003.5,540.833 1003.5,539.5C 1000.83,539.5 998.167,539.5 995.5,539.5C 995.5,538.167 995.5,536.833 995.5,535.5C 996.833,535.5 998.167,535.5 999.5,535.5C 999.5,534.167 999.5,532.833 999.5,531.5C 1000.83,531.5 1002.17,531.5 1003.5,531.5C 1003.5,532.833 1003.5,534.167 1003.5,535.5C 1004.83,535.5 1006.17,535.5 1007.5,535.5C 1007.5,524.833 1007.5,514.167 1007.5,503.5C 1003.5,503.5 999.5,503.5 995.5,503.5C 995.5,500.833 995.5,498.167 995.5,495.5C 996.833,495.5 998.167,495.5 999.5,495.5C 998.889,492.039 1000.06,489.372 1003,487.5C 1003.5,479.507 1003.67,471.507 1003.5,463.5C 1002.17,463.5 1000.83,463.5 999.5,463.5C 999.5,458.167 999.5,452.833 999.5,447.5C 1000.83,447.5 1002.17,447.5 1003.5,447.5C 1003.5,443.5 1003.5,439.5 1003.5,435.5C 1002.17,435.5 1000.83,435.5 999.5,435.5C 999.5,434.167 999.5,432.833 999.5,431.5C 996.833,431.5 994.167,431.5 991.5,431.5C 991.5,420.833 991.5,410.167 991.5,399.5C 988.833,399.5 986.167,399.5 983.5,399.5C 983.5,390.167 983.5,380.833 983.5,371.5C 980.833,371.5 978.167,371.5 975.5,371.5C 975.5,364.833 975.5,358.167 975.5,351.5C 974.167,351.5 972.833,351.5 971.5,351.5C 971.5,344.833 971.5,338.167 971.5,331.5C 972.833,331.5 974.167,331.5 975.5,331.5C 975.5,330.167 975.5,328.833 975.5,327.5C 974.167,327.5 972.833,327.5 971.5,327.5C 971.5,326.167 971.5,324.833 971.5,323.5C 970.167,323.5 968.833,323.5 967.5,323.5C 967.5,322.167 967.5,320.833 967.5,319.5C 964.833,319.5 962.167,319.5 959.5,319.5C 959.5,312.833 959.5,306.167 959.5,299.5C 958.167,299.5 956.833,299.5 955.5,299.5C 955.5,298.167 955.5,296.833 955.5,295.5C 956.833,295.5 958.167,295.5 959.5,295.5C 959.5,294.167 959.5,292.833 959.5,291.5C 958.127,291.657 956.793,291.49 955.5,291C 958.397,289.285 959.731,286.785 959.5,283.5C 958.167,283.5 956.833,283.5 955.5,283.5C 955.5,282.167 955.5,280.833 955.5,279.5C 956.833,279.5 958.167,279.5 959.5,279.5C 959.5,276.833 959.5,274.167 959.5,271.5C 954.167,271.5 948.833,271.5 943.5,271.5C 943.5,260.833 943.5,250.167 943.5,239.5C 940.833,239.5 938.167,239.5 935.5,239.5C 935.5,234.167 935.5,228.833 935.5,223.5C 932.833,223.5 930.167,223.5 927.5,223.5C 927.5,220.833 927.5,218.167 927.5,215.5C 922.167,215.5 916.833,215.5 911.5,215.5C 911.5,208.833 911.5,202.167 911.5,195.5C 910.167,195.5 908.833,195.5 907.5,195.5C 907.5,194.167 907.5,192.833 907.5,191.5C 903.5,191.5 899.5,191.5 895.5,191.5C 895.5,182.167 895.5,172.833 895.5,163.5C 894.167,163.5 892.833,163.5 891.5,163.5C 891.5,162.167 891.5,160.833 891.5,159.5C 884.833,159.5 878.167,159.5 871.5,159.5C 871.5,154.167 871.5,148.833 871.5,143.5C 872.833,143.5 874.167,143.5 875.5,143.5C 875.5,142.167 875.5,140.833 875.5,139.5C 868.833,139.5 862.167,139.5 855.5,139.5C 855.5,138.167 855.5,136.833 855.5,135.5C 856.833,135.5 858.167,135.5 859.5,135.5C 859.5,134.167 859.5,132.833 859.5,131.5C 858.167,131.5 856.833,131.5 855.5,131.5C 855.5,130.167 855.5,128.833 855.5,127.5C 847.5,127.5 839.5,127.5 831.5,127.5C 831.5,119.5 831.5,111.5 831.5,103.5C 826.167,103.5 820.833,103.5 815.5,103.5C 815.5,100.833 815.5,98.1667 815.5,95.5C 810.167,95.5 804.833,95.5 799.5,95.5C 799.5,92.8333 799.5,90.1667 799.5,87.5C 798.167,87.5 796.833,87.5 795.5,87.5C 795.5,86.1667 795.5,84.8333 795.5,83.5C 796.833,83.5 798.167,83.5 799.5,83.5C 799.5,82.1667 799.5,80.8333 799.5,79.5C 792.833,79.5 786.167,79.5 779.5,79.5C 779.5,76.8333 779.5,74.1667 779.5,71.5C 776.833,71.5 774.167,71.5 771.5,71.5C 771.5,68.8333 771.5,66.1667 771.5,63.5C 770.167,63.5 768.833,63.5 767.5,63.5C 767.5,60.8333 767.5,58.1667 767.5,55.5C 766.167,55.5 764.833,55.5 763.5,55.5C 763.5,54.1667 763.5,52.8333 763.5,51.5C 756.833,51.5 750.167,51.5 743.5,51.5C 743.5,50.1667 743.5,48.8333 743.5,47.5C 744.833,47.5 746.167,47.5 747.5,47.5C 747.5,46.1667 747.5,44.8333 747.5,43.5C 746.167,43.5 744.833,43.5 743.5,43.5C 743.5,42.1667 743.5,40.8333 743.5,39.5C 735.5,39.5 727.5,39.5 719.5,39.5C 719.5,34.1667 719.5,28.8333 719.5,23.5C 712.833,23.5 706.167,23.5 699.5,23.5C 699.5,20.8333 699.5,18.1667 699.5,15.5C 690.167,15.5 680.833,15.5 671.5,15.5C 671.5,11.5 671.5,7.5 671.5,3.5C 663.5,3.5 655.5,3.5 647.5,3.5C 647.5,2.16667 647.5,0.833333 647.5,-0.5 Z"/></g>
<g><path style="opacity:1" fill="#f0f0ef" d="M 555.5,95.5 C 559.5,95.5 563.5,95.5 567.5,95.5C 567.5,96.8333 567.5,98.1667 567.5,99.5C 571.5,99.5 575.5,99.5 579.5,99.5C 579.5,100.833 579.5,102.167 579.5,103.5C 587.5,103.5 595.5,103.5 603.5,103.5C 603.5,104.833 603.5,106.167 603.5,107.5C 604.833,107.5 606.167,107.5 607.5,107.5C 607.5,110.167 607.5,112.833 607.5,115.5C 616.833,115.5 626.167,115.5 635.5,115.5C 635.5,116.833 635.5,118.167 635.5,119.5C 642.167,119.5 648.833,119.5 655.5,119.5C 655.5,122.167 655.5,124.833 655.5,127.5C 663.5,127.5 671.5,127.5 679.5,127.5C 679.5,130.167 679.5,132.833 679.5,135.5C 682.167,135.5 684.833,135.5 687.5,135.5C 687.5,138.167 687.5,140.833 687.5,143.5C 692.833,143.5 698.167,143.5 703.5,143.5C 703.5,146.167 703.5,148.833 703.5,151.5C 704.833,151.5 706.167,151.5 707.5,151.5C 707.5,152.833 707.5,154.167 707.5,155.5C 708.833,155.5 710.167,155.5 711.5,155.5C 711.5,156.833 711.5,158.167 711.5,159.5C 714.167,159.5 716.833,159.5 719.5,159.5C 719.5,160.833 719.5,162.167 719.5,163.5C 723.5,163.5 727.5,163.5 731.5,163.5C 731.5,166.167 731.5,168.833 731.5,171.5C 732.833,171.5 734.167,171.5 735.5,171.5C 735.5,172.833 735.5,174.167 735.5,175.5C 738.167,175.5 740.833,175.5 743.5,175.5C 743.5,178.167 743.5,180.833 743.5,183.5C 747.5,183.5 751.5,183.5 755.5,183.5C 755.5,184.833 755.5,186.167 755.5,187.5C 758.167,187.5 760.833,187.5 763.5,187.5C 763.5,191.5 763.5,195.5 763.5,199.5C 766.167,199.5 768.833,199.5 771.5,199.5C 771.5,200.833 771.5,202.167 771.5,203.5C 775.5,203.5 779.5,203.5 783.5,203.5C 783.5,206.167 783.5,208.833 783.5,211.5C 786.167,211.5 788.833,211.5 791.5,211.5C 791.5,212.833 791.5,214.167 791.5,215.5C 788.833,215.5 786.167,215.5 783.5,215.5C 783.5,216.833 783.5,218.167 783.5,219.5C 786.167,219.5 788.833,219.5 791.5,219.5C 791.5,220.833 791.5,222.167 791.5,223.5C 792.833,223.5 794.167,223.5 795.5,223.5C 795.5,226.167 795.5,228.833 795.5,231.5C 796.833,231.5 798.167,231.5 799.5,231.5C 799.5,234.167 799.5,236.833 799.5,239.5C 802.167,239.5 804.833,239.5 807.5,239.5C 807.5,240.833 807.5,242.167 807.5,243.5C 810.167,243.5 812.833,243.5 815.5,243.5C 815.5,247.5 815.5,251.5 815.5,255.5C 816.833,255.5 818.167,255.5 819.5,255.5C 819.5,258.167 819.5,260.833 819.5,263.5C 823.5,263.5 827.5,263.5 831.5,263.5C 831.5,271.5 831.5,279.5 831.5,287.5C 835.5,287.5 839.5,287.5 843.5,287.5C 843.5,288.833 843.5,290.167 843.5,291.5C 844.833,291.5 846.167,291.5 847.5,291.5C 847.5,292.833 847.5,294.167 847.5,295.5C 848.833,295.5 850.167,295.5 851.5,295.5C 851.5,296.833 851.5,298.167 851.5,299.5C 854.167,299.5 856.833,299.5 859.5,299.5C 859.5,300.833 859.5,302.167 859.5,303.5C 856.833,303.5 854.167,303.5 851.5,303.5C 851.5,308.833 851.5,314.167 851.5,319.5C 854.167,319.5 856.833,319.5 859.5,319.5C 859.5,320.833 859.5,322.167 859.5,323.5C 860.833,323.5 862.167,323.5 863.5,323.5C 863.5,327.5 863.5,331.5 863.5,335.5C 866.167,335.5 868.833,335.5 871.5,335.5C 871.5,343.5 871.5,351.5 871.5,359.5C 872.833,359.5 874.167,359.5 875.5,359.5C 875.5,360.833 875.5,362.167 875.5,363.5C 876.833,363.5 878.167,363.5 879.5,363.5C 879.5,370.167 879.5,376.833 879.5,383.5C 882.167,383.5 884.833,383.5 887.5,383.5C 887.5,394.167 887.5,404.833 887.5,415.5C 888.833,415.5 890.167,415.5 891.5,415.5C 891.5,420.833 891.5,426.167 891.5,431.5C 892.833,431.5 894.167,431.5 895.5,431.5C 895.5,447.5 895.5,463.5 895.5,479.5C 898.167,479.5 900.833,479.5 903.5,479.5C 903.5,484.833 903.5,490.167 903.5,495.5C 899.5,495.5 895.5,495.5 891.5,495.5C 891.5,500.833 891.5,506.167 891.5,511.5C 892.833,511.5 894.167,511.5 895.5,511.5C 895.5,519.5 895.5,527.5 895.5,535.5C 896.833,535.5 898.167,535.5 899.5,535.5C 899.703,537.39 899.037,538.89 897.5,540C 901.333,541.5 901.5,543.333 898,545.5C 897.71,543.956 897.044,542.623 896,541.5C 895.5,542 895,542.5 894.5,543C 895.473,548.407 895.807,553.907 895.5,559.5C 896.833,559.5 898.167,559.5 899.5,559.5C 899.5,560.833 899.5,562.167 899.5,563.5C 898.167,563.5 896.833,563.5 895.5,563.5C 895.5,567.5 895.5,571.5 895.5,575.5C 892.833,575.5 890.167,575.5 887.5,575.5C 887.5,580.833 887.5,586.167 887.5,591.5C 886.167,591.5 884.833,591.5 883.5,591.5C 883.5,596.833 883.5,602.167 883.5,607.5C 882.167,607.5 880.833,607.5 879.5,607.5C 879.5,612.833 879.5,618.167 879.5,623.5C 876.833,623.5 874.167,623.5 871.5,623.5C 871.5,628.833 871.5,634.167 871.5,639.5C 868.833,639.5 866.167,639.5 863.5,639.5C 863.5,644.833 863.5,650.167 863.5,655.5C 860.833,655.5 858.167,655.5 855.5,655.5C 855.5,660.833 855.5,666.167 855.5,671.5C 856.833,671.5 858.167,671.5 859.5,671.5C 859.5,675.5 859.5,679.5 859.5,683.5C 856.833,683.5 854.167,683.5 851.5,683.5C 851.5,684.833 851.5,686.167 851.5,687.5C 850.167,687.5 848.833,687.5 847.5,687.5C 847.5,690.167 847.5,692.833 847.5,695.5C 844.833,695.5 842.167,695.5 839.5,695.5C 839.5,698.167 839.5,700.833 839.5,703.5C 836.833,703.5 834.167,703.5 831.5,703.5C 831.5,708.833 831.5,714.167 831.5,719.5C 826.167,719.5 820.833,719.5 815.5,719.5C 815.5,724.833 815.5,730.167 815.5,735.5C 810.167,735.5 804.833,735.5 799.5,735.5C 799.5,740.833 799.5,746.167 799.5,751.5C 796.833,751.5 794.167,751.5 791.5,751.5C 791.5,756.833 791.5,762.167 791.5,767.5C 788.833,767.5 786.167,767.5 783.5,767.5C 783.5,771.5 783.5,775.5 783.5,779.5C 782.167,779.5 780.833,779.5 779.5,779.5C 779.5,778.167 779.5,776.833 779.5,775.5C 778.167,775.5 776.833,775.5 775.5,775.5C 775.5,776.833 775.5,778.167 775.5,779.5C 774.167,779.5 772.833,779.5 771.5,779.5C 771.5,778.167 771.5,776.833 771.5,775.5C 767.5,775.5 763.5,775.5 759.5,775.5C 759.5,778.167 759.5,780.833 759.5,783.5C 762.167,783.5 764.833,783.5 767.5,783.5C 767.5,784.833 767.5,786.167 767.5,787.5C 766.167,787.5 764.833,787.5 763.5,787.5C 763.5,790.167 763.5,792.833 763.5,795.5C 762.167,795.5 760.833,795.5 759.5,795.5C 759.5,796.833 759.5,798.167 759.5,799.5C 751.5,799.5 743.5,799.5 735.5,799.5C 735.5,802.167 735.5,804.833 735.5,807.5C 730.167,807.5 724.833,807.5 719.5,807.5C 719.5,810.167 719.5,812.833 719.5,815.5C 718.167,815.5 716.833,815.5 715.5,815.5C 715.5,816.833 715.5,818.167 715.5,819.5C 716.833,819.5 718.167,819.5 719.5,819.5C 719.5,820.833 719.5,822.167 719.5,823.5C 716.833,823.5 714.167,823.5 711.5,823.5C 711.5,824.833 711.5,826.167 711.5,827.5C 714.167,827.5 716.833,827.5 719.5,827.5C 719.5,828.833 719.5,830.167 719.5,831.5C 711.5,831.5 703.5,831.5 695.5,831.5C 695.5,836.833 695.5,842.167 695.5,847.5C 692.833,847.5 690.167,847.5 687.5,847.5C 687.5,848.833 687.5,850.167 687.5,851.5C 683.5,851.5 679.5,851.5 675.5,851.5C 675.5,854.167 675.5,856.833 675.5,859.5C 674.167,859.5 672.833,859.5 671.5,859.5C 671.5,858.167 671.5,856.833 671.5,855.5C 666.167,855.5 660.833,855.5 655.5,855.5C 655.5,858.167 655.5,860.833 655.5,863.5C 650.167,863.5 644.833,863.5 639.5,863.5C 639.5,862.167 639.5,860.833 639.5,859.5C 634.167,859.5 628.833,859.5 623.5,859.5C 623.5,864.833 623.5,870.167 623.5,875.5C 620.833,875.5 618.167,875.5 615.5,875.5C 615.5,876.833 615.5,878.167 615.5,879.5C 612.833,879.5 610.167,879.5 607.5,879.5C 607.5,876.833 607.5,874.167 607.5,871.5C 602.167,871.5 596.833,871.5 591.5,871.5C 591.5,874.167 591.5,876.833 591.5,879.5C 580.833,879.5 570.167,879.5 559.5,879.5C 559.5,882.167 559.5,884.833 559.5,887.5C 543.5,887.5 527.5,887.5 511.5,887.5C 511.5,891.5 511.5,895.5 511.5,899.5C 508.833,899.5 506.167,899.5 503.5,899.5C 503.5,898.167 503.5,896.833 503.5,895.5C 502.167,895.5 500.833,895.5 499.5,895.5C 499.5,896.833 499.5,898.167 499.5,899.5C 498.167,899.5 496.833,899.5 495.5,899.5C 495.5,896.833 495.5,894.167 495.5,891.5C 487.5,891.5 479.5,891.5 471.5,891.5C 471.5,892.833 471.5,894.167 471.5,895.5C 470.167,895.5 468.833,895.5 467.5,895.5C 467.5,891.5 467.5,887.5 467.5,883.5C 466.167,883.5 464.833,883.5 463.5,883.5C 463.5,884.833 463.5,886.167 463.5,887.5C 458.167,887.5 452.833,887.5 447.5,887.5C 447.5,884.833 447.5,882.167 447.5,879.5C 439.5,879.5 431.5,879.5 423.5,879.5C 423.5,880.833 423.5,882.167 423.5,883.5C 420.833,883.5 418.167,883.5 415.5,883.5C 415.5,882.167 415.5,880.833 415.5,879.5C 412.833,879.5 410.167,879.5 407.5,879.5C 407.5,880.833 407.5,882.167 407.5,883.5C 406.167,883.5 404.833,883.5 403.5,883.5C 403.5,879.5 403.5,875.5 403.5,871.5C 402.167,871.5 400.833,871.5 399.5,871.5C 399.5,868.833 399.5,866.167 399.5,863.5C 388.833,863.5 378.167,863.5 367.5,863.5C 367.5,860.833 367.5,858.167 367.5,855.5C 360.833,855.5 354.167,855.5 347.5,855.5C 347.5,856.833 347.5,858.167 347.5,859.5C 346.167,859.5 344.833,859.5 343.5,859.5C 343.5,852.833 343.5,846.167 343.5,839.5C 340.833,839.5 338.167,839.5 335.5,839.5C 335.5,842.167 335.5,844.833 335.5,847.5C 334.167,847.5 332.833,847.5 331.5,847.5C 331.5,844.833 331.5,842.167 331.5,839.5C 330.167,839.5 328.833,839.5 327.5,839.5C 327.5,840.833 327.5,842.167 327.5,843.5C 326.167,843.5 324.833,843.5 323.5,843.5C 323.5,842.167 323.5,840.833 323.5,839.5C 322.167,839.5 320.833,839.5 319.5,839.5C 319.5,836.833 319.5,834.167 319.5,831.5C 316.833,831.5 314.167,831.5 311.5,831.5C 311.5,828.833 311.5,826.167 311.5,823.5C 308.833,823.5 306.167,823.5 303.5,823.5C 303.5,820.833 303.5,818.167 303.5,815.5C 298.167,815.5 292.833,815.5 287.5,815.5C 287.5,814.167 287.5,812.833 287.5,811.5C 286.167,811.5 284.833,811.5 283.5,811.5C 283.5,812.833 283.5,814.167 283.5,815.5C 280.833,815.5 278.167,815.5 275.5,815.5C 275.5,814.167 275.5,812.833 275.5,811.5C 274.167,811.5 272.833,811.5 271.5,811.5C 271.5,804.833 271.5,798.167 271.5,791.5C 266.167,791.5 260.833,791.5 255.5,791.5C 255.5,788.833 255.5,786.167 255.5,783.5C 252.833,783.5 250.167,783.5 247.5,783.5C 247.5,782.167 247.5,780.833 247.5,779.5C 246.167,779.5 244.833,779.5 243.5,779.5C 243.5,780.833 243.5,782.167 243.5,783.5C 242.167,783.5 240.833,783.5 239.5,783.5C 239.5,780.833 239.5,778.167 239.5,775.5C 238.167,775.5 236.833,775.5 235.5,775.5C 235.5,774.167 235.5,772.833 235.5,771.5C 231.5,771.5 227.5,771.5 223.5,771.5C 223.5,764.833 223.5,758.167 223.5,751.5C 219.5,751.5 215.5,751.5 211.5,751.5C 211.5,748.833 211.5,746.167 211.5,743.5C 210.167,743.5 208.833,743.5 207.5,743.5C 207.5,740.833 207.5,738.167 207.5,735.5C 204.833,735.5 202.167,735.5 199.5,735.5C 199.5,732.833 199.5,730.167 199.5,727.5C 196.833,727.5 194.167,727.5 191.5,727.5C 191.5,728.833 191.5,730.167 191.5,731.5C 190.167,731.5 188.833,731.5 187.5,731.5C 187.5,724.833 187.5,718.167 187.5,711.5C 184.833,711.5 182.167,711.5 179.5,711.5C 179.5,712.833 179.5,714.167 179.5,715.5C 178.167,715.5 176.833,715.5 175.5,715.5C 175.5,706.167 175.5,696.833 175.5,687.5C 170.167,687.5 164.833,687.5 159.5,687.5C 159.5,682.167 159.5,676.833 159.5,671.5C 158.167,671.5 156.833,671.5 155.5,671.5C 155.5,670.167 155.5,668.833 155.5,667.5C 154.167,667.5 152.833,667.5 151.5,667.5C 151.5,666.167 151.5,664.833 151.5,663.5C 148.833,663.5 146.167,663.5 143.5,663.5C 143.5,655.5 143.5,647.5 143.5,639.5C 139.5,639.5 135.5,639.5 131.5,639.5C 131.5,634.167 131.5,628.833 131.5,623.5C 130.167,623.5 128.833,623.5 127.5,623.5C 127.5,618.167 127.5,612.833 127.5,607.5C 126.167,607.5 124.833,607.5 123.5,607.5C 123.5,600.833 123.5,594.167 123.5,587.5C 122.167,587.5 120.833,587.5 119.5,587.5C 119.5,576.833 119.5,566.167 119.5,555.5C 118.167,555.5 116.833,555.5 115.5,555.5C 115.5,551.167 115.5,546.833 115.5,542.5C 114.5,542.5 113.5,542.5 112.5,542.5C 112.5,540.5 112.5,538.5 112.5,536.5C 113.5,536.5 114.5,536.5 115.5,536.5C 115.5,525.5 115.5,514.5 115.5,503.5C 114.167,503.5 112.833,503.5 111.5,503.5C 111.5,494.167 111.5,484.833 111.5,475.5C 112.833,475.5 114.167,475.5 115.5,475.5C 115.5,470.167 115.5,464.833 115.5,459.5C 116.833,459.5 118.167,459.5 119.5,459.5C 119.5,434.167 119.5,408.833 119.5,383.5C 122.167,383.5 124.833,383.5 127.5,383.5C 127.5,375.5 127.5,367.5 127.5,359.5C 132.833,359.5 138.167,359.5 143.5,359.5C 143.5,351.5 143.5,343.5 143.5,335.5C 144.833,335.5 146.167,335.5 147.5,335.5C 147.5,331.5 147.5,327.5 147.5,323.5C 148.833,323.5 150.167,323.5 151.5,323.5C 151.5,316.833 151.5,310.167 151.5,303.5C 154.167,303.5 156.833,303.5 159.5,303.5C 159.5,298.167 159.5,292.833 159.5,287.5C 164.833,287.5 170.167,287.5 175.5,287.5C 175.5,282.167 175.5,276.833 175.5,271.5C 178.167,271.5 180.833,271.5 183.5,271.5C 183.5,268.833 183.5,266.167 183.5,263.5C 186.167,263.5 188.833,263.5 191.5,263.5C 191.5,260.833 191.5,258.167 191.5,255.5C 192.833,255.5 194.167,255.5 195.5,255.5C 195.5,252.833 195.5,250.167 195.5,247.5C 199.5,247.5 203.5,247.5 207.5,247.5C 207.5,242.167 207.5,236.833 207.5,231.5C 214.167,231.5 220.833,231.5 227.5,231.5C 227.5,228.833 227.5,226.167 227.5,223.5C 228.833,223.5 230.167,223.5 231.5,223.5C 231.5,220.833 231.5,218.167 231.5,215.5C 234.167,215.5 236.833,215.5 239.5,215.5C 239.5,212.833 239.5,210.167 239.5,207.5C 242.167,207.5 244.833,207.5 247.5,207.5C 247.5,204.833 247.5,202.167 247.5,199.5C 250.167,199.5 252.833,199.5 255.5,199.5C 255.5,196.833 255.5,194.167 255.5,191.5C 260.833,191.5 266.167,191.5 271.5,191.5C 271.5,188.833 271.5,186.167 271.5,183.5C 274.167,183.5 276.833,183.5 279.5,183.5C 279.5,182.167 279.5,180.833 279.5,179.5C 280.833,179.5 282.167,179.5 283.5,179.5C 283.5,178.167 283.5,176.833 283.5,175.5C 286.167,175.5 288.833,175.5 291.5,175.5C 291.5,174.167 291.5,172.833 291.5,171.5C 295.5,171.5 299.5,171.5 303.5,171.5C 303.5,170.167 303.5,168.833 303.5,167.5C 306.167,167.5 308.833,167.5 311.5,167.5C 311.5,166.167 311.5,164.833 311.5,163.5C 312.833,163.5 314.167,163.5 315.5,163.5C 315.5,162.167 315.5,160.833 315.5,159.5C 316.833,159.5 318.167,159.5 319.5,159.5C 319.5,154.167 319.5,148.833 319.5,143.5C 326.167,143.5 332.833,143.5 339.5,143.5C 339.5,142.167 339.5,140.833 339.5,139.5C 343.5,139.5 347.5,139.5 351.5,139.5C 351.5,135.5 351.5,131.5 351.5,127.5C 354.167,127.5 356.833,127.5 359.5,127.5C 359.5,126.167 359.5,124.833 359.5,123.5C 362.167,123.5 364.833,123.5 367.5,123.5C 367.5,122.167 367.5,120.833 367.5,119.5C 372.833,119.5 378.167,119.5 383.5,119.5C 383.5,116.833 383.5,114.167 383.5,111.5C 395.5,111.5 407.5,111.5 419.5,111.5C 419.5,110.167 419.5,108.833 419.5,107.5C 435.5,107.5 451.5,107.5 467.5,107.5C 467.5,104.833 467.5,102.167 467.5,99.5C 496.833,99.5 526.167,99.5 555.5,99.5C 555.5,98.1667 555.5,96.8333 555.5,95.5 Z"/></g>
<g><path style="opacity:1" fill="#f5f5f5" d="M 463.5,199.5 C 466.167,199.5 468.833,199.5 471.5,199.5C 471.5,202.167 471.5,204.833 471.5,207.5C 496.833,207.5 522.167,207.5 547.5,207.5C 547.5,208.833 547.5,210.167 547.5,211.5C 551.5,211.5 555.5,211.5 559.5,211.5C 559.5,212.833 559.5,214.167 559.5,215.5C 564.833,215.5 570.167,215.5 575.5,215.5C 575.5,216.833 575.5,218.167 575.5,219.5C 576.833,219.5 578.167,219.5 579.5,219.5C 579.5,218.167 579.5,216.833 579.5,215.5C 582.167,215.5 584.833,215.5 587.5,215.5C 587.5,216.833 587.5,218.167 587.5,219.5C 588.5,219.5 589.5,219.5 590.5,219.5C 589.824,215.51 591.49,213.843 595.5,214.5C 599.51,213.843 601.176,215.51 600.5,219.5C 602.833,219.5 605.167,219.5 607.5,219.5C 607.5,218.167 607.5,216.833 607.5,215.5C 610.167,215.5 612.833,215.5 615.5,215.5C 615.5,219.5 615.5,223.5 615.5,227.5C 620.833,227.5 626.167,227.5 631.5,227.5C 631.5,223.5 631.5,219.5 631.5,215.5C 634.167,215.5 636.833,215.5 639.5,215.5C 639.5,223.5 639.5,231.5 639.5,239.5C 644.833,239.5 650.167,239.5 655.5,239.5C 655.5,240.833 655.5,242.167 655.5,243.5C 658.167,243.5 660.833,243.5 663.5,243.5C 663.5,244.833 663.5,246.167 663.5,247.5C 664.833,247.5 666.167,247.5 667.5,247.5C 667.5,250.167 667.5,252.833 667.5,255.5C 670.167,255.5 672.833,255.5 675.5,255.5C 675.5,256.833 675.5,258.167 675.5,259.5C 678.167,259.5 680.833,259.5 683.5,259.5C 683.5,260.833 683.5,262.167 683.5,263.5C 687.5,263.5 691.5,263.5 695.5,263.5C 695.5,267.5 695.5,271.5 695.5,275.5C 698.167,275.5 700.833,275.5 703.5,275.5C 703.5,276.833 703.5,278.167 703.5,279.5C 706.167,279.5 708.833,279.5 711.5,279.5C 711.5,284.833 711.5,290.167 711.5,295.5C 716.833,295.5 722.167,295.5 727.5,295.5C 727.5,299.5 727.5,303.5 727.5,307.5C 730.167,307.5 732.833,307.5 735.5,307.5C 735.5,311.5 735.5,315.5 735.5,319.5C 738.167,319.5 740.833,319.5 743.5,319.5C 743.5,322.167 743.5,324.833 743.5,327.5C 746.167,327.5 748.833,327.5 751.5,327.5C 751.5,335.5 751.5,343.5 751.5,351.5C 754.167,351.5 756.833,351.5 759.5,351.5C 759.5,356.833 759.5,362.167 759.5,367.5C 762.167,367.5 764.833,367.5 767.5,367.5C 767.5,372.833 767.5,378.167 767.5,383.5C 770.167,383.5 772.833,383.5 775.5,383.5C 775.5,391.5 775.5,399.5 775.5,407.5C 778.167,407.5 780.833,407.5 783.5,407.5C 783.5,410.167 783.5,412.833 783.5,415.5C 786.167,415.5 788.833,415.5 791.5,415.5C 791.5,418.167 791.5,420.833 791.5,423.5C 794.167,423.5 796.833,423.5 799.5,423.5C 799.5,426.167 799.5,428.833 799.5,431.5C 796.833,431.5 794.167,431.5 791.5,431.5C 791.5,436.833 791.5,442.167 791.5,447.5C 792.833,447.5 794.167,447.5 795.5,447.5C 795.5,448.833 795.5,450.167 795.5,451.5C 794.167,451.5 792.833,451.5 791.5,451.5C 791.5,452.833 791.5,454.167 791.5,455.5C 792.833,455.5 794.167,455.5 795.5,455.5C 795.5,456.833 795.5,458.167 795.5,459.5C 794.167,459.5 792.833,459.5 791.5,459.5C 791.5,460.833 791.5,462.167 791.5,463.5C 792.833,463.5 794.167,463.5 795.5,463.5C 795.5,470.167 795.5,476.833 795.5,483.5C 796.833,483.5 798.167,483.5 799.5,483.5C 799.5,487.5 799.5,491.5 799.5,495.5C 802.167,495.5 804.833,495.5 807.5,495.5C 807.5,498.167 807.5,500.833 807.5,503.5C 804.833,503.5 802.167,503.5 799.5,503.5C 799.5,506.167 799.5,508.833 799.5,511.5C 796.833,511.5 794.167,511.5 791.5,511.5C 791.5,519.5 791.5,527.5 791.5,535.5C 788.833,535.5 786.167,535.5 783.5,535.5C 783.5,548.833 783.5,562.167 783.5,575.5C 780.833,575.5 778.167,575.5 775.5,575.5C 775.5,580.833 775.5,586.167 775.5,591.5C 778.167,591.5 780.833,591.5 783.5,591.5C 783.5,594.167 783.5,596.833 783.5,599.5C 786.167,599.5 788.833,599.5 791.5,599.5C 791.5,602.167 791.5,604.833 791.5,607.5C 788.833,607.5 786.167,607.5 783.5,607.5C 783.5,606.167 783.5,604.833 783.5,603.5C 780.833,603.5 778.167,603.5 775.5,603.5C 775.5,604.833 775.5,606.167 775.5,607.5C 774.167,607.5 772.833,607.5 771.5,607.5C 771.5,608.833 771.5,610.167 771.5,611.5C 770.167,611.5 768.833,611.5 767.5,611.5C 767.5,610.167 767.5,608.833 767.5,607.5C 766.167,607.5 764.833,607.5 763.5,607.5C 763.5,615.5 763.5,623.5 763.5,631.5C 759.5,631.5 755.5,631.5 751.5,631.5C 751.5,634.167 751.5,636.833 751.5,639.5C 748.833,639.5 746.167,639.5 743.5,639.5C 743.5,641.833 743.5,644.167 743.5,646.5C 751.672,644.505 754.506,647.505 752,655.5C 746.907,656.31 741.741,656.31 736.5,655.5C 736.5,658.167 736.5,660.833 736.5,663.5C 738.833,663.5 741.167,663.5 743.5,663.5C 743.5,666.167 743.5,668.833 743.5,671.5C 738.167,671.5 732.833,671.5 727.5,671.5C 727.5,674.167 727.5,676.833 727.5,679.5C 724.833,679.5 722.167,679.5 719.5,679.5C 719.5,682.167 719.5,684.833 719.5,687.5C 716.833,687.5 714.167,687.5 711.5,687.5C 712.002,692.838 712.169,698.172 712,703.5C 709.263,704.61 706.429,704.777 703.5,704C 702.62,702.644 702.286,701.144 702.5,699.5C 700.167,699.5 697.833,699.5 695.5,699.5C 695.5,700.833 695.5,702.167 695.5,703.5C 692.833,703.5 690.167,703.5 687.5,703.5C 687.5,706.167 687.5,708.833 687.5,711.5C 686.167,711.5 684.833,711.5 683.5,711.5C 683.5,714.167 683.5,716.833 683.5,719.5C 684.833,719.5 686.167,719.5 687.5,719.5C 687.5,722.167 687.5,724.833 687.5,727.5C 686.167,727.5 684.833,727.5 683.5,727.5C 683.5,726.167 683.5,724.833 683.5,723.5C 680.833,723.5 678.167,723.5 675.5,723.5C 675.5,724.833 675.5,726.167 675.5,727.5C 676.833,727.5 678.167,727.5 679.5,727.5C 679.5,730.167 679.5,732.833 679.5,735.5C 676.833,735.5 674.167,735.5 671.5,735.5C 671.5,732.833 671.5,730.167 671.5,727.5C 663.5,727.5 655.5,727.5 647.5,727.5C 647.5,730.167 647.5,732.833 647.5,735.5C 644.833,735.5 642.167,735.5 639.5,735.5C 639.5,736.833 639.5,738.167 639.5,739.5C 638.167,739.5 636.833,739.5 635.5,739.5C 635.5,742.167 635.5,744.833 635.5,747.5C 632.833,747.5 630.167,747.5 627.5,747.5C 627.5,748.833 627.5,750.167 627.5,751.5C 626.167,751.5 624.833,751.5 623.5,751.5C 623.5,752.833 623.5,754.167 623.5,755.5C 618.167,755.5 612.833,755.5 607.5,755.5C 607.5,756.833 607.5,758.167 607.5,759.5C 604.833,759.5 602.167,759.5 599.5,759.5C 599.5,762.167 599.5,764.833 599.5,767.5C 594.167,767.5 588.833,767.5 583.5,767.5C 583.5,770.167 583.5,772.833 583.5,775.5C 575.5,775.5 567.5,775.5 559.5,775.5C 559.5,778.167 559.5,780.833 559.5,783.5C 556.833,783.5 554.167,783.5 551.5,783.5C 551.5,786.167 551.5,788.833 551.5,791.5C 548.833,791.5 546.167,791.5 543.5,791.5C 543.5,788.833 543.5,786.167 543.5,783.5C 538.167,783.5 532.833,783.5 527.5,783.5C 527.5,780.833 527.5,778.167 527.5,775.5C 526.167,775.5 524.833,775.5 523.5,775.5C 523.5,776.833 523.5,778.167 523.5,779.5C 520.833,779.5 518.167,779.5 515.5,779.5C 515.5,776.833 515.5,774.167 515.5,771.5C 514.167,771.5 512.833,771.5 511.5,771.5C 511.5,772.833 511.5,774.167 511.5,775.5C 506.167,775.5 500.833,775.5 495.5,775.5C 495.5,772.833 495.5,770.167 495.5,767.5C 490.167,767.5 484.833,767.5 479.5,767.5C 479.5,770.167 479.5,772.833 479.5,775.5C 475.5,775.5 471.5,775.5 467.5,775.5C 467.5,772.833 467.5,770.167 467.5,767.5C 460.833,767.5 454.167,767.5 447.5,767.5C 447.5,766.167 447.5,764.833 447.5,763.5C 446.167,763.5 444.833,763.5 443.5,763.5C 443.5,762.167 443.5,760.833 443.5,759.5C 434.167,759.5 424.833,759.5 415.5,759.5C 415.5,755.5 415.5,751.5 415.5,747.5C 410.167,747.5 404.833,747.5 399.5,747.5C 399.5,748.833 399.5,750.167 399.5,751.5C 396.833,751.5 394.167,751.5 391.5,751.5C 391.5,750.167 391.5,748.833 391.5,747.5C 390.167,747.5 388.833,747.5 387.5,747.5C 387.5,746.167 387.5,744.833 387.5,743.5C 383.5,743.5 379.5,743.5 375.5,743.5C 375.5,746.167 375.5,748.833 375.5,751.5C 372.833,751.5 370.167,751.5 367.5,751.5C 367.5,748.833 367.5,746.167 367.5,743.5C 364.833,743.5 362.167,743.5 359.5,743.5C 359.5,740.833 359.5,738.167 359.5,735.5C 358.167,735.5 356.833,735.5 355.5,735.5C 355.5,732.833 355.5,730.167 355.5,727.5C 354.167,727.5 352.833,727.5 351.5,727.5C 351.5,730.167 351.5,732.833 351.5,735.5C 348.833,735.5 346.167,735.5 343.5,735.5C 343.5,730.167 343.5,724.833 343.5,719.5C 338.167,719.5 332.833,719.5 327.5,719.5C 327.5,714.167 327.5,708.833 327.5,703.5C 323.5,703.5 319.5,703.5 315.5,703.5C 315.5,702.167 315.5,700.833 315.5,699.5C 312.833,699.5 310.167,699.5 307.5,699.5C 307.5,696.833 307.5,694.167 307.5,691.5C 306.167,691.5 304.833,691.5 303.5,691.5C 303.5,690.167 303.5,688.833 303.5,687.5C 299.5,687.5 295.5,687.5 291.5,687.5C 291.5,686.167 291.5,684.833 291.5,683.5C 290.167,683.5 288.833,683.5 287.5,683.5C 287.5,679.5 287.5,675.5 287.5,671.5C 282.167,671.5 276.833,671.5 271.5,671.5C 271.5,666.167 271.5,660.833 271.5,655.5C 268.833,655.5 266.167,655.5 263.5,655.5C 263.5,650.167 263.5,644.833 263.5,639.5C 258.167,639.5 252.833,639.5 247.5,639.5C 247.5,636.833 247.5,634.167 247.5,631.5C 248.833,631.5 250.167,631.5 251.5,631.5C 251.5,628.833 251.5,626.167 251.5,623.5C 250.167,623.5 248.833,623.5 247.5,623.5C 247.5,624.833 247.5,626.167 247.5,627.5C 246.167,627.5 244.833,627.5 243.5,627.5C 243.5,624.833 243.5,622.167 243.5,619.5C 242.167,619.5 240.833,619.5 239.5,619.5C 239.5,610.167 239.5,600.833 239.5,591.5C 236.833,591.5 234.167,591.5 231.5,591.5C 231.5,583.5 231.5,575.5 231.5,567.5C 228.833,567.5 226.167,567.5 223.5,567.5C 223.5,564.833 223.5,562.167 223.5,559.5C 220.833,559.5 218.167,559.5 215.5,559.5C 215.5,556.833 215.5,554.167 215.5,551.5C 212.833,551.5 210.167,551.5 207.5,551.5C 207.5,548.833 207.5,546.167 207.5,543.5C 210.167,543.5 212.833,543.5 215.5,543.5C 215.5,540.833 215.5,538.167 215.5,535.5C 218.167,535.5 220.833,535.5 223.5,535.5C 223.5,532.833 223.5,530.167 223.5,527.5C 218.167,527.5 212.833,527.5 207.5,527.5C 207.5,524.833 207.5,522.167 207.5,519.5C 210.167,519.5 212.833,519.5 215.5,519.5C 215.5,516.833 215.5,514.167 215.5,511.5C 216.833,511.5 218.167,511.5 219.5,511.5C 219.5,506.167 219.5,500.833 219.5,495.5C 220.833,495.5 222.167,495.5 223.5,495.5C 223.5,490.167 223.5,484.833 223.5,479.5C 220.833,479.5 218.167,479.5 215.5,479.5C 215.5,476.833 215.5,474.167 215.5,471.5C 218.167,471.5 220.833,471.5 223.5,471.5C 223.5,463.5 223.5,455.5 223.5,447.5C 224.833,447.5 226.167,447.5 227.5,447.5C 227.5,442.167 227.5,436.833 227.5,431.5C 226.167,431.5 224.833,431.5 223.5,431.5C 223.5,419.5 223.5,407.5 223.5,395.5C 224.833,395.5 226.167,395.5 227.5,395.5C 227.5,394.167 227.5,392.833 227.5,391.5C 226.167,391.5 224.833,391.5 223.5,391.5C 223.5,388.833 223.5,386.167 223.5,383.5C 226.167,383.5 228.833,383.5 231.5,383.5C 231.5,388.833 231.5,394.167 231.5,399.5C 235.5,399.5 239.5,399.5 243.5,399.5C 243.5,394.167 243.5,388.833 243.5,383.5C 242.167,383.5 240.833,383.5 239.5,383.5C 239.5,380.833 239.5,378.167 239.5,375.5C 240.833,375.5 242.167,375.5 243.5,375.5C 243.5,374.167 243.5,372.833 243.5,371.5C 246.167,371.5 248.833,371.5 251.5,371.5C 251.5,364.833 251.5,358.167 251.5,351.5C 255.5,351.5 259.5,351.5 263.5,351.5C 263.5,346.167 263.5,340.833 263.5,335.5C 266.167,335.5 268.833,335.5 271.5,335.5C 271.5,332.833 271.5,330.167 271.5,327.5C 272.833,327.5 274.167,327.5 275.5,327.5C 275.5,326.167 275.5,324.833 275.5,323.5C 276.833,323.5 278.167,323.5 279.5,323.5C 279.5,319.5 279.5,315.5 279.5,311.5C 276.833,311.5 274.167,311.5 271.5,311.5C 271.5,308.833 271.5,306.167 271.5,303.5C 276.833,303.5 282.167,303.5 287.5,303.5C 287.5,300.833 287.5,298.167 287.5,295.5C 292.833,295.5 298.167,295.5 303.5,295.5C 303.5,290.167 303.5,284.833 303.5,279.5C 306.167,279.5 308.833,279.5 311.5,279.5C 311.5,278.167 311.5,276.833 311.5,275.5C 314.167,275.5 316.833,275.5 319.5,275.5C 319.5,271.5 319.5,267.5 319.5,263.5C 324.833,263.5 330.167,263.5 335.5,263.5C 335.5,260.833 335.5,258.167 335.5,255.5C 338.167,255.5 340.833,255.5 343.5,255.5C 343.5,252.833 343.5,250.167 343.5,247.5C 348.833,247.5 354.167,247.5 359.5,247.5C 359.5,244.833 359.5,242.167 359.5,239.5C 367.5,239.5 375.5,239.5 383.5,239.5C 383.5,236.833 383.5,234.167 383.5,231.5C 386.167,231.5 388.833,231.5 391.5,231.5C 391.5,228.833 391.5,226.167 391.5,223.5C 394.167,223.5 396.833,223.5 399.5,223.5C 399.5,220.833 399.5,218.167 399.5,215.5C 402.167,215.5 404.833,215.5 407.5,215.5C 407.5,218.167 407.5,220.833 407.5,223.5C 415.5,223.5 423.5,223.5 431.5,223.5C 431.5,222.167 431.5,220.833 431.5,219.5C 432.833,219.5 434.167,219.5 435.5,219.5C 435.5,216.833 435.5,214.167 435.5,211.5C 438.167,211.5 440.833,211.5 443.5,211.5C 443.5,210.167 443.5,208.833 443.5,207.5C 450.167,207.5 456.833,207.5 463.5,207.5C 463.5,204.833 463.5,202.167 463.5,199.5 Z"/></g>
<g><path style="opacity:1" fill="#111111" d="M 530.5,232.5 C 542.892,230.989 548.892,236.322 548.5,248.5C 549.978,248.762 551.311,248.429 552.5,247.5C 557.668,240.01 564.335,238.51 572.5,243C 573.622,245.124 575.122,246.957 577,248.5C 577.497,251.146 577.664,253.813 577.5,256.5C 583.142,255.522 588.809,255.022 594.5,255C 600.786,258.071 602.786,262.904 600.5,269.5C 599.713,268.758 599.047,267.925 598.5,267C 597.668,266.312 597.002,266.479 596.5,267.5C 598.041,269.204 599.375,271.037 600.5,273C 598.825,276.022 596.825,278.855 594.5,281.5C 592.815,279.331 591.148,277.164 589.5,275C 588.167,274.667 586.833,274.333 585.5,274C 583.362,271.629 580.862,269.796 578,268.5C 577.907,265.993 577.074,263.826 575.5,262C 563.934,261.137 552.934,258.47 542.5,254C 538.179,253.501 533.846,253.334 529.5,253.5C 529.205,246.412 529.538,239.412 530.5,232.5 Z"/></g>
<g><path style="opacity:1" fill="#141414" d="M 490.5,232.5 C 492.903,232.393 494.736,233.393 496,235.5C 500.32,249.065 495.486,255.232 481.5,254C 480.333,252.833 479.167,251.667 478,250.5C 477.575,246.131 477.908,241.797 479,237.5C 479.833,236 481,234.833 482.5,234C 485.365,233.817 488.031,233.317 490.5,232.5 Z"/></g>
<g><path style="opacity:1" fill="#101010" d="M 460.5,239.5 C 471.349,238.847 476.182,243.847 475,254.5C 469.959,261.593 463.126,264.093 454.5,262C 447.563,254.63 447.897,247.63 455.5,241C 457.382,240.802 459.048,240.302 460.5,239.5 Z"/></g>
<g><path style="opacity:1" fill="#101010" d="M 430.5,273.5 C 426.315,270.634 424.315,266.634 424.5,261.5C 426.628,256.509 430.461,253.843 436,253.5C 440.103,254.285 443.77,255.952 447,258.5C 449.003,265.106 447.17,270.272 441.5,274C 437.745,274.755 434.078,274.589 430.5,273.5 Z"/></g>
<g><path style="opacity:1" fill="#444543" d="M 424.5,261.5 C 424.315,266.634 426.315,270.634 430.5,273.5C 428.228,273.911 427.895,275.078 429.5,277C 429.361,278.301 428.695,279.134 427.5,279.5C 427.785,277.712 427.452,276.045 426.5,274.5C 425.672,275.415 424.672,276.081 423.5,276.5C 422.02,275.568 420.687,275.568 419.5,276.5C 419.684,273.827 420.851,273.16 423,274.5C 423.175,269.981 423.675,265.647 424.5,261.5 Z"/></g>
<g><path style="opacity:1" fill="#141514" d="M 427.5,279.5 C 427.167,280.5 426.5,281.167 425.5,281.5C 423.766,283.09 422.6,285.09 422,287.5C 420.491,288.09 418.991,288.756 417.5,289.5C 416.289,290.72 416.289,291.887 417.5,293C 414.744,295.753 411.411,297.253 407.5,297.5C 404.197,294.688 401.864,291.188 400.5,287C 401.945,282.971 403.945,279.304 406.5,276C 410.871,275.371 415.204,275.537 419.5,276.5C 420.687,275.568 422.02,275.568 423.5,276.5C 424.672,276.081 425.672,275.415 426.5,274.5C 427.452,276.045 427.785,277.712 427.5,279.5 Z"/></g>
<g><path style="opacity:1" fill="#0a0b0a" d="M 611.5,275.5 C 615.818,276.734 619.985,278.401 624,280.5C 624.977,285.734 624.31,290.734 622,295.5C 620.208,297.707 617.874,299.041 615,299.5C 612.493,297.845 609.659,297.011 606.5,297C 605.887,294.853 605.221,292.686 604.5,290.5C 598.263,286.248 598.263,281.748 604.5,277C 605.803,276.79 607.136,276.957 608.5,277.5C 610.038,277.547 611.038,276.88 611.5,275.5 Z"/></g>
<g><path style="opacity:1" fill="#363635" d="M 425.5,281.5 C 426.398,282.158 427.398,282.824 428.5,283.5C 422.993,289.877 417.993,296.544 413.5,303.5C 413.5,302.5 413.5,301.5 413.5,300.5C 411.379,300.325 409.379,300.659 407.5,301.5C 407.5,300.167 407.5,298.833 407.5,297.5C 411.411,297.253 414.744,295.753 417.5,293C 416.289,291.887 416.289,290.72 417.5,289.5C 418.991,288.756 420.491,288.09 422,287.5C 422.6,285.09 423.766,283.09 425.5,281.5 Z"/></g>
<g><path style="opacity:1" fill="#070606" d="M 611.5,364.5 C 615.336,376.519 617.336,388.852 617.5,401.5C 609.5,401.5 601.5,401.5 593.5,401.5C 593.5,393.167 593.5,384.833 593.5,376.5C 572.167,376.5 550.833,376.5 529.5,376.5C 529.5,378.833 529.5,381.167 529.5,383.5C 529.5,389.5 529.5,395.5 529.5,401.5C 518.581,400.523 507.581,400.19 496.5,400.5C 496.5,394.167 496.5,387.833 496.5,381.5C 496.5,379.833 496.5,378.167 496.5,376.5C 475.327,376.169 454.327,376.503 433.5,377.5C 432.508,385.316 432.174,393.316 432.5,401.5C 424.5,401.5 416.5,401.5 408.5,401.5C 408.348,378.508 415.015,357.841 428.5,339.5C 446.6,313.11 471.6,297.943 503.5,294C 548.272,293.137 582.106,311.97 605,350.5C 607.172,355.244 609.339,359.911 611.5,364.5 Z"/></g>
<g><path style="opacity:1" fill="#101010" d="M 413.5,303.5 C 410.854,308.372 408.354,313.372 406,318.5C 405.51,319.793 405.343,321.127 405.5,322.5C 403.5,323.833 401.833,325.5 400.5,327.5C 396.723,324.222 392.556,321.556 388,319.5C 385.3,313.733 386.467,308.9 391.5,305C 396.501,304.749 401.501,304.916 406.5,305.5C 406.232,303.901 406.566,302.568 407.5,301.5C 409.379,300.659 411.379,300.325 413.5,300.5C 413.5,301.5 413.5,302.5 413.5,303.5 Z"/></g>
<g><path style="opacity:1" fill="#0c0c0c" d="M 625.5,325.5 C 620.798,324.131 617.798,321.131 616.5,316.5C 616.374,312.077 615.707,307.744 614.5,303.5C 617.257,302.018 619.59,302.518 621.5,305C 625.882,305.457 630.216,305.457 634.5,305C 639.211,309.14 640.711,314.306 639,320.5C 635.508,324.611 631.008,326.278 625.5,325.5 Z"/></g>
<g><path style="opacity:1" fill="#fbfbfa" d="M 428.5,339.5 C 415.015,357.841 408.348,378.508 408.5,401.5C 408.735,408.354 409.402,415.021 410.5,421.5C 410.336,424.187 410.503,426.854 411,429.5C 422.578,463.742 445.078,487.575 478.5,501C 481.817,501.498 485.15,501.665 488.5,501.5C 497.441,504.587 506.774,505.92 516.5,505.5C 520.833,505.333 525.167,505.167 529.5,505C 532.797,504.796 535.797,503.963 538.5,502.5C 546.675,500.72 554.675,498.22 562.5,495C 583.691,482.316 599.358,464.816 609.5,442.5C 615.459,429.633 618.125,415.966 617.5,401.5C 617.336,388.852 615.336,376.519 611.5,364.5C 611.387,352.69 611.387,340.357 611.5,327.5C 610.167,327.5 608.833,327.5 607.5,327.5C 607.5,324.833 607.5,322.167 607.5,319.5C 608.833,319.5 610.167,319.5 611.5,319.5C 611.336,316.813 611.503,314.146 612,311.5C 612.741,312.641 613.575,312.641 614.5,311.5C 615.17,313.291 615.837,314.958 616.5,316.5C 617.798,321.131 620.798,324.131 625.5,325.5C 628.719,325.859 631.553,327.192 634,329.5C 635.676,328.939 637.009,327.939 638,326.5C 638.5,327.5 639,328.5 639.5,329.5C 637.031,330.168 634.698,330.835 632.5,331.5C 628.91,331.544 626.41,333.211 625,336.5C 623.129,348.617 628.296,353.117 640.5,350C 642.79,348.223 644.457,346.056 645.5,343.5C 646.239,343.369 646.906,343.536 647.5,344C 647.507,345.583 647.174,347.249 646.5,349C 648.221,350.437 649.721,349.937 651,347.5C 651.494,345.866 651.66,344.199 651.5,342.5C 650.5,342.5 649.5,342.5 648.5,342.5C 648.52,340.857 647.853,339.524 646.5,338.5C 646.833,337.833 647.167,337.167 647.5,336.5C 650.086,335.52 652.753,335.187 655.5,335.5C 655.5,340.833 655.5,346.167 655.5,351.5C 660.833,351.5 666.167,351.5 671.5,351.5C 671.5,354.167 671.5,356.833 671.5,359.5C 674.167,359.5 676.833,359.5 679.5,359.5C 679.5,362.167 679.5,364.833 679.5,367.5C 682.167,367.5 684.833,367.5 687.5,367.5C 687.5,370.167 687.5,372.833 687.5,375.5C 690.167,375.5 692.833,375.5 695.5,375.5C 695.5,378.167 695.5,380.833 695.5,383.5C 692.833,383.5 690.167,383.5 687.5,383.5C 687.334,388.511 687.501,393.511 688,398.5C 688.495,396.527 688.662,394.527 688.5,392.5C 690.5,392.5 692.5,392.5 694.5,392.5C 694.338,394.527 694.505,396.527 695,398.5C 696.356,399.38 697.856,399.714 699.5,399.5C 699.5,404.833 699.5,410.167 699.5,415.5C 703.5,415.5 707.5,415.5 711.5,415.5C 711.663,420.547 711.329,425.547 710.5,430.5C 708.194,430.993 705.861,431.326 703.5,431.5C 703.5,434.167 703.5,436.833 703.5,439.5C 706.167,439.5 708.833,439.5 711.5,439.5C 711.5,442.167 711.5,444.833 711.5,447.5C 710.167,447.5 708.833,447.5 707.5,447.5C 707.5,452.833 707.5,458.167 707.5,463.5C 708.833,463.5 710.167,463.5 711.5,463.5C 711.387,468.518 711.053,473.518 710.5,478.5C 709.448,478.351 708.448,478.517 707.5,479C 710.146,479.497 712.813,479.664 715.5,479.5C 715.5,484.833 715.5,490.167 715.5,495.5C 714.167,495.5 712.833,495.5 711.5,495.5C 711.5,506.167 711.5,516.833 711.5,527.5C 708.833,527.5 706.167,527.5 703.5,527.5C 703.5,540.833 703.5,554.167 703.5,567.5C 697.459,567.253 691.459,567.586 685.5,568.5C 682.795,567.432 681.295,565.432 681,562.5C 680.329,561.748 679.496,561.414 678.5,561.5C 670.444,545.706 658.444,542.039 642.5,550.5C 636.209,556.864 633.709,564.531 635,573.5C 641.741,588.308 647.907,603.308 653.5,618.5C 652.949,621.957 650.949,623.624 647.5,623.5C 647.5,628.833 647.5,634.167 647.5,639.5C 644.833,639.5 642.167,639.5 639.5,639.5C 639.337,641.857 639.503,644.19 640,646.5C 640.495,644.527 640.662,642.527 640.5,640.5C 642.5,640.5 644.5,640.5 646.5,640.5C 647.053,645.482 647.387,650.482 647.5,655.5C 642.167,655.5 636.833,655.5 631.5,655.5C 631.149,657.869 630.982,660.203 631,662.5C 633.719,663.444 636.552,663.777 639.5,663.5C 639.5,666.167 639.5,668.833 639.5,671.5C 634.167,671.5 628.833,671.5 623.5,671.5C 623.988,674.711 623.321,677.544 621.5,680C 624.908,685.946 624.075,691.112 619,695.5C 618.829,688.321 618.329,681.321 617.5,674.5C 617.5,662.5 617.5,650.5 617.5,638.5C 582.663,638.168 547.996,638.502 513.5,639.5C 511.973,639.427 510.973,640.094 510.5,641.5C 493.88,651.606 476.88,661.106 459.5,670C 449.838,677.481 439.505,683.981 428.5,689.5C 425.142,689.33 422.142,690.663 419.5,693.5C 417.833,692.167 416.167,692.167 414.5,693.5C 414.167,691.167 413.833,688.833 413.5,686.5C 413.296,683.094 413.962,679.928 415.5,677C 412.843,676.825 410.176,676.992 407.5,677.5C 407.649,678.552 407.483,679.552 407,680.5C 404.699,679.133 402.199,678.466 399.5,678.5C 399.5,673.5 399.5,668.5 399.5,663.5C 394.167,663.5 388.833,663.5 383.5,663.5C 383.5,660.833 383.5,658.167 383.5,655.5C 380.813,655.336 378.146,655.503 375.5,656C 374.577,658.041 374.244,660.208 374.5,662.5C 372.5,662.5 370.5,662.5 368.5,662.5C 367.947,657.518 367.613,652.518 367.5,647.5C 364.833,647.5 362.167,647.5 359.5,647.5C 359.335,644.482 359.502,641.482 360,638.5C 361.229,636.053 362.729,635.887 364.5,638C 364.167,638.333 363.833,638.667 363.5,639C 364.793,639.49 366.127,639.657 367.5,639.5C 367.5,638.167 367.5,636.833 367.5,635.5C 366.448,635.649 365.448,635.483 364.5,635C 367.442,632.639 368.109,629.806 366.5,626.5C 373.054,609.175 380.387,592.175 388.5,575.5C 390.775,562.218 385.775,552.718 373.5,547C 362.162,543.72 353.329,546.887 347,556.5C 342.763,565.631 338.596,574.631 334.5,583.5C 333.504,583.414 332.671,583.748 332,584.5C 331.506,582.866 331.34,581.199 331.5,579.5C 327.5,579.5 323.5,579.5 319.5,579.5C 319.714,577.856 319.38,576.356 318.5,575C 312.195,575.189 305.862,575.355 299.5,575.5C 299.5,572.833 299.5,570.167 299.5,567.5C 303.5,567.5 307.5,567.5 311.5,567.5C 311.666,562.489 311.499,557.489 311,552.5C 310.505,554.473 310.338,556.473 310.5,558.5C 308.5,558.5 306.5,558.5 304.5,558.5C 303.337,551.164 303.17,543.831 304,536.5C 301.865,534.722 299.365,534.055 296.5,534.5C 295.947,529.518 295.613,524.518 295.5,519.5C 298.167,519.5 300.833,519.5 303.5,519.5C 303.337,521.857 303.503,524.19 304,526.5C 305.011,527.337 306.178,527.67 307.5,527.5C 307.5,523.5 307.5,519.5 307.5,515.5C 306.167,515.5 304.833,515.5 303.5,515.5C 303.666,508.825 303.5,502.158 303,495.5C 300.959,494.577 298.792,494.244 296.5,494.5C 296.5,492.5 296.5,490.5 296.5,488.5C 298.604,488.799 300.604,488.466 302.5,487.5C 303.635,479.549 303.802,471.549 303,463.5C 300.959,462.577 298.792,462.244 296.5,462.5C 296.5,460.5 296.5,458.5 296.5,456.5C 298.792,456.756 300.959,456.423 303,455.5C 303.497,452.854 303.664,450.187 303.5,447.5C 306.167,447.5 308.833,447.5 311.5,447.5C 311.5,444.833 311.5,442.167 311.5,439.5C 308.833,439.5 306.167,439.5 303.5,439.5C 303.5,436.833 303.5,434.167 303.5,431.5C 306.167,431.5 308.833,431.5 311.5,431.5C 311.5,428.833 311.5,426.167 311.5,423.5C 312.833,423.5 314.167,423.5 315.5,423.5C 315.5,422.167 315.5,420.833 315.5,419.5C 316.833,419.5 318.167,419.5 319.5,419.5C 319.5,414.167 319.5,408.833 319.5,403.5C 320.833,403.5 322.167,403.5 323.5,403.5C 323.5,401.833 323.5,400.167 323.5,398.5C 319.548,399.272 315.548,399.605 311.5,399.5C 311.5,396.833 311.5,394.167 311.5,391.5C 318.192,392.397 324.859,392.397 331.5,391.5C 331.5,388.833 331.5,386.167 331.5,383.5C 332.833,383.5 334.167,383.5 335.5,383.5C 335.5,380.833 335.5,378.167 335.5,375.5C 338.167,375.5 340.833,375.5 343.5,375.5C 343.5,372.833 343.5,370.167 343.5,367.5C 344.833,367.5 346.167,367.5 347.5,367.5C 347.5,366.167 347.5,364.833 347.5,363.5C 348.833,363.5 350.167,363.5 351.5,363.5C 351.5,359.5 351.5,355.5 351.5,351.5C 359.5,351.5 367.5,351.5 375.5,351.5C 374.833,348.833 374.167,346.167 373.5,343.5C 375.718,343.386 377.718,342.72 379.5,341.5C 380.167,346.326 382.834,349.492 387.5,351C 395.62,352.107 400.286,348.607 401.5,340.5C 401.526,335.877 399.526,332.544 395.5,330.5C 397.42,329.935 399.087,328.935 400.5,327.5C 401.833,325.5 403.5,323.833 405.5,322.5C 407.435,323.15 409.435,323.483 411.5,323.5C 411.5,321.5 411.5,319.5 411.5,317.5C 413.929,317.884 416.263,318.551 418.5,319.5C 418.336,316.813 418.503,314.146 419,311.5C 420,310.167 421,310.167 422,311.5C 422.497,314.146 422.664,316.813 422.5,319.5C 428.631,320.092 434.464,319.425 440,317.5C 440.309,318.766 440.809,319.933 441.5,321C 440.027,321.71 439.36,322.876 439.5,324.5C 437.801,324.34 436.134,324.506 434.5,325C 435.821,326.545 435.488,327.711 433.5,328.5C 430.242,327.583 426.909,327.249 423.5,327.5C 423.5,330.167 423.5,332.833 423.5,335.5C 424.873,335.343 426.207,335.51 427.5,336C 427.619,337.145 427.952,338.312 428.5,339.5 Z"/></g>
<g><path style="opacity:1" fill="#0d0d0d" d="M 632.5,331.5 C 641.394,330.731 645.727,334.731 645.5,343.5C 644.457,346.056 642.79,348.223 640.5,350C 628.296,353.117 623.129,348.617 625,336.5C 626.41,333.211 628.91,331.544 632.5,331.5 Z"/></g>
<g><path style="opacity:1" fill="#111111" d="M 395.5,330.5 C 399.526,332.544 401.526,335.877 401.5,340.5C 400.286,348.607 395.62,352.107 387.5,351C 382.834,349.492 380.167,346.326 379.5,341.5C 381.091,332.372 386.425,328.705 395.5,330.5 Z"/></g>
<g><path style="opacity:1" fill="#abacab" d="M 433.5,377.5 C 454.327,376.503 475.327,376.169 496.5,376.5C 496.5,378.167 496.5,379.833 496.5,381.5C 495.566,380.432 495.232,379.099 495.5,377.5C 474.833,377.5 454.167,377.5 433.5,377.5 Z"/></g>
<g><path style="opacity:1" fill="#8b8b8b" d="M 593.5,401.5 C 592.508,393.684 592.174,385.684 592.5,377.5C 571.833,377.5 551.167,377.5 530.5,377.5C 530.795,379.735 530.461,381.735 529.5,383.5C 529.5,381.167 529.5,378.833 529.5,376.5C 550.833,376.5 572.167,376.5 593.5,376.5C 593.5,384.833 593.5,393.167 593.5,401.5 Z"/></g>
<g><path style="opacity:1" fill="#fdfdfc" d="M 433.5,377.5 C 454.167,377.5 474.833,377.5 495.5,377.5C 495.232,379.099 495.566,380.432 496.5,381.5C 496.5,387.833 496.5,394.167 496.5,400.5C 496.5,406.5 496.5,412.5 496.5,418.5C 496.672,419.492 496.338,420.158 495.5,420.5C 474.5,420.5 453.5,420.5 432.5,420.5C 432.5,414.167 432.5,407.833 432.5,401.5C 432.174,393.316 432.508,385.316 433.5,377.5 Z"/></g>
<g><path style="opacity:1" fill="#fdfcfc" d="M 593.5,401.5 C 593.83,408.2 593.497,414.866 592.5,421.5C 571.546,420.512 550.546,420.178 529.5,420.5C 529.5,414.167 529.5,407.833 529.5,401.5C 529.5,395.5 529.5,389.5 529.5,383.5C 530.461,381.735 530.795,379.735 530.5,377.5C 551.167,377.5 571.833,377.5 592.5,377.5C 592.174,385.684 592.508,393.684 593.5,401.5 Z"/></g>
<g><path style="opacity:1" fill="#a43433" d="M 496.5,400.5 C 507.581,400.19 518.581,400.523 529.5,401.5C 529.5,407.833 529.5,414.167 529.5,420.5C 528.51,414.69 528.177,408.69 528.5,402.5C 518.167,402.5 507.833,402.5 497.5,402.5C 497.821,408.026 497.488,413.36 496.5,418.5C 496.5,412.5 496.5,406.5 496.5,400.5 Z"/></g>
<g><path style="opacity:1" fill="#d52828" d="M 529.5,420.5 C 549.806,422.488 570.473,423.155 591.5,422.5C 592.053,426.456 592.886,426.456 594,422.5C 594.5,416.175 594.666,409.842 594.5,403.5C 601.5,403.5 608.5,403.5 615.5,403.5C 614.669,410.131 614.336,416.798 614.5,423.5C 611.813,424.336 609.48,425.836 607.5,428C 608.563,429.188 609.897,429.688 611.5,429.5C 610.941,433.853 610.275,438.186 609.5,442.5C 599.358,464.816 583.691,482.316 562.5,495C 554.675,498.22 546.675,500.72 538.5,502.5C 521.79,504.011 505.123,503.678 488.5,501.5C 485.15,501.665 481.817,501.498 478.5,501C 445.078,487.575 422.578,463.742 411,429.5C 410.503,426.854 410.336,424.187 410.5,421.5C 410.575,415.471 410.241,409.471 409.5,403.5C 416.5,403.5 423.5,403.5 430.5,403.5C 430.19,409.758 430.524,415.924 431.5,422C 442.167,422.167 452.833,422.333 463.5,422.5C 474.522,422.499 485.188,421.832 495.5,420.5C 496.338,420.158 496.672,419.492 496.5,418.5C 497.488,413.36 497.821,408.026 497.5,402.5C 507.833,402.5 518.167,402.5 528.5,402.5C 528.177,408.69 528.51,414.69 529.5,420.5 Z"/></g>
<g><path style="opacity:1" fill="#c64744" d="M 408.5,401.5 C 416.5,401.5 424.5,401.5 432.5,401.5C 432.5,407.833 432.5,414.167 432.5,420.5C 453.5,420.5 474.5,420.5 495.5,420.5C 485.188,421.832 474.522,422.499 463.5,422.5C 452.833,422.333 442.167,422.167 431.5,422C 430.524,415.924 430.19,409.758 430.5,403.5C 423.5,403.5 416.5,403.5 409.5,403.5C 410.241,409.471 410.575,415.471 410.5,421.5C 409.402,415.021 408.735,408.354 408.5,401.5 Z"/></g>
<g><path style="opacity:1" fill="#cd4440" d="M 593.5,401.5 C 601.5,401.5 609.5,401.5 617.5,401.5C 618.125,415.966 615.459,429.633 609.5,442.5C 610.275,438.186 610.941,433.853 611.5,429.5C 609.897,429.688 608.563,429.188 607.5,428C 609.48,425.836 611.813,424.336 614.5,423.5C 614.336,416.798 614.669,410.131 615.5,403.5C 608.5,403.5 601.5,403.5 594.5,403.5C 594.666,409.842 594.5,416.175 594,422.5C 592.886,426.456 592.053,426.456 591.5,422.5C 570.473,423.155 549.806,422.488 529.5,420.5C 550.546,420.178 571.546,420.512 592.5,421.5C 593.497,414.866 593.83,408.2 593.5,401.5 Z"/></g>
<g><path style="opacity:1" fill="#cc4744" d="M 488.5,501.5 C 505.123,503.678 521.79,504.011 538.5,502.5C 535.797,503.963 532.797,504.796 529.5,505C 525.167,505.167 520.833,505.333 516.5,505.5C 506.774,505.92 497.441,504.587 488.5,501.5 Z"/></g>
<g><path style="opacity:1" fill="#e09697" d="M 616.5,509.5 C 596.66,509.17 576.993,509.503 557.5,510.5C 556.167,510.5 554.833,510.5 553.5,510.5C 554.263,509.732 555.263,509.232 556.5,509C 576.671,508.171 596.671,508.338 616.5,509.5 Z"/></g>
<g><path style="opacity:1" fill="#d93035" d="M 479.5,512.5 C 479.611,513.117 479.944,513.617 480.5,514C 488.214,515.512 495.881,517.346 503.5,519.5C 514.941,521.039 526.274,520.539 537.5,518C 541.335,515.297 545.668,513.797 550.5,513.5C 551.77,512.712 552.77,511.712 553.5,510.5C 554.833,510.5 556.167,510.5 557.5,510.5C 576.5,510.5 595.5,510.5 614.5,510.5C 614.5,522.5 614.5,534.5 614.5,546.5C 581.123,546.819 547.79,546.486 514.5,545.5C 493.923,534.256 473.59,522.589 453.5,510.5C 462.433,508.932 471.1,509.599 479.5,512.5 Z"/></g>
<g><path style="opacity:1" fill="#d34848" d="M 553.5,510.5 C 552.77,511.712 551.77,512.712 550.5,513.5C 545.668,513.797 541.335,515.297 537.5,518C 526.274,520.539 514.941,521.039 503.5,519.5C 495.881,517.346 488.214,515.512 480.5,514C 479.944,513.617 479.611,513.117 479.5,512.5C 504.385,519.737 529.052,519.07 553.5,510.5 Z"/></g>
<g><path style="opacity:1" fill="#14895f" d="M 513.5,566.5 C 547.329,567.498 581.329,567.832 615.5,567.5C 615.5,584.167 615.5,600.833 615.5,617.5C 579.663,617.168 543.996,617.502 508.5,618.5C 498.792,624.505 489.126,630.505 479.5,636.5C 456.421,650.038 433.088,663.038 409.5,675.5C 408.504,659.675 408.17,643.675 408.5,627.5C 413.853,624.766 419.186,621.933 424.5,619C 427.495,616.525 429.828,613.692 431.5,610.5C 436.67,609.254 441.67,607.42 446.5,605C 452.02,601.324 457.686,597.824 463.5,594.5C 465.012,593.751 466.012,592.584 466.5,591C 447.661,576.954 427.994,564.454 407.5,553.5C 407.167,538.152 407.501,522.819 408.5,507.5C 436.199,523.68 463.866,539.847 491.5,556C 498.512,560.181 505.846,563.681 513.5,566.5 Z"/></g>
<g><path style="opacity:1" fill="#c53a3d" d="M 557.5,510.5 C 576.993,509.503 596.66,509.17 616.5,509.5C 616.5,522.5 616.5,535.5 616.5,548.5C 583.498,548.667 550.498,548.5 517.5,548C 516.058,547.623 515.058,546.79 514.5,545.5C 547.79,546.486 581.123,546.819 614.5,546.5C 614.5,534.5 614.5,522.5 614.5,510.5C 595.5,510.5 576.5,510.5 557.5,510.5 Z"/></g>
<g><path style="opacity:1" fill="#070707" d="M 678.5,561.5 C 686.179,577.532 693.346,593.866 700,610.5C 701.44,616.195 700.274,621.195 696.5,625.5C 689.991,629.255 683.324,632.755 676.5,636C 671.581,636.802 666.748,636.635 662,635.5C 659.121,629.741 656.287,624.075 653.5,618.5C 647.907,603.308 641.741,588.308 635,573.5C 633.709,564.531 636.209,556.864 642.5,550.5C 658.444,542.039 670.444,545.706 678.5,561.5 Z"/></g>
<g><path style="opacity:1" fill="#090909" d="M 366.5,626.5 C 365.163,629.991 363.163,633.157 360.5,636C 344.224,638.193 331.89,632.359 323.5,618.5C 321.915,615.087 322.415,612.087 325,609.5C 328.401,600.927 331.568,592.261 334.5,583.5C 338.596,574.631 342.763,565.631 347,556.5C 353.329,546.887 362.162,543.72 373.5,547C 385.775,552.718 390.775,562.218 388.5,575.5C 380.387,592.175 373.054,609.175 366.5,626.5 Z"/></g>
<g><path style="opacity:1" fill="#0b0e0e" d="M 407.5,569.5 C 416.167,574.167 424.833,578.833 433.5,583.5C 437.131,585.988 440.797,588.488 444.5,591C 442.319,593.422 439.986,595.589 437.5,597.5C 431.355,599.737 425.688,602.737 420.5,606.5C 416.297,608.432 411.964,610.099 407.5,611.5C 407.5,597.5 407.5,583.5 407.5,569.5 Z"/></g>
<g><path style="opacity:1" fill="#f6aa1d" d="M 407.5,553.5 C 427.994,564.454 447.661,576.954 466.5,591C 466.012,592.584 465.012,593.751 463.5,594.5C 457.686,597.824 452.02,601.324 446.5,605C 441.67,607.42 436.67,609.254 431.5,610.5C 429.828,613.692 427.495,616.525 424.5,619C 419.186,621.933 413.853,624.766 408.5,627.5C 408.334,623.154 408.501,618.821 409,614.5C 413.162,612.181 416.995,609.514 420.5,606.5C 425.688,602.737 431.355,599.737 437.5,597.5C 440.874,596.142 444.207,594.809 447.5,593.5C 447.978,590.722 446.978,588.722 444.5,587.5C 441.325,584.79 437.658,583.457 433.5,583.5C 424.833,578.833 416.167,574.167 407.5,569.5C 407.5,564.167 407.5,558.833 407.5,553.5 Z"/></g>
<g><path style="opacity:1" fill="#bb9f4c" d="M 433.5,583.5 C 437.658,583.457 441.325,584.79 444.5,587.5C 446.978,588.722 447.978,590.722 447.5,593.5C 444.207,594.809 440.874,596.142 437.5,597.5C 439.986,595.589 442.319,593.422 444.5,591C 440.797,588.488 437.131,585.988 433.5,583.5 Z"/></g>
<g><path style="opacity:1" fill="#d6b56b" d="M 420.5,606.5 C 416.995,609.514 413.162,612.181 409,614.5C 408.501,618.821 408.334,623.154 408.5,627.5C 408.167,627.5 407.833,627.5 407.5,627.5C 407.5,622.167 407.5,616.833 407.5,611.5C 411.964,610.099 416.297,608.432 420.5,606.5 Z"/></g>
<g><path style="opacity:1" fill="#61a38c" d="M 513.5,566.5 C 548.004,566.168 582.337,566.502 616.5,567.5C 616.5,584.5 616.5,601.5 616.5,618.5C 580.5,618.5 544.5,618.5 508.5,618.5C 543.996,617.502 579.663,617.168 615.5,617.5C 615.5,600.833 615.5,584.167 615.5,567.5C 581.329,567.832 547.329,567.498 513.5,566.5 Z"/></g>
<g><path style="opacity:1" fill="#e9fbf5" d="M 616.5,567.5 C 617.831,575.639 618.498,584.139 618.5,593C 618.333,601.5 618.167,610 618,618.5C 617.5,619 617,619.5 616.5,620C 580.829,620.167 545.162,620.667 509.5,621.5C 508.807,623.711 507.641,624.045 506,622.5C 504.238,623.591 502.404,624.591 500.5,625.5C 501.954,627.667 501.788,629.667 500,631.5C 498.582,628.999 497.582,629.332 497,632.5C 495.192,630.604 493.025,630.104 490.5,631C 487.43,634.076 483.764,635.909 479.5,636.5C 489.126,630.505 498.792,624.505 508.5,618.5C 544.5,618.5 580.5,618.5 616.5,618.5C 616.5,601.5 616.5,584.5 616.5,567.5 Z"/></g>
<g><path style="opacity:1" fill="#303e8e" d="M 415.5,698.5 C 419.659,695.253 423.992,692.253 428.5,689.5C 439.505,683.981 449.838,677.481 459.5,670C 476.88,661.106 493.88,651.606 510.5,641.5C 545.123,640.514 579.79,640.18 614.5,640.5C 614.5,662.5 614.5,684.5 614.5,706.5C 546.5,706.5 478.5,706.5 410.5,706.5C 410.5,705.167 410.5,703.833 410.5,702.5C 413.069,702.262 414.735,700.929 415.5,698.5 Z"/></g>
<g><path style="opacity:1" fill="#9fa6cb" d="M 513.5,639.5 C 547.996,638.502 582.663,638.168 617.5,638.5C 617.5,650.5 617.5,662.5 617.5,674.5C 617.822,680.358 617.489,686.025 616.5,691.5C 616.5,674.167 616.5,656.833 616.5,639.5C 582.167,639.5 547.833,639.5 513.5,639.5 Z"/></g>
<g><path style="opacity:1" fill="#7cc2aa" d="M 407.5,627.5 C 407.833,627.5 408.167,627.5 408.5,627.5C 408.17,643.675 408.504,659.675 409.5,675.5C 409.44,676.043 409.107,676.376 408.5,676.5C 407.501,660.18 407.167,643.847 407.5,627.5 Z"/></g>
<g><path style="opacity:1" fill="#364181" d="M 513.5,639.5 C 547.833,639.5 582.167,639.5 616.5,639.5C 616.5,656.833 616.5,674.167 616.5,691.5C 616.5,697.167 616.5,702.833 616.5,708.5C 604.833,708.5 593.167,708.5 581.5,708.5C 524.336,707.501 467.002,707.168 409.5,707.5C 409.5,705.5 409.5,703.5 409.5,701.5C 411.181,699.992 413.181,698.992 415.5,698.5C 414.735,700.929 413.069,702.262 410.5,702.5C 410.5,703.833 410.5,705.167 410.5,706.5C 478.5,706.5 546.5,706.5 614.5,706.5C 614.5,684.5 614.5,662.5 614.5,640.5C 579.79,640.18 545.123,640.514 510.5,641.5C 510.973,640.094 511.973,639.427 513.5,639.5 Z"/></g>
<g><path style="opacity:1" fill="#6e7598" d="M 409.5,701.5 C 409.5,703.5 409.5,705.5 409.5,707.5C 467.002,707.168 524.336,707.501 581.5,708.5C 523.833,708.5 466.167,708.5 408.5,708.5C 408.198,705.941 408.532,703.607 409.5,701.5 Z"/></g>
<g><path style="opacity:1" fill="#eaeae3" d="M 409.5,709.5 C 476.174,709.199 542.84,709.699 609.5,711C 612.167,711.667 612.167,712.333 609.5,713C 610.833,713.333 612.167,713.667 613.5,714C 546.167,714.667 478.833,714.667 411.5,714C 409.963,712.89 409.297,711.39 409.5,709.5 Z"/></g>
<g><path style="opacity:1" fill="#feff65" d="M 959.5,1007.5 C 959.5,1012.83 959.5,1018.17 959.5,1023.5C 954.167,1023.5 948.833,1023.5 943.5,1023.5C 943.5,1018.17 943.5,1012.83 943.5,1007.5C 948.833,1007.5 954.167,1007.5 959.5,1007.5 Z"/></g>
<g><path style="opacity:1" fill="#42fffe" d="M 959.5,1007.5 C 964.833,1007.5 970.167,1007.5 975.5,1007.5C 975.5,1012.83 975.5,1018.17 975.5,1023.5C 970.167,1023.5 964.833,1023.5 959.5,1023.5C 959.5,1018.17 959.5,1012.83 959.5,1007.5 Z"/></g>
<g><path style="opacity:1" fill="#51da4b" d="M 975.5,1007.5 C 980.833,1007.5 986.167,1007.5 991.5,1007.5C 991.5,1012.83 991.5,1018.17 991.5,1023.5C 986.167,1023.5 980.833,1023.5 975.5,1023.5C 975.5,1018.17 975.5,1012.83 975.5,1007.5 Z"/></g>
<g><path style="opacity:1" fill="#fe6e3b" d="M 991.5,1007.5 C 996.833,1007.5 1002.17,1007.5 1007.5,1007.5C 1007.5,1012.83 1007.5,1018.17 1007.5,1023.5C 1002.17,1023.5 996.833,1023.5 991.5,1023.5C 991.5,1018.17 991.5,1012.83 991.5,1007.5 Z"/></g>
<g><path style="opacity:1" fill="#3c45ff" d="M 1007.5,1007.5 C 1012.83,1007.5 1018.17,1007.5 1023.5,1007.5C 1023.5,1012.83 1023.5,1018.17 1023.5,1023.5C 1018.17,1023.5 1012.83,1023.5 1007.5,1023.5C 1007.5,1018.17 1007.5,1012.83 1007.5,1007.5 Z"/></g>
</svg>
